<svg xmlns="http://www.w3.org/2000/svg" width="80" height="80" viewBox="0 0 80 80"><g transform="translate(-295 -973)"><g transform="translate(0 452)"><circle cx="40" cy="40" r="40" transform="translate(295 521)" fill="rgba(237,188,8,0.16)"/></g><g transform="translate(0 92)"><g transform="translate(315 901)"><g transform="translate(0)"><path d="M35.354,18.686H28.889L31.576,16a4.217,4.217,0,0,0,0-5.959L22.759,1.231a4.212,4.212,0,0,0-5.951,0L8,10.04A4.217,4.217,0,0,0,8,16l2.687,2.687H4.222A4.223,4.223,0,0,0,0,22.9V35.354a4.222,4.222,0,0,0,4.214,4.214H16.668a4.207,4.207,0,0,0,3.116-1.386A4.194,4.194,0,0,0,22.9,39.568H35.354a4.222,4.222,0,0,0,4.214-4.214V22.9A4.222,4.222,0,0,0,35.354,18.686ZM18.686,35.354a2.018,2.018,0,0,1-2.017,2.017H4.214A2.018,2.018,0,0,1,2.2,35.354V22.9a2.018,2.018,0,0,1,2.017-2.017h8.669l3.926,3.926a4.179,4.179,0,0,0,1.877,1.09Zm1.1-11.512a2,2,0,0,1-1.425-.592l-8.809-8.8a2.017,2.017,0,0,1,0-2.851l8.809-8.809a2.012,2.012,0,0,1,2.851,0L30.018,11.6a2.017,2.017,0,0,1,0,2.851l-8.809,8.809A2.029,2.029,0,0,1,19.784,23.842ZM37.371,35.354h0a2.018,2.018,0,0,1-2.017,2.017H22.9a2.018,2.018,0,0,1-2.017-2.017V25.9a4.179,4.179,0,0,0,1.877-1.09l3.926-3.926h8.669A2.018,2.018,0,0,1,37.371,22.9V35.354Z" transform="translate(0)" fill="#edbc08"/></g></g><g transform="matrix(0.695, -0.719, 0.719, 0.695, 329.61, 912.451)"><path d="M2.826,268.192,0,266.848l2.826,4.939,2.826-4.939Zm0,0" transform="translate(0 -261.472)" fill="#edbc08"/><path d="M20.173,4.374,17.654,0,15.133,4.379l2.521-1.2Zm0,0" transform="translate(-14.828)" fill="#edbc08"/><path d="M25.98,192.4l2.3,1.091L30.59,192.4l-2.307-1.091Zm0,0" transform="translate(-25.457 -187.454)" fill="#edbc08"/></g><g transform="translate(341.457 924.843)"><path d="M2.826,268.192,0,266.848l2.826,4.939,2.826-4.939Zm0,0" transform="translate(0 -261.472)" fill="#edbc08"/><path d="M20.173,4.374,17.654,0,15.133,4.379l2.521-1.2Zm0,0" transform="translate(-14.828)" fill="#edbc08"/><path d="M25.98,192.4l2.3,1.091L30.59,192.4l-2.307-1.091Zm0,0" transform="translate(-25.457 -187.454)" fill="#edbc08"/></g><g transform="translate(322.457 924.843)"><path d="M2.826,268.192,0,266.848l2.826,4.939,2.826-4.939Zm0,0" transform="translate(0 -261.472)" fill="#edbc08"/><path d="M20.173,4.374,17.654,0,15.133,4.379l2.521-1.2Zm0,0" transform="translate(-14.828)" fill="#edbc08"/><path d="M25.98,192.4l2.3,1.091L30.59,192.4l-2.307-1.091Zm0,0" transform="translate(-25.457 -187.454)" fill="#edbc08"/></g></g></g></svg>