<svg xmlns="http://www.w3.org/2000/svg" width="38" height="38" viewBox="0 0 38 38"><g transform="translate(47.224 21.736) rotate(90)"><path d="M19,0A19,19,0,1,1,0,19,19,19,0,0,1,19,0Z" transform="translate(-21.736 9.224)" fill="#eaeaea"/><g transform="translate(-9.579 35.066) rotate(-90)"><path d="M7.448,0A7.448,7.448,0,1,0,14.9,7.448,7.456,7.456,0,0,0,7.448,0ZM1.364,7.448A6.079,6.079,0,0,1,11.408,2.836L2.836,11.408A6.055,6.055,0,0,1,1.364,7.448Zm6.084,6.084a6.052,6.052,0,0,1-3.614-1.193l8.5-8.5a6.08,6.08,0,0,1-4.89,9.7Z" fill="#9fa6b3"/></g></g></svg>