<svg xmlns="http://www.w3.org/2000/svg" width="45" height="45" viewBox="0 0 45 45"><g transform="translate(-1739.391 -910.391)"><circle cx="22.5" cy="22.5" r="22.5" transform="translate(1739.391 910.391)" fill="#3682dd"/><g transform="translate(1750.877 922.731)"><path d="M350.352,45.351l-.77,3.945-3.2-3.2Z" transform="translate(-330.909 -44.66)" fill="#3682dd"/><g transform="translate(0 0)"><path d="M70.063,30.083a.692.692,0,0,0-.63-.187l-3.968.747a.679.679,0,0,0-.537.49.754.754,0,0,0,.163.7l1,1-4.2,3.851-3.034-2.638a.679.679,0,0,0-.91,0L52.72,38.579a.689.689,0,0,0,.467,1.214.714.714,0,0,0,.467-.163L58.416,35.5l3.034,2.638a.685.685,0,0,0,.934-.023L67.1,33.794l1.19,1.19a.672.672,0,0,0,.49.21.647.647,0,0,0,.21-.023.679.679,0,0,0,.49-.537l.77-3.921A.692.692,0,0,0,70.063,30.083Zm-1.7,3.011-1.33-1.33,1.657-.3Z" transform="translate(-50.129 -29.882)" fill="#fff"/><path d="M21.8,443.813H.7a.7.7,0,0,1,0-1.4H21.8a.7.7,0,0,1,0,1.4Z" transform="translate(0 -423.981)" fill="#fff"/><path d="M236.847,337.5a.688.688,0,0,1-.7-.7v-4.972a.7.7,0,1,1,1.4,0V336.8A.688.688,0,0,1,236.847,337.5Z" transform="translate(-225.597 -317.672)" fill="#fff"/><path d="M174.154,247.664a.688.688,0,0,1-.7-.7V237.79a.7.7,0,0,1,1.4,0v9.173A.688.688,0,0,1,174.154,247.664Z" transform="translate(-165.705 -227.832)" fill="#fff"/><path d="M299.541,297.575a.688.688,0,0,1-.7-.7v-6.839a.7.7,0,1,1,1.4,0v6.839A.688.688,0,0,1,299.541,297.575Z" transform="translate(-285.49 -277.743)" fill="#fff"/><path d="M362.235,192.762a.688.688,0,0,1-.7-.7V180.321a.7.7,0,1,1,1.4,0v11.741A.688.688,0,0,1,362.235,192.762Z" transform="translate(-345.383 -172.931)" fill="#fff"/><path d="M424.929,247.664a.688.688,0,0,1-.7-.7V237.79a.7.7,0,0,1,1.4,0v9.173A.688.688,0,0,1,424.929,247.664Z" transform="translate(-405.276 -227.832)" fill="#fff"/><path d="M111.46,377.432a.688.688,0,0,1-.7-.7v-3.1a.7.7,0,1,1,1.4,0v3.1A.688.688,0,0,1,111.46,377.432Z" transform="translate(-105.812 -357.601)" fill="#fff"/><path d="M48.766,332.512a.688.688,0,0,1-.7-.7v-5.205a.7.7,0,0,1,1.4,0v5.205A.688.688,0,0,1,48.766,332.512Z" transform="translate(-45.919 -312.68)" fill="#fff"/></g></g></g></svg>