<svg xmlns="http://www.w3.org/2000/svg" width="80" height="80" viewBox="0 0 80 80"><g transform="translate(-295 -521)"><circle cx="40" cy="40" r="40" transform="translate(295 521)" fill="rgba(30,129,206,0.16)"/><g transform="translate(314.958 539.58)"><circle cx="7.217" cy="7.217" r="7.217" transform="translate(2.601 23.839)" fill="#9bc9ff"/><circle cx="7.217" cy="7.217" r="7.217" transform="translate(23.049 4.594)" fill="#9bc9ff"/><g transform="translate(2 3.982)"><path d="M17.637,43.818a7.818,7.818,0,1,0-7.818,7.818,7.818,7.818,0,0,0,7.818-7.818ZM9.818,50.434a6.616,6.616,0,1,1,6.616-6.616A6.616,6.616,0,0,1,9.818,50.434Z" transform="translate(-2 -16.744)" fill="#1e81ce"/><path d="M13.007,42.406c.978,0,1.8.551,1.8,1.2a.6.6,0,0,0,1.2,0,2.617,2.617,0,0,0-2.406-2.357V40.6a.6.6,0,0,0-1.2,0v.65A2.617,2.617,0,0,0,10,43.608a2.76,2.76,0,0,0,3.007,2.406c.978,0,1.8.551,1.8,1.2s-.826,1.2-1.8,1.2-1.8-.551-1.8-1.2a.6.6,0,1,0-1.2,0,2.617,2.617,0,0,0,2.406,2.357v.65a.6.6,0,0,0,1.2,0v-.65a2.617,2.617,0,0,0,2.406-2.357,2.76,2.76,0,0,0-3.007-2.406c-.978,0-1.8-.551-1.8-1.2S12.029,42.406,13.007,42.406Z" transform="translate(-5.189 -18.339)" fill="#1e81ce"/><path d="M47.007,10.406c.978,0,1.8.551,1.8,1.2a.6.6,0,0,0,1.2,0,2.617,2.617,0,0,0-2.406-2.357V8.6a.6.6,0,0,0-1.2,0v.65A2.617,2.617,0,0,0,44,11.608a2.76,2.76,0,0,0,3.007,2.406c.978,0,1.8.551,1.8,1.2s-.826,1.2-1.8,1.2-1.8-.551-1.8-1.2a.6.6,0,0,0-1.2,0,2.617,2.617,0,0,0,2.406,2.357v.65a.6.6,0,1,0,1.2,0v-.65a2.617,2.617,0,0,0,2.406-2.357,2.76,2.76,0,0,0-3.007-2.406c-.978,0-1.8-.551-1.8-1.2S46.029,10.406,47.007,10.406Z" transform="translate(-18.741 -5.584)" fill="#1e81ce"/><path d="M49.832,18.427H47.968a7.818,7.818,0,1,0-8.3,0H37.8a1.8,1.8,0,0,0-1.335,3.007,1.777,1.777,0,0,0,0,2.406,1.777,1.777,0,0,0,0,2.406,1.777,1.777,0,0,0,0,2.406,1.777,1.777,0,0,0,0,2.406,1.777,1.777,0,0,0,0,2.406,1.777,1.777,0,0,0,0,2.406A1.8,1.8,0,0,0,37.8,38.875H49.832a1.8,1.8,0,0,0,1.335-3.007,1.777,1.777,0,0,0,0-2.406,1.777,1.777,0,0,0,0-2.406,1.777,1.777,0,0,0,0-2.406,1.777,1.777,0,0,0,0-2.406,1.777,1.777,0,0,0,0-2.406,1.777,1.777,0,0,0,0-2.406,1.8,1.8,0,0,0-1.335-3.007ZM37.2,11.811a6.616,6.616,0,1,1,6.616,6.616A6.616,6.616,0,0,1,37.2,11.811Zm.6,7.818H49.832a.6.6,0,0,1,0,1.2H37.8a.6.6,0,0,1,0-1.2Zm12.63,3.007a.6.6,0,0,1-.6.6H37.8a.6.6,0,1,1,0-1.2H49.832A.6.6,0,0,1,50.433,22.637Zm0,2.406a.6.6,0,0,1-.6.6H37.8a.6.6,0,1,1,0-1.2H49.832A.6.6,0,0,1,50.433,25.042Zm0,2.406a.6.6,0,0,1-.6.6H37.8a.6.6,0,0,1,0-1.2H49.832A.6.6,0,0,1,50.433,27.448Zm0,2.406a.6.6,0,0,1-.6.6H37.8a.6.6,0,0,1,0-1.2H49.832A.6.6,0,0,1,50.433,29.854Zm0,2.406a.6.6,0,0,1-.6.6H37.8a.6.6,0,0,1,0-1.2H49.832A.6.6,0,0,1,50.433,32.259Zm0,2.406a.6.6,0,0,1-.6.6H37.8a.6.6,0,0,1,0-1.2H49.832A.6.6,0,0,1,50.433,34.665Zm-.6,3.007H37.8a.6.6,0,0,1,0-1.2H49.832a.6.6,0,0,1,0,1.2Z" transform="translate(-15.552 -3.982)" fill="#1e81ce"/><path d="M30.42,49.021a1.79,1.79,0,0,0-.471-1.2,1.766,1.766,0,0,0,.471-1.2,1.79,1.79,0,0,0-.471-1.2,1.766,1.766,0,0,0,.471-1.2,1.79,1.79,0,0,0-.471-1.2,1.766,1.766,0,0,0,.471-1.2,1.8,1.8,0,0,0-1.8-1.8H24.977a.6.6,0,0,0,0,1.2h3.639a.6.6,0,0,1,.6.6.586.586,0,0,1-.184.428.576.576,0,0,1-.417.173H26.21a.6.6,0,0,0,0,1.2h2.406a.6.6,0,0,1,.6.6.586.586,0,0,1-.184.428.576.576,0,0,1-.417.173h-1.8a.6.6,0,1,0,0,1.2h1.8a.6.6,0,0,1,.6.6.586.586,0,0,1-.184.428.576.576,0,0,1-.417.173h-1.8a.6.6,0,0,0,0,1.2h1.8a.6.6,0,0,1,.6.6.586.586,0,0,1-.184.428.576.576,0,0,1-.417.173H24.977a.6.6,0,0,0,0,1.2h3.639a.6.6,0,0,1,.6.6.586.586,0,0,1-.184.428.576.576,0,0,1-.417.173H22.6a.6.6,0,0,0,0,1.2h6.014a1.813,1.813,0,0,0,1.8-1.8,1.79,1.79,0,0,0-.471-1.2A1.766,1.766,0,0,0,30.42,49.021Z" transform="translate(-9.972 -18.339)" fill="#1e81ce"/></g></g></g></svg>