<svg xmlns="http://www.w3.org/2000/svg" width="165.748" height="45.197" viewBox="0 0 165.748 45.197"><g transform="translate(-976.126 -1010.307)"><path d="M32.884,21.648a4.6,4.6,0,0,0-4.441,4h-6.07a5.19,5.19,0,0,0-.888-2.073l7.254-7.4a3.215,3.215,0,0,0,4.293-.592,3.376,3.376,0,0,0-.148-4.441,3.191,3.191,0,0,0-4.293-.3,3.41,3.41,0,0,0-.74,4.441l-7.254,7.4a5.19,5.19,0,0,0-2.073-.888V8.917a4.486,4.486,0,0,0,3.849-5.033A4.27,4.27,0,0,0,17.488.035a4.658,4.658,0,0,0-3.849,5.181,4.553,4.553,0,0,0,3.849,3.849V21.8a5.19,5.19,0,0,0-2.073.888L9.642,16.763A2.082,2.082,0,0,0,8.754,14.1c-.148,0-.148,0-.3-.148a1.857,1.857,0,0,0-2.369.592,1.994,1.994,0,0,0,.148,2.369,1.816,1.816,0,0,0,2.369.444l5.773,6.07a5.014,5.014,0,0,0-.3,5.181L4.9,38.08a2.887,2.887,0,0,0-4.145.444,3.376,3.376,0,0,0,.148,4.441,3.191,3.191,0,0,0,4.293.3,3.409,3.409,0,0,0,.74-4.441l9.03-9.326a4.512,4.512,0,0,0,2.369,1.184v7.994a3.263,3.263,0,0,0-2.517,3.553,3.191,3.191,0,0,0,6.366,0,3.263,3.263,0,0,0-2.517-3.553V30.678a5.192,5.192,0,0,0,2.073-.888l5.773,5.921a1.878,1.878,0,0,0-.148.888,1.925,1.925,0,1,0,1.925-1.925,1.878,1.878,0,0,0-.888.148L21.633,28.9a5.19,5.19,0,0,0,.888-2.073h6.07a4.685,4.685,0,0,0,4.885,4,4.655,4.655,0,0,0,4-5.181A4.752,4.752,0,0,0,32.884,21.648Z" transform="translate(976.126 1010.307)" fill="#1d0d44"/><g transform="translate(1022.037 1030.178)"><path d="M57.958,32.149a.793.793,0,0,1,.74.74.7.7,0,0,1-.74.74H53.369a.7.7,0,0,1-.74-.74v-9.03a.793.793,0,0,1,.74-.74.7.7,0,0,1,.74.74v8.29Z" transform="translate(-52.629 -22.823)" fill="#1d0d44"/><path d="M66.1,32.149a.793.793,0,0,1,.74.74.7.7,0,0,1-.74.74H61.515a.793.793,0,0,1-.74-.74.7.7,0,0,1,.74-.74h1.48V24.6h-1.48a.793.793,0,0,1-.74-.74.7.7,0,0,1,.74-.74H66.1a.793.793,0,0,1,.74.74.7.7,0,0,1-.74.74h-1.48v7.55Z" transform="translate(-53.669 -22.823)" fill="#1d0d44"/><path d="M74.693,32.276a7.638,7.638,0,0,0,.3-1.628V25.91a3.036,3.036,0,1,0-6.07.148v4.589a2.5,2.5,0,0,0,.444,1.48,2.95,2.95,0,0,0,4.145,1.036l.3.3a.78.78,0,0,0,1.036-.3.544.544,0,0,0,.148-.444C74.99,32.572,74.841,32.424,74.693,32.276Zm-1.184-1.628v.3l-.74-.74a.78.78,0,0,0-1.036.3.544.544,0,0,0-.148.444.769.769,0,0,0,.3.592l.592.592h-.444a1.483,1.483,0,0,1-1.48-1.48V26.058a1.556,1.556,0,0,1,3.109.148Z" transform="translate(-54.708 -22.801)" fill="#1d0d44"/><path d="M81.655,23.837a.793.793,0,0,1,.74-.74.7.7,0,0,1,.74.74v6.81a3.036,3.036,0,0,1-6.07.148V23.689a.793.793,0,0,1,.74-.74.7.7,0,0,1,.74.74V30.5a1.522,1.522,0,0,0,1.628,1.48,1.592,1.592,0,0,0,1.48-1.48Z" transform="translate(-55.748 -22.801)" fill="#1d0d44"/><path d="M90.54,32.149a.793.793,0,0,1,.74.74.7.7,0,0,1-.74.74H85.951a.793.793,0,0,1-.74-.74.7.7,0,0,1,.74-.74h1.48V24.6h-1.48a.793.793,0,0,1-.74-.74.7.7,0,0,1,.74-.74H90.54a.793.793,0,0,1,.74.74.7.7,0,0,1-.74.74H89.06v7.55Z" transform="translate(-56.788 -22.823)" fill="#1d0d44"/><path d="M96.487,22.949h-2.22a.7.7,0,0,0-.74.74v9.03a.7.7,0,0,0,.74.74h2.22A2.969,2.969,0,0,0,99.448,30.5V25.91A2.969,2.969,0,0,0,96.487,22.949Zm0,9.178h-1.48v-7.55h1.48a1.483,1.483,0,0,1,1.48,1.48v4.589A1.483,1.483,0,0,1,96.487,32.128Z" transform="translate(-57.849 -22.801)" fill="#1d0d44"/><path d="M106.831,32.149a.794.794,0,0,1,.741.74.7.7,0,0,1-.741.74h-4.589a.74.74,0,1,1,0-1.48h1.48V24.6h-1.48a.74.74,0,1,1,0-1.48h4.589a.794.794,0,0,1,.741.74.7.7,0,0,1-.741.74h-1.48v7.55Z" transform="translate(-58.867 -22.823)" fill="#1d0d44"/><path d="M115,22.949a.74.74,0,0,1,0,1.48h-1.48v8.29a.793.793,0,0,1-.741.74.7.7,0,0,1-.74-.74V24.43h-1.48a.794.794,0,0,1-.741-.74.7.7,0,0,1,.741-.74Z" transform="translate(-59.929 -22.801)" fill="#1d0d44"/><path d="M120.16,28.412l-2.22-4.293a.731.731,0,0,1,.148-1.036.543.543,0,0,1,.444-.148.892.892,0,0,1,.592.148l.147.148L120.9,26.34l1.629-3.109a.145.145,0,0,1,.147-.148.74.74,0,0,1,1.185.888l-2.221,4.441v4.293a.793.793,0,0,1-.74.74.7.7,0,0,1-.741-.74Z" transform="translate(-60.945 -22.787)" fill="#1d0d44"/><path d="M135.734,32.868a.793.793,0,0,1-.741.74.7.7,0,0,1-.74-.74v-9.03a.7.7,0,0,1,.74-.74.889.889,0,0,1,.592.148l.148.148,3.109,6.218V23.689a.793.793,0,0,1,.74-.74.7.7,0,0,1,.741.74v9.03a.7.7,0,0,1-.741.74,1.123,1.123,0,0,1-.592-.3l-.147-.148L135.734,26.8Z" transform="translate(-63.048 -22.801)" fill="#1d0d44"/><path d="M147.729,22.927a.793.793,0,0,1,.74.74.7.7,0,0,1-.74.74H143.88v2.961h2.96a.793.793,0,0,1,.741.74.7.7,0,0,1-.741.74h-2.96V31.81h3.849a.793.793,0,0,1,.74.74.7.7,0,0,1-.74.74H143.14a.7.7,0,0,1-.74-.74V23.52a.7.7,0,0,1,.74-.74Z" transform="translate(-64.088 -22.779)" fill="#1d0d44"/><path d="M155.9,22.949a.74.74,0,1,1,0,1.48h-1.48v8.29a.74.74,0,0,1-1.48,0V24.43h-1.48a.793.793,0,0,1-.74-.74.7.7,0,0,1,.74-.74Z" transform="translate(-65.149 -22.801)" fill="#1d0d44"/><path d="M159.369,23.859a.794.794,0,0,1,.741-.74.7.7,0,0,1,.74.74v7.994a.473.473,0,0,0,.444.444c.148,0,.148,0,.3-.148a.517.517,0,0,0,.148-.3V26.228a.793.793,0,0,1,.74-.74.7.7,0,0,1,.741.74v5.625c0,.148.147.444.3.444s.444-.148.444-.3V23.859a.793.793,0,0,1,.741-.74.7.7,0,0,1,.74.74v7.994a3.059,3.059,0,0,1-3.553,2.517,2.836,2.836,0,0,1-2.517-2.517Z" transform="translate(-66.254 -22.823)" fill="#1d0d44"/><path d="M170.136,22.948a3.1,3.1,0,0,0-2.961,3.109v4.737a3.1,3.1,0,0,0,3.109,2.961,3.2,3.2,0,0,0,2.961-3.109V25.908A2.912,2.912,0,0,0,170.136,22.948Zm1.629,7.7a1.592,1.592,0,0,1-1.48,1.48,1.614,1.614,0,0,1-1.629-1.48V26.056a1.556,1.556,0,0,1,3.109.148Z" transform="translate(-67.25 -22.799)" fill="#1d0d44"/><path d="M179.3,28.871a2.66,2.66,0,0,0,1.036-.74,3.036,3.036,0,0,0-2.221-5.181h-2.22a.7.7,0,0,0-.741.74v9.178a.74.74,0,0,0,1.48,0V29.019h1.036l2.073,4.145.148.148a.767.767,0,0,0,.591.3.545.545,0,0,0,.445-.148,1.126,1.126,0,0,0,.3-.592.543.543,0,0,0-.148-.444Zm-1.036-1.332h-1.48V24.578h1.48a1.48,1.48,0,1,1,0,2.961Z" transform="translate(-68.268 -22.801)" fill="#1d0d44"/><path d="M185.622,27.549l2.073-4.145a.145.145,0,0,1,.148-.148.732.732,0,1,1,1.035,1.036l-2.072,4.145,2.072,4c.3.3.148.74-.147,1.036a.545.545,0,0,1-.444.148.814.814,0,0,1-.741-.444l-2.073-4.145h-1.035v3.849a.74.74,0,0,1-1.48,0v-9.03a.793.793,0,0,1,.74-.74.7.7,0,0,1,.741.74V27.7Z" transform="translate(-69.265 -22.812)" fill="#1d0d44"/><path d="M128.332,30.282a1.036,1.036,0,1,0-1.036-1.036A1.036,1.036,0,0,0,128.332,30.282Z" transform="translate(-62.16 -23.473)" fill="#1d0d44"/></g></g></svg>