<svg xmlns="http://www.w3.org/2000/svg" xmlns:xlink="http://www.w3.org/1999/xlink" width="272.926" height="145.794" viewBox="0 0 272.926 145.794"><defs><clipPath id="a"><path d="M47.166,0A47.166,47.166,0,1,1,0,47.166,47.166,47.166,0,0,1,47.166,0Z" transform="translate(0)" fill="#fff"/></clipPath></defs><g transform="translate(-823.887 -294)"><g transform="translate(823.887 404.095)"><path d="M17.667-32.97c2-.269,3-1.537,3-3.727A2.061,2.061,0,0,0,18.244-39l-4.5.423c1.422-8.838,2.113-13.8,2.152-14.871.038-2.5-.961-3.689-4.189-3.689-1.806,0-3,.192-3.574.615A3.465,3.465,0,0,0,7.1-53.913c-.038,1.576.5,2.344,1.691,2.344h.115C7.868-45.151,7.215-40.463,6.984-37.5c-.269,3.113.423,4.265,2.844,4.573a29.489,29.489,0,0,0,4.265.192A33.043,33.043,0,0,0,17.667-32.97Zm13.911-2.536c0-1.729-.461-2.575-1.345-2.575A3.328,3.328,0,0,0,29-37.85a30.239,30.239,0,0,0,1.729-8.377c.038-3.074-1.076-4.573-4.265-4.573a7.759,7.759,0,0,0-3.382.576,2.583,2.583,0,0,0-1.076,2.152c-.192,1.652.346,2.5,1.23,2.5a3.988,3.988,0,0,0,.884-.115L23.7-44.267l-.384,1.422-.653,2.536a19.076,19.076,0,0,0-.384,3.113c0,2.959,1.383,4.419,4.189,4.419C29.849-32.778,31.578-33.469,31.578-35.506Zm16.37,7.993q.519-2.479,1.729-11.067c.807-5.764,1.191-9.107,1.191-9.991,0-1.806-1.268-2.229-3.574-2.229-1.345,0-2,.538-2.19,2.267a3.81,3.81,0,0,0-3.92-2.651,7.4,7.4,0,0,0-6.033,3.343q-2.536,3.286-2.536,8.877c0,4.381,1.537,6.571,4.573,6.571A6.44,6.44,0,0,0,42.76-35.2a60.585,60.585,0,0,0-1.537,8.223c-.192,1.729.961,2.344,2.651,2.344C46.334-24.631,47.448-25.246,47.948-27.513Zm-8.454-11.72a11.6,11.6,0,0,1,.961-5.072c.653-1.383,1.383-2.075,2.267-2.075a1.317,1.317,0,0,1,1.153.845c-.192,1-.384,2.19-.576,3.535-.576,2.575-1.883,4.534-2.92,4.534C39.8-37.466,39.494-38.042,39.494-39.233Zm26.784,6.494q4.554,0,4.727-2.306a4.031,4.031,0,0,0-.5-2.651.842.842,0,0,0-.769-.423,2.993,2.993,0,0,0-1.191.231c.423-1.537.845-3.535,1.268-6.033a37.278,37.278,0,0,0,.692-4.65c0-1.806-1.114-2.229-3.228-2.229-2.459,0-3.189.461-3.5,2.651C62.819-41.04,61.935-37.62,59.9-37.62q-.98,0-.576-1.845l1.383-6.379Q61.8-50.8,57.132-50.8a12.336,12.336,0,0,0-3.612.423c-.692.231-1.114.884-1.307,1.921-.307,1.883.192,2.844,1.114,2.844.115,0,.384-.038.73-.077A40.006,40.006,0,0,0,52.252-36.7c0,2.767,1.576,4.3,4.073,4.3a6.384,6.384,0,0,0,5.956-3.3C62.627-33.738,63.934-32.739,66.278-32.739Zm15.755-2.767c0-1.729-.461-2.575-1.345-2.575a3.328,3.328,0,0,0-1.23.231,30.24,30.24,0,0,0,1.729-8.377c.038-3.074-1.076-4.573-4.265-4.573a7.759,7.759,0,0,0-3.382.576,2.583,2.583,0,0,0-1.076,2.152c-.192,1.652.346,2.5,1.23,2.5a3.988,3.988,0,0,0,.884-.115l-.423,1.422-.384,1.422-.653,2.536a19.076,19.076,0,0,0-.384,3.113c0,2.959,1.383,4.419,4.189,4.419C80.3-32.778,82.033-33.469,82.033-35.506ZM97.25-32.778c3.266,0,4.88-.845,4.88-2.536q0-2.767-1.268-2.767a4,4,0,0,0-1.114.192c1.729-7.993,2.575-13.6,2.575-16.793,0-3.228-1.114-4.573-4.5-4.573-3.42,0-4.5.576-4.381,3,.115,1.652.576,2.19,2.229,2.037-.231,1.729-.461,3.266-.73,4.65A3.763,3.763,0,0,0,91.6-51.184c-2.382,0-4.419,1.191-6.072,3.535a14.437,14.437,0,0,0-2.5,8.531c0,4.573,1.5,6.725,4.765,6.725a6.1,6.1,0,0,0,5.841-3.958C93.715-33.969,94.906-32.778,97.25-32.778Zm-7.378-6.763a12.213,12.213,0,0,1,.884-4.534c.615-1.5,1.46-2.229,2.5-2.229q.634,0,1.038.807l-.576,3.535c-.461,2.421-1.576,4.5-2.92,4.5Q89.872-37.466,89.872-39.541Zm23.441,4.035c0-1.729-.461-2.575-1.345-2.575a3.328,3.328,0,0,0-1.23.231,30.239,30.239,0,0,0,1.729-8.377c.038-3.074-1.076-4.573-4.265-4.573a7.759,7.759,0,0,0-3.382.576,2.583,2.583,0,0,0-1.076,2.152c-.192,1.652.346,2.5,1.23,2.5a3.988,3.988,0,0,0,.884-.115l-.423,1.422-.384,1.422-.653,2.536a19.075,19.075,0,0,0-.384,3.113c0,2.959,1.383,4.419,4.189,4.419C111.583-32.778,113.312-33.469,113.312-35.506Zm10.836,1.96a1.781,1.781,0,0,0,1.076-1.768c0-1.806-.615-3.113-1.652-3.113a7.752,7.752,0,0,0-2,.346l1.307-7.878h1.345c1.383,0,2.037-1.5,2.037-3.151,0-1.268-.384-1.691-1.614-1.691h-.922a9.039,9.039,0,0,0,.73-3.228c0-1.383-.653-1.921-2.075-1.921A5.1,5.1,0,0,0,119-54.873c-.845.692-1.307,2.037-1.383,4.073h-.307c-1.537,0-2.382,1.076-2.5,3.266a1.323,1.323,0,0,0,1.46,1.576,41.983,41.983,0,0,0-1.345,8.569c0,3.074,1.691,4.611,5.034,4.611A9.7,9.7,0,0,0,124.149-33.546Zm17.484,1.921a53.759,53.759,0,0,0,1.883-8.147,51.877,51.877,0,0,0,1.076-8.8c0-1.806-1.114-2.229-3.3-2.229a4.146,4.146,0,0,0-2.382.5,3.516,3.516,0,0,0-.922,2.152c-.346,2.344-.615,4.035-.807,5.034-.73,3.5-1.691,5.226-2.882,5.226-.73,0-.922-.615-.653-1.845l1.345-6.11q1.1-4.957-3.689-4.957a11.256,11.256,0,0,0-3.228.384c-.807.269-1.268,1-1.46,2.19-.231,1.729.154,2.613,1.191,2.613a3.119,3.119,0,0,0,.653-.038,29.542,29.542,0,0,0-1.768,8.569c0,3.074,1.537,4.534,4.112,4.534a6.033,6.033,0,0,0,5.341-2.882,18.3,18.3,0,0,1-1.844,5.149,2.7,2.7,0,0,1-2.306,1.576,3.834,3.834,0,0,1-2.728-1.768q-1.9-2.363-3.574,0a5,5,0,0,0-.922,3.612c.192,1.576,2.844,2.613,6.264,2.613C136.253-24.247,139.635-26.245,141.633-31.625Zm22.557-1.307c1.729-.307,2.306-1.537,2.421-3.651.038-1.345-.653-2.075-1.614-2.037-.653.038-1.691.077-3.113.192l-3.074.154.576-4.227a18.16,18.16,0,0,0,4.3.077c1.23-.154,1.845-1.23,1.845-3.189,0-1.307-.615-1.96-1.806-1.96-1.576,0-2.805,0-3.651.038l.5-3.881h4.611c2.344,0,3.228-1.114,3.343-3.727.038-1.422-.73-1.845-2.152-1.96-1.191-.077-3-.115-5.5-.115s-4.5.038-6.072.154c-2.19.346-2.344,1.614-2.382,3.3-.038,1.345.5,2.113,1.652,2.306l-1.768,13.987q-.519,4.15,2.536,4.5A36.185,36.185,0,0,0,164.19-32.931Zm18.676-.769a1.9,1.9,0,0,0,.845-1.691,4.191,4.191,0,0,0-.461-1.806c-.307-.653-.692-.961-1.114-.961a3.769,3.769,0,0,0-1.191.269L179.6-41.462c3.113-2.805,4.842-5.265,5.111-7.416.192-1.383-.845-1.921-2.536-1.921-1.96,0-2.613.423-3.036,2.306a23.651,23.651,0,0,1-1.038,3c-1.5-3.843-2.882-5.3-5.341-5.3a8.176,8.176,0,0,0-2.844.384,2.47,2.47,0,0,0-1.383,2.113c-.192,1.422.154,2.69,1.114,2.69a6.054,6.054,0,0,0,1.076-.115c.538,1.307,1.038,2.575,1.46,3.766-2.459,1.806-4.534,4.419-5.111,6.917-.307,1.5.423,2.267,2.152,2.267a3.622,3.622,0,0,0,2.421-.5,2.44,2.44,0,0,0,.845-1.23c.038-.192.192-.653.461-1.46s.461-1.422.653-1.883c1.383,3.8,2.844,5.072,5.726,5.072A6.28,6.28,0,0,0,182.866-33.7Zm9.107.269a3.879,3.879,0,0,0,2.844,1,7.667,7.667,0,0,0,6.3-3.151c1.652-2.113,2.5-5.188,2.5-9.223,0-4.3-1.768-6.379-4.5-6.379a5.413,5.413,0,0,0-5.188,3.535c-.192-2.113-1.5-3.151-3.843-3.151-3.074,0-4.3.423-4.611,2.382-.307,1.806.154,2.805,1.076,2.805.115,0,.423-.038.884-.077q-2.824,14.814-3,17.984c-.115,2.306.653,3.074,2.767,3.074,2.575,0,3.535-1,3.843-3.151Zm1.345-8.454q.749-4.381,2.306-4.381c.73,0,1.114.807,1.114,2.459a11.55,11.55,0,0,1-.845,4.573c-.576,1.345-1.268,2-2.075,2a1.059,1.059,0,0,1-1.114-.73Zm20.751,6.609a4.928,4.928,0,0,0-.423-2.19.936.936,0,0,0-.845-.576,6.534,6.534,0,0,0-1.191.154l1.23-7.455c.73-4.419,1.191-7.647,1.345-9.684.192-3.189-1.076-4.227-3.8-4.227a12.8,12.8,0,0,0-3.036.269c-1.038.269-1.576,1.268-1.576,3,0,1.114.461,1.691,1.383,1.691h.5Q205-40.521,205-37.235c0,2.959,1.23,4.458,4.265,4.458C212.454-32.778,214.068-33.623,214.068-35.275ZM225.9-51.184a10.192,10.192,0,0,0-7.839,3.189,11.233,11.233,0,0,0-2.92,7.954c0,4.727,2.382,7.647,7.263,7.647a10.431,10.431,0,0,0,7.724-2.92c1.96-1.96,2.92-4.765,2.92-8.492C233.051-48.264,230.477-51.184,225.9-51.184Zm-3.92,11.528a11.875,11.875,0,0,1,.845-4.419c.576-1.5,1.268-2.229,2.152-2.229.807,0,1.23.769,1.23,2.267a11.938,11.938,0,0,1-.845,4.65c-.576,1.383-1.307,2.075-2.267,2.075C222.369-37.312,221.984-38.081,221.984-39.656ZM241.2-35.122c.307-2.037.615-3.689.922-5.034.692-3.113,1.5-4.688,2.382-4.688a1.714,1.714,0,0,1,1,.423,1.354,1.354,0,0,0,.884.346c.653,0,1.268-.538,1.806-1.576A7.6,7.6,0,0,0,249-49.186c0-1.268-.576-1.883-1.691-1.883-2,0-3.535,1.268-4.65,3.843-.192-2.382-1.422-3.574-3.612-3.574a10.889,10.889,0,0,0-3.343.423q-1.21.4-1.383,2.421c-.115,1.576.269,2.344,1.153,2.344a5.426,5.426,0,0,0,.845-.038,86.007,86.007,0,0,0-1.729,10.76c0,1.652.73,2.152,2.459,2.152C239.661-32.739,240.891-33.162,241.2-35.122Zm21.9-.346a1.71,1.71,0,0,0,.384-1.114,2.644,2.644,0,0,0-.845-1.883,2.368,2.368,0,0,0-1.614-.922,2.225,2.225,0,0,0-1.422.692,4.6,4.6,0,0,1-3.113,1.422c-1.114,0-1.652-.884-1.652-2.613v-.307a8.889,8.889,0,0,0,6.3-1,5.472,5.472,0,0,0,2.728-5.034c0-3.074-2.113-4.957-5.457-4.957a9.663,9.663,0,0,0-7.455,3.228,11.549,11.549,0,0,0-2.92,8.108c0,5.034,2.69,7.455,7.147,7.455C258.721-32.393,261.68-33.662,263.1-35.468Zm-5.5-11.144c.615,0,.845.5.653,1.537-.307,1.422-1.345,2.152-3.113,2.229C255.608-45.036,256.492-46.611,257.606-46.611Zm14.449,11.49c.307-2.037.615-3.689.922-5.034.692-3.113,1.5-4.688,2.383-4.688a1.714,1.714,0,0,1,1,.423,1.354,1.354,0,0,0,.884.346c.653,0,1.268-.538,1.806-1.576a7.6,7.6,0,0,0,.807-3.535c0-1.268-.576-1.883-1.691-1.883-2,0-3.535,1.268-4.65,3.843-.192-2.382-1.422-3.574-3.612-3.574a10.89,10.89,0,0,0-3.343.423q-1.21.4-1.383,2.421c-.115,1.576.269,2.344,1.153,2.344a5.426,5.426,0,0,0,.845-.038,86.009,86.009,0,0,0-1.729,10.76c0,1.652.73,2.152,2.459,2.152C270.518-32.739,271.748-33.162,272.055-35.122Z" transform="translate(-6.93 59.946)" fill="#272727"/><path d="M232.685-53.924c2.882,0,4.5-1.806,4.5-4.073,0-1.883-1.038-2.805-3.151-2.805-2.575,0-4.5,1.691-4.5,4C229.534-55,230.687-53.924,232.685-53.924Z" transform="translate(-130.515 60.802)" fill="#3682dd"/><path d="M232.685-53.924c2.882,0,4.5-1.806,4.5-4.073,0-1.883-1.038-2.805-3.151-2.805-2.575,0-4.5,1.691-4.5,4C229.534-55,230.687-53.924,232.685-53.924Z" transform="translate(-162.24 60.802)" fill="#3682dd"/><path d="M232.685-53.924c2.882,0,4.5-1.806,4.5-4.073,0-1.883-1.038-2.805-3.151-2.805-2.575,0-4.5,1.691-4.5,4C229.534-55,230.687-53.924,232.685-53.924Z" transform="translate(-212.285 60.802)" fill="#3682dd"/></g><g transform="translate(949.046 319.502)"><circle cx="49.333" cy="49.333" r="49.333" transform="translate(-39.046 -24.502)" fill="#fff"/><path d="M10.288,75.165a50.334,50.334,0,1,1,0-100.667,50.334,50.334,0,0,1,0,100.667Zm0-98.667a48.334,48.334,0,1,0,0,96.667,48.334,48.334,0,0,0,0-96.667Z"/></g><g transform="translate(909.385 295.275)"><g transform="translate(0 0)"><g transform="translate(2.262 3.365)" clip-path="url(#a)"><g transform="matrix(1, -0.017, 0.017, 1, 4.083, 1.862)"><g transform="translate(0 0)"><g transform="translate(0 30.492)"><path d="M84.994,14.553c-.025-.211-.065-.411-.105-.611l0,0C83.18,6.744,65.1.647,42.89.048,21.422-.531,3.543,4.225.474,10.943l0,.007a5.02,5.02,0,0,0-.28.771c-.025.1-.055.2-.076.3-.022.084-.04.167-.055.254A4.822,4.822,0,0,0,0,12.885C-.206,20.6,18.656,27.376,42.138,28.009S84.819,22.9,85.027,15.175C85.027,14.968,85.012,14.761,84.994,14.553Z" transform="translate(0.222 0.22)" fill="#b2a35a"/><path d="M42.352,28.454C18.787,27.814-.209,20.929,0,13.094a3.526,3.526,0,0,1,.069-.633c.011-.095.029-.185.047-.269a2.255,2.255,0,0,1,.076-.28,6.053,6.053,0,0,1,.294-.833C3.626,4.216,21.946-.521,43.116.046c22.3.6,40.449,6.642,42.205,14.062a6.079,6.079,0,0,1,.109.633,5.073,5.073,0,0,1,.036.665C85.259,23.237,65.911,29.087,42.352,28.454ZM43.1.486C22.1-.078,3.957,4.547.889,11.254A6.491,6.491,0,0,0,.62,12c-.029.116-.051.2-.069.284a2.256,2.256,0,0,0-.047.247,4.254,4.254,0,0,0-.065.578c-.2,7.587,18.6,14.273,41.922,14.906s42.46-5.032,42.667-12.619a4.05,4.05,0,0,0-.029-.6,5.523,5.523,0,0,0-.105-.578C83.213,7.1,64.853,1.075,43.1.486Z" transform="translate(0 0)" fill="#161615"/></g><path d="M84.994,14.553c-.025-.211-.065-.411-.105-.611l0,0C83.18,6.744,65.1.647,42.89.048,21.422-.531,3.543,4.225.474,10.943l0,.007a5.02,5.02,0,0,0-.28.771c-.025.1-.055.2-.076.3-.022.084-.04.167-.055.254A4.822,4.822,0,0,0,0,12.885C-.206,20.6,18.656,27.376,42.138,28.009S84.819,22.9,85.027,15.175C85.027,14.968,85.012,14.761,84.994,14.553Z" transform="translate(0.222 30.712)" fill="#89553d" style="mix-blend-mode:multiply;isolation:isolate"/><g transform="translate(5.691 12.77)"><g transform="translate(10.485 60.377)"><g transform="translate(0.117 0)"><path d="M19.066,1.818A5.424,5.424,0,0,0,15.7.171,21.293,21.293,0,0,0,11.937.015C6.5.135,1.812.3,1.812.3S-1.631,6.817.975,12.528c1.545-.149,3.09-.345,4.624-.564a36.765,36.765,0,0,0,7.755-1.614A10.985,10.985,0,0,0,18.1,6.98c.829-1.072,1.723-2.559,1.483-3.966A2.723,2.723,0,0,0,19.066,1.818Z" transform="translate(0.21 0.218)" fill="#3682dd"/><path d="M1.185,12.965a.207.207,0,0,1-.2-.127C-1.636,7.1,1.792.484,1.828.415A.216.216,0,0,1,2.014.306C2.061.3,6.762.135,12.143.018,12.706,0,13.36-.011,14,.011a13.717,13.717,0,0,1,1.945.167,5.528,5.528,0,0,1,3.5,1.727,2.833,2.833,0,0,1,.564,1.283c.2,1.2-.309,2.592-1.531,4.145a11.175,11.175,0,0,1-4.832,3.447,34.415,34.415,0,0,1-7.195,1.541l-.611.084c-1.581.222-3.141.414-4.632.56ZM2.156.735C1.73,1.611-.909,7.406,1.319,12.51c1.436-.145,2.934-.331,4.461-.542l.611-.091a33.284,33.284,0,0,0,7.1-1.512,10.777,10.777,0,0,0,4.646-3.3c1.138-1.454,1.621-2.734,1.436-3.8A2.42,2.42,0,0,0,19.1,2.174,5.286,5.286,0,0,0,15.869.611a14.022,14.022,0,0,0-1.883-.16c-.625-.022-1.276,0-1.836,0C7.275.567,2.955.709,2.156.735Z" transform="translate(0 0)" fill="#161615"/></g><path d="M11.9,2.985a2.724,2.724,0,0,0-.516-1.2A5.424,5.424,0,0,0,8.009.142,15.511,15.511,0,0,0,6.417,0,23.219,23.219,0,0,0,2.81,5.392,49.215,49.215,0,0,0,0,11.637a27.55,27.55,0,0,0,5.668-1.316,10.985,10.985,0,0,0,4.744-3.37C11.241,5.879,12.136,4.392,11.9,2.985Z" transform="translate(8.014 0.247)" fill="#b2a35a" style="mix-blend-mode:multiply;isolation:isolate"/><g transform="translate(0 0.389)"><path d="M4.1,0c-1.422.044-2.29.076-2.29.076S-1.631,6.588.975,12.3c.934-.095,1.872-.2,2.807-.324C5.509,8.424,6.138,3.119,4.1,0Z" transform="translate(0.214 0.218)" fill="#3682dd"/><path d="M1.182,12.739a.219.219,0,0,1-.193-.127C-1.639,6.868,1.8.255,1.829.193a.229.229,0,0,1,.185-.12S2.887.044,4.313,0a.227.227,0,0,1,.193.1c2.109,3.239,1.44,8.591-.313,12.2a.214.214,0,0,1-.171.12c-1.076.135-1.97.24-2.81.324ZM2.16.506c-.425.88-3.072,6.671-.836,11.779.767-.076,1.571-.171,2.527-.291C5.45,8.62,6.1,3.5,4.2.44,3.167.473,2.444.5,2.16.506Z" transform="translate(0 0)" fill="#161615"/></g><g transform="translate(0.117 0.298)"><path d="M1.106,12.212A11.173,11.173,0,0,0,2.182,9.671a23.8,23.8,0,0,0,.531-3.6C2.851,4.094,2.979,1.72,1.859,0a.162.162,0,0,1-.047,0S-1.631,6.515.975,12.226C1.023,12.219,1.059,12.219,1.106,12.212Z" transform="translate(0.21 0.222)" fill="#3682dd"/><path d="M1.185,12.666a.207.207,0,0,1-.2-.127C-1.636,6.8,1.792.185,1.828.116A.225.225,0,0,1,2.028,0h0A.342.342,0,0,1,2.25.1c1.2,1.84,1.022,4.363.894,6.206a24.2,24.2,0,0,1-.538,3.625,9.465,9.465,0,0,1-.949,2.323l-.145.276a.228.228,0,0,1-.167.12l-.138.015ZM2.065.64c-.618,1.342-2.8,6.66-.807,11.423l.007-.011a8.791,8.791,0,0,0,.909-2.221A24.058,24.058,0,0,0,2.7,6.279C2.825,4.6,2.981,2.334,2.065.64Z" transform="translate(0 0)" fill="#161615"/></g></g><g transform="translate(39.574 103.784)"><path d="M7.093,45.072a.429.429,0,0,1-.422-.407C5.21,25.713.062.78.008.533A.448.448,0,0,1,.346.01.448.448,0,0,1,.873.348C.92.6,6.079,25.586,7.544,44.6a.442.442,0,0,1-.407.473Z" transform="translate(0 0)" fill="#161615"/></g><path d="M.425,46.112A.44.44,0,0,1,0,45.665C.273,31.2,5.01.679,5.057.373A.44.44,0,0,1,5.562.006a.445.445,0,0,1,.367.5C5.879.813,1.156,31.283.876,45.68a.435.435,0,0,1-.447.433Z" transform="translate(19.684 100.61)" fill="#161615"/><g transform="translate(15.112 93.603)"><path d="M4.923,17.4a44.354,44.354,0,0,0,11.5,1.454l1.527-6.14,1.509,6.09a50.353,50.353,0,0,0,9.522-1.251,34.047,34.047,0,0,0,7.024-2.1c-.84-6.766-1.5-12.728-1.516-14.575L2.025,0s-.313,2.639-.683,6.588C1,10.256.538,12.437,0,16.018,1.658,16.615,3.49,17,4.923,17.4Z" transform="translate(0.224 0.222)" fill="#b2a35a"/><path d="M15.482,19.268a42.94,42.94,0,0,1-10.4-1.436c-.44-.12-.916-.244-1.414-.371-1.109-.28-2.367-.6-3.523-1.014A.221.221,0,0,1,0,16.207c.156-1.025.3-1.934.444-2.8.353-2.149.654-4.006.9-6.62.367-3.9.68-6.566.68-6.595A.227.227,0,0,1,2.253,0L34.722.88a.217.217,0,0,1,.211.214c.011,1.614.52,6.508,1.512,14.553a.222.222,0,0,1-.12.229,31.55,31.55,0,0,1-6.362,1.956l-.709.16a50.41,50.41,0,0,1-9.565,1.251.2.2,0,0,1-.218-.164L18.18,13.852l-1.32,5.275a.215.215,0,0,1-.218.164C16.257,19.287,15.868,19.276,15.482,19.268ZM.467,16.091c1.087.385,2.269.684,3.312.945.5.131.985.251,1.429.374a42.146,42.146,0,0,0,10.285,1.418c.327.011.651.022.982.022l1.491-5.966a.218.218,0,0,1,.214-.167.249.249,0,0,1,.215.167L19.852,18.8a49.945,49.945,0,0,0,9.3-1.229l.709-.167a31.585,31.585,0,0,0,6.126-1.854C35.049,7.9,34.544,3.116,34.5,1.312L2.442.447c-.08.683-.349,3.09-.658,6.38-.247,2.632-.549,4.5-.905,6.653C.747,14.291.609,15.142.467,16.091Z" transform="translate(0 0)" fill="#161615"/></g><path d="M9.7,4.7c5.635,1.352,11.834,2.81,17.64,1.96a34.368,34.368,0,0,1,1.509,6.613c.142,1.247.3,2.5.458,3.745a24.054,24.054,0,0,0,4.73-1.563C33.2,8.685,32.538,2.723,32.524.876L.058,0S.036.16,0,.454A28.052,28.052,0,0,0,9.7,4.7Z" transform="translate(17.302 93.825)" fill="#b2a35a" style="mix-blend-mode:multiply;isolation:isolate"/><path d="M3.523,1.294A20.944,20.944,0,0,1,0,0,35.28,35.28,0,0,0,5.341,2.814,18.809,18.809,0,0,1,4.5,8.173q1.816.125,3.668.149L9.7,2.181A59.373,59.373,0,0,1,3.523,1.294Z" transform="translate(23.588 104.357)" fill="#b2a35a" style="mix-blend-mode:multiply;isolation:isolate"/><g transform="translate(45.186 94.359)"><path d="M1.27,5.3A7.843,7.843,0,0,0,5.186,8.442C4.735,4.479,4.426,1.363,4.418.12L0,0A9.948,9.948,0,0,0,1.27,5.3Z" transform="translate(0.222 0.222)" fill="#b2a35a"/><path d="M5.4,8.885a.1.1,0,0,1-.058-.011A8.089,8.089,0,0,1,1.3,5.635,10.181,10.181,0,0,1,0,.222.22.22,0,0,1,.074.062.211.211,0,0,1,.234,0L4.648.124a.217.217,0,0,1,.211.214c.007,1.138.269,3.926.767,8.3a.2.2,0,0,1-.08.193A.181.181,0,0,1,5.4,8.885ZM.445.451A9.627,9.627,0,0,0,1.677,5.413,7.887,7.887,0,0,0,5.149,8.34C4.7,4.4,4.459,1.785,4.422.556Z" transform="translate(0 0)" fill="#161615"/></g><g transform="translate(16.26 93.603)"><path d="M2.872,7.038C5,5.635,5.879,2.756,5.73.127L.876,0S.564,2.639.193,6.588C.135,7.224.069,7.806,0,8.373A12.144,12.144,0,0,0,2.872,7.038Z" transform="translate(0.224 0.222)" fill="#b2a35a"/><path d="M.217,8.813a.3.3,0,0,1-.135-.051.214.214,0,0,1-.08-.2C.071,8,.133,7.417.2,6.788.566,2.883.878.222.878.193A.227.227,0,0,1,1.1,0L5.964.135a.22.22,0,0,1,.211.2C6.31,2.738,5.6,5.864,3.22,7.446A12.321,12.321,0,0,1,.289,8.8ZM1.293.447c-.08.683-.349,3.09-.658,6.38-.051.505-.1.989-.153,1.447a11.915,11.915,0,0,0,2.5-1.2C4.772,5.886,5.844,3.348,5.746.571Z" transform="translate(0 0)" fill="#161615"/></g><g transform="translate(38.974 60.426)"><g transform="translate(0 0)"><path d="M.591,1.723a5.375,5.375,0,0,1,3.4-1.6A21.662,21.662,0,0,1,7.749.039C13.184.254,17.863.5,17.863.5s3.327,6.569.622,12.241c-1.538-.182-3.083-.4-4.614-.647A36.8,36.8,0,0,1,6.149,10.35,11.031,11.031,0,0,1,1.463,6.9C.649,5.809-.217,4.307.049,2.9A2.665,2.665,0,0,1,.591,1.723Z" transform="translate(0.22 0.218)" fill="#3682dd"/><path d="M18.7,13.181h-.018c-1.454-.171-2.97-.382-4.621-.647l-.64-.105a33.126,33.126,0,0,1-7.133-1.658A11.134,11.134,0,0,1,1.512,7.248C.32,5.667-.168,4.263.051,3.078A2.861,2.861,0,0,1,.64,1.806,5.539,5.539,0,0,1,4.173.133a18.008,18.008,0,0,1,3.01-.12c.265,0,.531.015.789.025C13.35.25,18.047.5,18.1.5a.224.224,0,0,1,.185.12c.033.069,3.341,6.733.618,12.434A.22.22,0,0,1,18.7,13.181ZM7.173.453A17.869,17.869,0,0,0,4.231.562,5.3,5.3,0,0,0,.985,2.075a2.436,2.436,0,0,0-.5,1.08C.287,4.22.752,5.507,1.861,6.979A10.668,10.668,0,0,0,6.449,10.36a32.941,32.941,0,0,0,7.035,1.632l.64.105c1.589.258,3.047.462,4.45.629C20.9,7.648,18.356,1.817,17.941.933c-.8-.04-5.108-.262-9.983-.458Z" fill="#161615"/></g><path d="M8.163,6.246A40.13,40.13,0,0,0,3.579,0,4.992,4.992,0,0,0,.591,1.52,2.665,2.665,0,0,0,.049,2.7c-.265,1.407.6,2.908,1.414,4a11.031,11.031,0,0,0,4.686,3.45,23.908,23.908,0,0,0,4.468,1.2C9.868,9.616,9.069,7.9,8.163,6.246Z" transform="translate(0.22 0.421)" fill="#b2a35a" style="mix-blend-mode:multiply;isolation:isolate"/><g transform="translate(13.866 0.348)"><path d="M2.02,12.048c.862.12,1.731.24,2.6.342C7.32,6.719,3.994.149,3.994.149S2.834.087.995,0C-.758,3.625-.056,8.424,2.02,12.048Z" transform="translate(0.223 0.226)" fill="#3682dd"/><path d="M4.831,12.834H4.813c-.869-.1-1.734-.218-2.6-.342a.26.26,0,0,1-.164-.109C-.237,8.38-.651,3.574,1.014.124A.217.217,0,0,1,1.221,0l3.01.153a.224.224,0,0,1,.185.12c.033.069,3.341,6.733.618,12.434A.22.22,0,0,1,4.831,12.834ZM2.377,12.07c.774.105,1.552.218,2.33.309C7.031,7.3,4.489,1.469,4.075.586,3.733.567,2.755.52,1.352.451-.168,3.734.229,8.264,2.377,12.07Z" transform="translate(0 0)" fill="#161615"/></g><g transform="translate(16.797 0.498)"><path d="M1.561,12.226A10.331,10.331,0,0,1,.532,9.66a24.048,24.048,0,0,1-.476-3.6C-.05,4.079-.126,1.705,1.019,0l.047.007s3.327,6.569.622,12.241Z" transform="translate(0.219 0.217)" fill="#3682dd"/><path d="M1.9,12.684H1.871l-.134-.025a.2.2,0,0,1-.156-.12l-.138-.28A9.688,9.688,0,0,1,.529,9.921,24.211,24.211,0,0,1,.06,6.293c-.1-1.847-.233-4.377,1-6.2A.2.2,0,0,1,1.26,0a.234.234,0,0,1,.225.12c.033.069,3.341,6.733.618,12.434A.22.22,0,0,1,1.9,12.684ZM1.238.639C.289,2.319.409,4.584.493,6.267A24.915,24.915,0,0,0,.966,9.834a9.12,9.12,0,0,0,.869,2.232l.007.015C3.921,7.34,1.835,1.988,1.238.639Z" transform="translate(0 0)" fill="#161615"/></g></g><g transform="translate(16.004 55.634)"><path d="M8.395,41a53.3,53.3,0,0,0,11.7.782c4.566-.32,10.049-.469,14.713-2.1-1.262-22.57-8.918-36.632-13.4-38.9-4.883-2.479-9.067,1.8-9.067,1.8C3.239,13.89.676,28.854,0,38.023,1.934,40.1,5.882,40.615,8.395,41Z" transform="translate(0.222 0.222)" fill="#3682dd"/><path d="M16.931,42.288h0a69.78,69.78,0,0,1-8.351-.851l-.3-.051c-2.512-.374-6.311-.942-8.216-2.992A.229.229,0,0,1,0,38.227C.753,28.095,3.509,13.709,12.39,2.657A9.252,9.252,0,0,1,18.673,0a7.056,7.056,0,0,1,3.054.8c2.523,1.276,5.588,5.853,8.009,11.954,2.123,5.33,4.8,14.364,5.512,27.136a.21.21,0,0,1-.153.211c-4.075,1.432-8.773,1.738-12.917,2-.629.04-1.251.087-1.847.124A32.448,32.448,0,0,1,16.931,42.288ZM.448,38.162c1.832,1.887,5.475,2.432,7.9,2.8L8.653,41a69.486,69.486,0,0,0,8.289.847h0c1.178.029,2.3,0,3.352-.069.607-.04,1.225-.084,1.858-.12,4.061-.262,8.66-.556,12.644-1.92C33.469,16.584,25.511,3.209,21.53,1.188A6.639,6.639,0,0,0,18.662.443a9,9,0,0,0-5.944,2.5C3.952,13.858,1.2,28.1.448,38.162Z" transform="translate(0 0)" fill="#161615"/></g><path d="M4.181,13.888A169.709,169.709,0,0,1,7.773,40.569a31.93,31.93,0,0,0,6.253-1.392C12.764,16.607,5.108,2.545.629.273A5.484,5.484,0,0,0,0,0,82.884,82.884,0,0,1,4.181,13.888Z" transform="translate(37.003 56.357)" fill="#b2a35a" style="mix-blend-mode:multiply;isolation:isolate"/><g transform="translate(25.043 57.124)"><path d="M3.124,0,0,4.743,7.378,6.575,8.94,2.762,10.8,6.667l7.168-1.91L15.369.632Z" transform="translate(0.213 0.218)" fill="#3682dd"/><path d="M11.011,7.1a.219.219,0,0,1-.193-.127L9.171,3.527,7.794,6.879a.222.222,0,0,1-.258.127L.166,5.177a.212.212,0,0,1-.153-.135.24.24,0,0,1,.018-.2L3.158.1A.188.188,0,0,1,3.351,0L15.6.629a.228.228,0,0,1,.174.105l2.6,4.119a.193.193,0,0,1,.022.2.244.244,0,0,1-.149.138L11.073,7.1ZM.573,4.824,7.455,6.533,8.95,2.894a.223.223,0,0,1,.2-.135.239.239,0,0,1,.207.127l1.785,3.741,6.7-1.8-2.381-3.77-12-.614Z" transform="translate(0 0)" fill="#161615"/></g><g transform="translate(0 0)"><g transform="translate(2.307 31.344)"><path d="M7.612,11.15C-3.218,10.285-.71-.043,4.209,0A6.9,6.9,0,0,1,9.9,3.247s1.949,3.876.32,6.591a2.4,2.4,0,0,1-1.592,1.185Z" transform="translate(0.221 0.215)" fill="#f4cea6"/><path d="M7.822,11.587l-.007-.007C1.86,11.107-.125,7.853.006,4.963.13,2.2,2.115-.025,4.434,0l.131,0a7.052,7.052,0,0,1,5.741,3.345c.087.175,1.989,4.035.316,6.817a2.568,2.568,0,0,1-1.749,1.287l-1.014.124ZM4.554.44l-.124,0C2.344.418.559,2.454.45,4.981.322,7.66,2.2,10.681,7.822,11.14l.993-.12A2.181,2.181,0,0,0,10.24,9.947c1.552-2.585-.3-6.351-.32-6.391A6.741,6.741,0,0,0,4.554.44Z" transform="translate(0 0)" fill="#161615"/></g><g transform="translate(57.755 39.481)"><path d="M2.294,10.025C12.935,12.167,13.364,1.547,8.616.242A6.905,6.905,0,0,0,2.261,1.8S-.677,4.986.145,8.051a2.407,2.407,0,0,0,1.2,1.578Z" transform="translate(0.226 0.219)" fill="#f4cea6"/><path d="M4.872,10.746h0a13.752,13.752,0,0,1-2.4-.287l-.985-.411A2.616,2.616,0,0,1,.153,8.313C-.687,5.187,2.2,2,2.323,1.868A7.248,7.248,0,0,1,7.26,0,6.884,6.884,0,0,1,8.9.246c2.083.574,3.37,2.941,2.992,5.5C11.521,8.244,9.478,10.873,4.872,10.746ZM7.253.442a6.886,6.886,0,0,0-4.61,1.731C2.618,2.195-.2,5.307.589,8.212A2.171,2.171,0,0,0,1.662,9.637l.945.407a13.616,13.616,0,0,0,2.28.262c4.319.116,6.228-2.32,6.573-4.628.345-2.338-.8-4.49-2.676-5.01A6.335,6.335,0,0,0,7.253.442Z" transform="translate(0 0)" fill="#161615"/></g><g transform="translate(8.109 2.118)"><path d="M57.7,32.762A28.993,28.993,0,0,1,.279,24.724,28.993,28.993,0,0,1,57.7,32.762Z" transform="translate(0.225 0.22)" fill="#f4cea6"/><path d="M28.524,57.914a30.174,30.174,0,0,1-3.327-.276A29.138,29.138,0,0,1,5.921,46.379,28.637,28.637,0,0,1,.282,24.914,29.018,29.018,0,0,1,29.9.011a30.1,30.1,0,0,1,3.327.276,28.943,28.943,0,0,1-4.7,57.627ZM29.891.451A28.575,28.575,0,0,0,.719,24.976,28.193,28.193,0,0,0,6.274,46.11a28.722,28.722,0,0,0,18.985,11.1,30.989,30.989,0,0,0,3.279.269A28.5,28.5,0,0,0,33.163.723,30.858,30.858,0,0,0,29.891.451Z" transform="translate(0 0)" fill="#161615"/></g><path d="M32.97.286A28.734,28.734,0,1,0,25,57.2,28.734,28.734,0,1,0,32.97.286ZM44.986,49.569C37.119,56.03,26.2,56.4,16.959,52.7,13.335,51.256,9.2,48.413,8.4,44.334c-.825-4.257,2.545-6.351,5.77-8.122a87.745,87.745,0,0,1,10.852-5.05c4.337-1.669,9.1-3.359,13.808-2.49,5.315.978,11,5.861,11.154,11.572C50.083,43.85,47.658,47.366,44.986,49.569Z" transform="translate(8.334 2.337)" fill="#f4cea6" style="mix-blend-mode:multiply;isolation:isolate"/><g transform="translate(4.597 35.014)"><g transform="translate(58.586 8.421)"><path d="M.149,4.233A.193.193,0,0,1,0,4.054C0,3.949-.011,1.47,1.869.386A1.971,1.971,0,0,1,3.581.092a1.561,1.561,0,0,1,.822.9.2.2,0,0,1-.134.236A.189.189,0,0,1,4.039,1.1a1.167,1.167,0,0,0-.6-.665A1.674,1.674,0,0,0,2.05.706C.367,1.677.367,4.022.374,4.047a.191.191,0,0,1-.189.193Z" transform="translate(0 0)" fill="#161615"/><path d="M.96,1.987a1.229,1.229,0,0,1-.647-.349A1.579,1.579,0,0,1,.073.148.181.181,0,0,1,.295.006.182.182,0,0,1,.436.231a1.263,1.263,0,0,0,.145,1.16,1.2,1.2,0,0,0,.927.262.186.186,0,0,1,.055.367A1.759,1.759,0,0,1,.96,1.987Z" transform="translate(0.709 1.286)" fill="#161615"/></g><g transform="translate(0 0)"><path d="M3.227,4.928A.189.189,0,0,0,3.42,4.8c.029-.105.716-2.494-.793-4.046A2,2,0,0,0,1.06.006,1.508,1.508,0,0,0,.028.653.18.18,0,0,0,.086.9.189.189,0,0,0,.341.856,1.154,1.154,0,0,1,1.1.373a1.661,1.661,0,0,1,1.262.644c1.356,1.389.7,3.65.7,3.672a.188.188,0,0,0,.124.233Z" fill="#161615"/><path d="M.7,1.728a1.221,1.221,0,0,0,.716-.16A1.6,1.6,0,0,0,2.056.2.188.188,0,0,0,1.881,0a.174.174,0,0,0-.193.171,1.317,1.317,0,0,1-.465,1.08,1.24,1.24,0,0,1-.963,0,.179.179,0,0,0-.24.087.177.177,0,0,0,.087.247A1.684,1.684,0,0,0,.7,1.728Z" transform="translate(1.331 1.866)" fill="#161615"/></g></g><path d="M73.019,23.376A87.114,87.114,0,0,0,67.4,16.09a48.922,48.922,0,0,0-6.29-6.377c-.491-.411-.989-.774-1.483-1.116a38.7,38.7,0,0,0-10.1-5.555C43.924.977,37.7-.768,31.668.348A21.643,21.643,0,0,0,26.564,2c-.127.022-.251.051-.374.076A26.612,26.612,0,0,0,14,8.056,55.671,55.671,0,0,0,4.322,19.137C2.853,21.329,1.871,23.725.562,25.99c-.418.723-.585,1.1-.56,1.356,4.428,1.84,7.82,6.239,9.565,10.638a10.717,10.717,0,0,0,2.392-.389,9.124,9.124,0,0,1,2.625-6.057c.371-.367-.436,3.948-.262,5.722.662-.084,1.327-.149,2-.214.153-.011.305-.015.462-.022.676-.044,2.552-.211,3.232-.24a15.972,15.972,0,0,1,2.563-7.66c.262-.389-.254,5.2.018,7.7,1.251-.025,2.5-.044,3.737-.084.72-.011,1.432-.018,2.145-.033.189-1.818.658-3.614.807-5.45.044-.538.324,3.6.582,5.381,2.683-.033,6.159,0,8.838.055-.007-1.96.08-3.916.2-5.871a31.353,31.353,0,0,1,1.2,5.831c2.076.069,5.192.269,7.268.407.716.055,1.429.095,2.145.131.007-1.062-.771-5.559-.851-6.8-.022-.4,3.385,4.308,3.523,6.944.891.044,3.232.127,4.119.175.044-2.4-1.087-7.795-.862-7.507a12.62,12.62,0,0,1,2.261,7.675c1.193.1,2.392.207,3.585.313a10.692,10.692,0,0,0,1.392-4.923c.047-.454,1.531,3.53,1.2,5.326a11.673,11.673,0,0,0,1.145.236,8.455,8.455,0,0,1,1.192-2.316,15.311,15.311,0,0,1,3.759-4.141,22.779,22.779,0,0,1,6.38-3.4A40.174,40.174,0,0,0,73.019,23.376Z" transform="translate(0.216 0.22)" fill="#343318"/><path d="M9.835,38.43l-.062,0a.229.229,0,0,1-.2-.138C7.617,33.343,4.091,29.413.139,27.77A.213.213,0,0,1,0,27.588c-.033-.3.116-.676.582-1.487.524-.909,1-1.854,1.465-2.767a41.022,41.022,0,0,1,2.3-4.1A56.494,56.494,0,0,1,14.074,8.105,26.867,26.867,0,0,1,26.359,2.078L26.733,2A21.879,21.879,0,0,1,31.841.351,22.366,22.366,0,0,1,36.469.009,42.89,42.89,0,0,1,49.822,3.056,38.925,38.925,0,0,1,59.977,8.643c.538.364,1.029.738,1.494,1.116a49.817,49.817,0,0,1,6.319,6.41,87.833,87.833,0,0,1,5.632,7.3c.24.356.483.713.731,1.076A30.1,30.1,0,0,1,76.784,28.9a.2.2,0,0,1,0,.175.218.218,0,0,1-.131.124,22.683,22.683,0,0,0-6.319,3.363,14.771,14.771,0,0,0-3.7,4.086l-.105.164a6.962,6.962,0,0,0-1.062,2.09.237.237,0,0,1-.251.164,11.574,11.574,0,0,1-1.16-.255.223.223,0,0,1-.164-.251,11.469,11.469,0,0,0-.84-4.584,9.726,9.726,0,0,1-1.356,4.344.227.227,0,0,1-.207.1l-.513-.047c-1.018-.087-2.036-.182-3.061-.265a.217.217,0,0,1-.2-.214,12.9,12.9,0,0,0-1.771-6.926c.044.3.1.654.16,1a43.366,43.366,0,0,1,.647,5.7.091.091,0,0,1,.011.062.236.236,0,0,1-.229.222l-.011,0c-.513-.033-1.505-.073-2.425-.109-.684-.029-1.316-.055-1.691-.073a.221.221,0,0,1-.211-.211c-.105-1.992-2.156-5.21-3.021-6.359.073.611.193,1.469.327,2.363.215,1.538.447,3.116.458,3.781a.235.235,0,0,1,.015.069.229.229,0,0,1-.229.222h0l-.015,0c-.716-.04-1.432-.08-2.145-.127-3.221-.222-5.664-.36-7.264-.411a.221.221,0,0,1-.214-.2,35.838,35.838,0,0,0-.829-4.588c-.076,1.48-.134,3.032-.131,4.61a.228.228,0,0,1-.062.16.317.317,0,0,1-.16.058c-2.4-.047-5.977-.087-8.827-.051a.209.209,0,0,1-.218-.189c-.138-.9-.273-2.392-.378-3.6-.065.374-.131.753-.2,1.112-.145.836-.3,1.691-.378,2.541a.23.23,0,0,1-.218.2l-.716.011c-.48,0-.953.015-1.429.029-1,.025-2,.044-3,.062l-.742.011a.214.214,0,0,1-.218-.193,44.879,44.879,0,0,1,0-5.464c.018-.589.04-1.2.047-1.621a15.965,15.965,0,0,0-2.192,7.053.229.229,0,0,1-.211.2c-.422.015-1.291.084-2.058.142-.476.04-.916.073-1.182.091l-.458.022c-.654.069-1.327.138-1.985.215a.183.183,0,0,1-.164-.047.235.235,0,0,1-.087-.153,24.255,24.255,0,0,1,.222-3.792c.055-.542.116-1.12.138-1.494a9.052,9.052,0,0,0-2.28,5.613.21.21,0,0,1-.171.2c-.175.036-.356.076-.542.12A7.747,7.747,0,0,1,9.835,38.43ZM.448,27.421c3.963,1.712,7.493,5.642,9.489,10.569a8.418,8.418,0,0,0,1.651-.269c.127-.025.258-.062.382-.087A9.352,9.352,0,0,1,14.652,31.6a.322.322,0,0,1,.2-.084.236.236,0,0,1,.174.084c.145.164.12.524-.051,2.152a28.383,28.383,0,0,0-.24,3.483c.6-.069,1.189-.131,1.774-.193l.473-.022c.258-.018.694-.055,1.171-.084.673-.058,1.418-.116,1.887-.142a16.014,16.014,0,0,1,2.57-7.58.271.271,0,0,1,.378-.036c.127.127.127.378.055,2.439a48.8,48.8,0,0,0-.029,5.192l.538-.007c1-.015,2-.029,3-.062.476-.015.952-.022,1.429-.029l.527-.007c.084-.8.225-1.6.364-2.378.164-.934.334-1.909.411-2.872.015-.113.124-.251.24-.251.225.007.225.007.407,2.018.109,1.123.229,2.5.353,3.414,2.734-.033,6.086,0,8.427.047,0-1.96.095-3.876.2-5.657a.253.253,0,0,1,.229-.236c.465.018,1.24,4.7,1.381,5.868,1.618.055,4,.189,7.089.407.636.04,1.269.08,1.909.109-.044-.716-.258-2.214-.454-3.548-.178-1.258-.356-2.447-.393-3.01a.29.29,0,0,1,.069-.182.227.227,0,0,1,.174-.069c.534.011,3.428,4.592,3.7,6.969.382.022.923.044,1.494.062.8.033,1.654.073,2.2.1a46.1,46.1,0,0,0-.644-5.453c-.287-1.807-.287-1.861-.178-1.981a.249.249,0,0,1,.356.015,12.482,12.482,0,0,1,2.3,7.617c.96.076,1.909.16,2.868.247l.385.033a10.691,10.691,0,0,0,1.283-4.712.277.277,0,0,1,.244-.233.252.252,0,0,1,.2.113,12.159,12.159,0,0,1,1.214,5.3c.247.062.5.116.738.164a8.427,8.427,0,0,1,1.065-2.025l.105-.16a15.367,15.367,0,0,1,3.817-4.2,23.434,23.434,0,0,1,6.2-3.352A31.243,31.243,0,0,0,73.792,24.8c-.254-.367-.5-.72-.734-1.072a89.943,89.943,0,0,0-5.606-7.275A49.618,49.618,0,0,0,61.184,10.1a16.442,16.442,0,0,0-1.461-1.094A38.3,38.3,0,0,0,49.67,3.47,42.607,42.607,0,0,0,36.458.449a20.567,20.567,0,0,0-9.591,1.967l-.414.091A26.413,26.413,0,0,0,14.361,8.44,55.365,55.365,0,0,0,4.72,19.477a38.343,38.343,0,0,0-2.272,4.061c-.465.916-.953,1.869-1.48,2.785A4.715,4.715,0,0,0,.448,27.421Z" fill="#161615"/><path d="M.414,27.023a48.412,48.412,0,0,1,5.021-2.349A53.557,53.557,0,0,1,16.429,21.6,98.048,98.048,0,0,1,39.22,20.377c12.437.774,24.3,4.214,35.734,8.918.462-.193.923-.371,1.4-.524a40.174,40.174,0,0,0-3.345-5.4,87.113,87.113,0,0,0-5.617-7.286A48.92,48.92,0,0,0,61.1,9.714c-.491-.411-.989-.774-1.483-1.116a38.7,38.7,0,0,0-10.1-5.555C43.914.977,37.686-.768,31.658.348A21.643,21.643,0,0,0,26.554,2c-.127.022-.251.051-.374.076A26.612,26.612,0,0,0,13.99,8.056,55.671,55.671,0,0,0,4.312,19.137C2.843,21.329,1.861,23.725.553,25.99A3.267,3.267,0,0,0,0,27.277C.138,27.193.273,27.1.414,27.023Z" transform="translate(0.226 0.22)" fill="#343318" style="mix-blend-mode:multiply;isolation:isolate"/><g transform="translate(27.522 51.99)"><g transform="translate(0 0)"><path d="M.342,1.809A1.413,1.413,0,0,1,0,.929C.008-.34,1.277-.034,2.08.26A17.6,17.6,0,0,0,7.141,1.776c1.832.109,3.69-.571,5.464-.9.814-.156,2.858-.338,2.563,1.076a3.47,3.47,0,0,1-1.3,1.672A8.849,8.849,0,0,1,7.828,4.837,14.667,14.667,0,0,1,2.109,3.208,6.272,6.272,0,0,1,.342,1.809Z" transform="translate(0.221 0.224)" fill="#eea9cc"/><path d="M9.1,5.352c-.356-.011-.705-.036-1.065-.073a14.485,14.485,0,0,1-5.81-1.665A6.318,6.318,0,0,1,.389,2.163,1.641,1.641,0,0,1,0,1.142,1.155,1.155,0,0,1,.309.28C.7-.091,1.378-.095,2.374.276,2.738.414,3.1.553,3.45.694A12.611,12.611,0,0,0,7.37,1.778a12.934,12.934,0,0,0,3.817-.538c.527-.127,1.069-.258,1.6-.367a6.449,6.449,0,0,1,1.222-.1,1.8,1.8,0,0,1,1.422.516,1.078,1.078,0,0,1,.171.927,3.726,3.726,0,0,1-1.389,1.811A8.5,8.5,0,0,1,9.1,5.352ZM1.164.44A.7.7,0,0,0,.618.6a.766.766,0,0,0-.182.553,1.287,1.287,0,0,0,.3.749,5.949,5.949,0,0,0,1.7,1.342,14.311,14.311,0,0,0,5.639,1.6c.345.036.687.058,1.029.073a8.1,8.1,0,0,0,4.85-1.247,3.2,3.2,0,0,0,1.211-1.545.621.621,0,0,0-.08-.56A1.414,1.414,0,0,0,14,1.214a5.7,5.7,0,0,0-1.131.095c-.516.105-1.058.229-1.574.356a13.483,13.483,0,0,1-3.945.553A12.988,12.988,0,0,1,3.287,1.1C2.938.96,2.582.822,2.225.691A3.371,3.371,0,0,0,1.164.44Z" fill="#161615"/></g><g transform="translate(1.796 2.318)"><path d="M6.151.23C4.268-.028,1.767-.272,0,.706.113.768.215.837.313.895A14.667,14.667,0,0,0,6.031,2.524a9.675,9.675,0,0,0,5.152-.7A12.978,12.978,0,0,0,6.151.23Z" transform="translate(0.222 0.219)" fill="#e05373"/><path d="M7.275,3.033h0c-.342-.011-.691-.036-1.04-.073A14.485,14.485,0,0,1,.426,1.3c-.1-.047-.2-.12-.316-.185A.216.216,0,0,1,0,.917.2.2,0,0,1,.117.732,7.48,7.48,0,0,1,3.945,0,22.9,22.9,0,0,1,6.4.23a13.02,13.02,0,0,1,5.115,1.618.221.221,0,0,1-.015.389A9.247,9.247,0,0,1,7.275,3.033ZM.684.943a14.327,14.327,0,0,0,5.6,1.581,9.893,9.893,0,0,0,4.639-.509A13.485,13.485,0,0,0,6.341.667,22.861,22.861,0,0,0,3.93.445,7.561,7.561,0,0,0,.684.943Z" transform="translate(0 0)" fill="#161615"/></g><g transform="translate(1.56 0.095)"><path d="M6.675,3.337c2.2.069,4.973-.356,5.482-2.654a5.247,5.247,0,0,0-1.105.1c-1.774.331-3.632,1.011-5.464.9A17.6,17.6,0,0,1,.527.171C.367.109.185.051,0,0,.618,2.541,4.4,3.268,6.675,3.337Z" transform="translate(0.215 0.217)" fill="#fff"/><path d="M6.911,3.776H6.879C5.864,3.747.771,3.438.007.272A.227.227,0,0,1,.066.061.21.21,0,0,1,.276.01,5,5,0,0,1,.818.181c.364.138.72.276,1.072.418A12.611,12.611,0,0,0,5.81,1.682a13.248,13.248,0,0,0,3.817-.538c.527-.127,1.069-.258,1.6-.367a7.239,7.239,0,0,1,1.152-.1.356.356,0,0,1,.171.084.238.238,0,0,1,.04.182C12.165,2.864,10.147,3.864,6.911,3.776ZM.556.559c.807,1.923,3.85,2.7,6.337,2.778l.025.222.007-.218c2.025.051,4.523-.294,5.163-2.218a7.549,7.549,0,0,0-.774.091c-.524.105-1.065.229-1.581.356a13.483,13.483,0,0,1-3.945.553A12.988,12.988,0,0,1,1.727,1C1.378.864,1.022.726.665.6A.48.48,0,0,0,.556.559Z" transform="translate(0 0)" fill="#161615"/></g></g><path d="M2.128,1.787c-.171.865-.774,1.48-1.349,1.371S-.126,2.253.045,1.38.819-.1,1.387.013,2.292.922,2.128,1.787Z" transform="translate(26.383 37.831)"/><path d="M2.117,1.636c-.025.88-.527,1.578-1.109,1.563S-.028,2.447,0,1.56.528-.021,1.117,0,2.15.753,2.117,1.636Z" transform="translate(43.87 38.276)"/></g></g><g transform="translate(42.039 82.585)"><g transform="translate(0.396 1.199)"><path d="M0,.713l.568,6.16,3.55,1.541L8.489,6.1,7.647,0Z" transform="translate(0.222 0.219)" fill="#3682dd"/><path d="M4.334,8.857l-.08-.022L.7,7.293a.212.212,0,0,1-.127-.182L0,.953A.225.225,0,0,1,.2.713L7.85,0a.224.224,0,0,1,.24.182l.84,6.1a.221.221,0,0,1-.113.222L4.447,8.831A.626.626,0,0,1,4.334,8.857ZM1,6.941,4.334,8.388l4.141-2.2L7.683.455.459,1.127Z" transform="translate(0 0)" fill="#161615"/></g><g transform="translate(0 0)"><path d="M0,.731.216,3.749,4.193,5.116,8.8,2.854,8.287,0Z" transform="translate(0.216 0.218)" fill="#3682dd"/><path d="M4.407,5.555a.148.148,0,0,1-.069-.015L.36,4.17a.206.206,0,0,1-.149-.189L0,.963A.223.223,0,0,1,.2.731L8.486,0a.225.225,0,0,1,.233.175l.513,2.854a.217.217,0,0,1-.12.24l-4.6,2.265A.244.244,0,0,1,4.407,5.555ZM.64,3.8,4.4,5.093,8.773,2.945,8.322.454l-7.867.7Z" fill="#161615"/></g><path d="M.95.413A.5.5,0,0,1,.6,1.031.5.5,0,0,1,.016.624.5.5,0,0,1,.365.01.5.5,0,0,1,.95.413Z" transform="translate(3.929 3.07)" fill="#b2a35a" style="mix-blend-mode:multiply;isolation:isolate"/></g><g transform="translate(27.903 81.897)"><g transform="translate(0 1.207)"><path d="M8.773,1.133l-.9,6.114L4.243,8.6,0,6.039,1.175,0Z" transform="translate(0.222 0.221)" fill="#3682dd"/><path d="M4.459,9.028A.163.163,0,0,1,4.35,9L.111,6.454a.222.222,0,0,1-.105-.233L1.18.179A.225.225,0,0,1,1.427,0l7.6,1.134a.216.216,0,0,1,.182.247L8.313,7.5a.212.212,0,0,1-.145.175L4.543,9.025A.323.323,0,0,1,4.459,9.028ZM.467,6.149,4.488,8.574,7.894,7.3l.851-5.77L1.572.466Z" transform="translate(0 0)" fill="#161615"/></g><g transform="translate(0.338 0)"><path d="M8.9,1.175l-.376,3L4.477,5.322,0,2.819.661,0Z" transform="translate(0.222 0.221)" fill="#3682dd"/><path d="M4.692,5.767a.2.2,0,0,1-.1-.029L.111,3.233A.22.22,0,0,1,.006,2.99L.671.168A.23.23,0,0,1,.915,0L9.149,1.175a.227.227,0,0,1,.185.251l-.374,3a.218.218,0,0,1-.156.182L4.758,5.76ZM.475,2.931l4.25,2.378L8.546,4.226l.324-2.639L1.053.466Z" transform="translate(0 0)" fill="#161615"/></g><path d="M.02.383a.513.513,0,0,0,.327.636.505.505,0,0,0,.6-.371A.5.5,0,0,0,.627.016.515.515,0,0,0,.02.383Z" transform="translate(4.639 3.29)" fill="#b2a35a" style="mix-blend-mode:multiply;isolation:isolate"/></g><g transform="translate(14.457 156.862)"><g transform="translate(0 0)"><g transform="translate(0.008 0)"><path d="M14.475,3.695l.011-.087C14.693,2.008,13.944.3,12.2.066c-2.4-.32-8.983.527-11.143,2.345C-1,4.127.245,5.723,2.208,6.236,4.815,6.916,13.9,7.741,14.475,3.695Z" transform="translate(0.223 0.218)" fill="#804b23"/><path d="M7.016,7.229h0a21.963,21.963,0,0,1-4.643-.567,2.945,2.945,0,0,1-2.334-1.9c-.12-.534-.022-1.36,1.1-2.309C3.242.692,8.979-.068,11.59,0a8.038,8.038,0,0,1,.865.062c1.916.254,2.694,2.1,2.469,3.785l-.011.091C14.491,6.974,9.779,7.3,7.016,7.229ZM11.575.441c-2.9-.076-8.3.8-10.154,2.356C.665,3.429.341,4.077.472,4.669A2.553,2.553,0,0,0,2.486,6.24a22.29,22.29,0,0,0,4.537.549c2.116.055,7.064-.113,7.453-2.9l.007-.062c.2-1.5-.458-3.1-2.087-3.323C12.164.474,11.888.448,11.575.441Z" transform="translate(0)" fill="#161615"/></g><g transform="translate(0.008 0.659)"><path d="M1.059,1.752A11.151,11.151,0,0,1,5.455,0,4.6,4.6,0,0,1,7.789,3.257a9,9,0,0,1,.095,2.876,23.683,23.683,0,0,1-5.675-.556C.245,5.064-1,3.468,1.059,1.752Z" transform="translate(0.223 0.218)" fill="#dfdcc1"/><path d="M7,6.566A22.025,22.025,0,0,1,2.373,6,2.945,2.945,0,0,1,.039,4.1c-.12-.534-.022-1.36,1.1-2.309A11.771,11.771,0,0,1,5.635.007a.2.2,0,0,1,.149.018A4.829,4.829,0,0,1,8.23,3.436a9.376,9.376,0,0,1,.095,2.952.213.213,0,0,1-.214.182C7.743,6.577,7.369,6.577,7,6.566ZM5.649.455A10.658,10.658,0,0,0,1.421,2.138C.665,2.77.341,3.418.472,4.01A2.553,2.553,0,0,0,2.486,5.581a23.77,23.77,0,0,0,5.435.556,9,9,0,0,0-.127-2.621A4.374,4.374,0,0,0,5.649.455Z" transform="translate(0 0)" fill="#161615"/></g><g transform="translate(0 3.737)"><path d="M7.1,1.76c-1.93.033-5.29.073-7.1-1.352,0,.971.967,1.76,2.225,2.09,2.6.676,11.627,1.494,12.252-2.5C12.448,1.451,9.427,1.723,7.1,1.76Z" transform="translate(0.215 0.22)" fill="#dfdcc1"/><path d="M7.017,3.492a21.948,21.948,0,0,1-4.635-.567C.92,2.55-.014,1.645,0,.62A.221.221,0,0,1,.124.431.209.209,0,0,1,.356.456c1.029.814,2.723,1.24,5.184,1.305.629.018,1.218.007,1.767,0,2.134-.04,5.206-.254,7.26-1.72a.207.207,0,0,1,.24-.007.216.216,0,0,1,.1.222C14.441,3.245,9.762,3.568,7.017,3.492ZM.531,1.111A2.815,2.815,0,0,0,2.494,2.5a22.548,22.548,0,0,0,4.534.549c1.952.055,6.351-.087,7.293-2.327C12.2,1.969,9.34,2.165,7.311,2.2c-.553.007-1.142.018-1.785,0A10.432,10.432,0,0,1,.531,1.111Z" transform="translate(0 0)" fill="#161615"/></g><path d="M.216,3.17a.223.223,0,0,0,.233-.211A3.411,3.411,0,0,1,2.2.429a.221.221,0,0,0,.1-.3.22.22,0,0,0-.3-.1,3.776,3.776,0,0,0-2,2.9.222.222,0,0,0,.207.244Z" transform="translate(8.088 0.445)" fill="#161615"/><path d="M4.658,2.265a.246.246,0,0,0,.153-.055.226.226,0,0,0,.029-.32A6.146,6.146,0,0,0,.233,0,.223.223,0,0,0,0,.222C-.007.346.073.433.226.455c.062,0,.127,0,.189.007A5.8,5.8,0,0,1,4.49,2.182.241.241,0,0,0,4.658,2.265Z" transform="translate(6.598 0.851)" fill="#161615"/></g></g><g transform="translate(49.134 157.579)"><g transform="translate(0 0)"><path d="M.02,3.514a.371.371,0,0,1-.007-.091C-.115,1.82.729.155,2.485.02c2.4-.193,8.936,1.007,11,2.938,1.963,1.832.629,3.348-1.356,3.759C9.494,7.259.365,7.582.02,3.514Z" transform="translate(0.215 0.223)" fill="#804b23"/><path d="M7.728,7.464C4.954,7.391.272,6.809.017,3.759l0-.058C-.121,1.967.752.167,2.678.018,2.926,0,3.216,0,3.551,0c2.61.073,8.293,1.142,10.3,3.018,1.073,1,1.12,1.836.971,2.363a2.937,2.937,0,0,1-2.429,1.771A22.207,22.207,0,0,1,7.728,7.464ZM3.533.447a7.442,7.442,0,0,0-.818.007C1.071.589.333,2.152.446,3.635l.007.08c.24,2.818,5.173,3.257,7.286,3.312A22.413,22.413,0,0,0,12.3,6.722,2.559,2.559,0,0,0,14.4,5.264c.167-.585-.127-1.251-.847-1.923C11.778,1.687,6.438.523,3.533.447Z" fill="#161615"/><g transform="translate(6.393 0.978)"><path d="M7.086,1.985A11.192,11.192,0,0,0,2.786,0a4.607,4.607,0,0,0-2.5,3.127A8.808,8.808,0,0,0,.034,6a23.77,23.77,0,0,0,5.7-.251C7.715,5.333,9.05,3.817,7.086,1.985Z" transform="translate(0.222 0.218)" fill="#dfdcc1"/><path d="M1.343,6.486h0C.976,6.479.608,6.457.234,6.432a.218.218,0,0,1-.2-.2A9.074,9.074,0,0,1,.292,3.294,4.8,4.8,0,0,1,2.91.022.232.232,0,0,1,3.066.008,11.587,11.587,0,0,1,7.454,2.043c1.073,1,1.12,1.836.971,2.363A2.937,2.937,0,0,1,6,6.177,22.793,22.793,0,0,1,1.343,6.486ZM.459,6a23.248,23.248,0,0,0,5.45-.258A2.559,2.559,0,0,0,8,4.287c.167-.585-.127-1.251-.847-1.923A10.776,10.776,0,0,0,3.026.451,4.384,4.384,0,0,0,.718,3.4,9,9,0,0,0,.459,6Z" transform="translate(0 0)" fill="#161615"/></g><g transform="translate(0.026 3.566)"><path d="M7.278,2.152c1.927.142,5.279.364,7.151-.963-.036.963-1.054,1.705-2.327,1.967C9.471,3.694.411,4.021,0,0,1.952,1.56,4.948,1.992,7.278,2.152Z" transform="translate(0.216 0.219)" fill="#dfdcc1"/><path d="M7.705,3.9C4.957,3.825.307,3.251,0,.24A.215.215,0,0,1,.351.048C2.317,1.618,5.375,2.007,7.505,2.16c.549.033,1.131.076,1.771.091,2.461.069,4.174-.265,5.246-1.022a.2.2,0,0,1,.225-.015.215.215,0,0,1,.116.2c-.04,1.014-1.022,1.865-2.5,2.17A22.885,22.885,0,0,1,7.705,3.9ZM.558.738c.825,2.29,5.21,2.668,7.155,2.723a22.412,22.412,0,0,0,4.563-.305A2.788,2.788,0,0,0,14.3,1.876a10.36,10.36,0,0,1-5.039.814h0c-.644-.018-1.229-.055-1.785-.091C5.455,2.447,2.608,2.1.558.738Z" transform="translate(0 0)" fill="#161615"/></g><path d="M1.952,3.264a.223.223,0,0,1-.222-.222A3.39,3.39,0,0,0,.116.425.231.231,0,0,1,.029.112.242.242,0,0,1,.345.029a3.811,3.811,0,0,1,1.843,3,.234.234,0,0,1-.222.24Z" transform="translate(4.685 0.52)" fill="#161615"/><path d="M.226,2.03a.237.237,0,0,1-.156-.065.228.228,0,0,1-.007-.32,6.177,6.177,0,0,1,4.7-1.64.227.227,0,0,1,.222.24c0,.127-.087.2-.236.215-.062,0-.131,0-.185-.007A5.836,5.836,0,0,0,.393,1.957.229.229,0,0,1,.226,2.03Z" transform="translate(3.496 1.1)" fill="#161615"/></g></g><g transform="translate(20.907 103.075)"><g transform="translate(0 0)"><path d="M35.774,2.156C30.081,2.825,13.724,4.2.644,0L0,4.5S19.647,9.82,36.178,5.984C36.028,4.712,35.9,3.436,35.774,2.156Z" transform="translate(0.221 0.221)" fill="#804b23"/><path d="M20.856,7.787h0A100.192,100.192,0,0,1,.163,4.94.226.226,0,0,1,0,4.693L.639.185A.237.237,0,0,1,.744.032.2.2,0,0,1,.926.014,69.1,69.1,0,0,0,19.987,2.883a115.2,115.2,0,0,0,15.986-.72.192.192,0,0,1,.16.047.229.229,0,0,1,.084.149c.113,1.178.247,2.516.4,3.821a.22.22,0,0,1-.171.24A62.231,62.231,0,0,1,20.856,7.787ZM.464,4.559a99.679,99.679,0,0,0,20.4,2.788h0A61.779,61.779,0,0,0,36.155,6.035c-.131-1.163-.251-2.341-.353-3.41a116.7,116.7,0,0,1-15.829.7A69.842,69.842,0,0,1,1.043.512Z" fill="#161615"/></g><g transform="translate(13.047 2.214)"><path d="M.124,0,0,5.392l8.046.185L8.173.185ZM6.668,4.6,1.483,4.486l.08-3.479,5.188.124Z" transform="translate(0.222 0.218)" fill="#281806"/><path d="M.215,5.828A.213.213,0,0,1,0,5.61L.124.214A.222.222,0,0,1,.349,0L8.4.182h0a.279.279,0,0,1,.156.069.254.254,0,0,1,.058.16L8.486,5.8a.217.217,0,0,1-.222.218L.215,5.828ZM.56.447.447,5.4l7.606.178L8.166.622ZM1.7,4.923A.22.22,0,0,1,1.483,4.7l.084-3.472a.215.215,0,0,1,.222-.218l5.188.12c.04-.018.113.029.156.065a.235.235,0,0,1,.058.16l-.08,3.479a.218.218,0,0,1-.225.207L1.7,4.923ZM2,1.454,1.931,4.49,6.675,4.6,6.748,1.56Z" transform="translate(0 0)" fill="#161615"/></g><g transform="translate(27.531 2.099)"><path d="M1.818,0,0,.167.5,5.862l1.815-.288Z" transform="translate(0.226 0.219)" fill="#b2a35a"/><path d="M.724,6.3a.175.175,0,0,1-.131-.051A.2.2,0,0,1,.509,6.1L0,.409A.229.229,0,0,1,.2.169L2.018,0a.2.2,0,0,1,.16.051A.187.187,0,0,1,2.261.2l.494,5.57a.222.222,0,0,1-.182.244l-1.811.28ZM.469.583.924,5.826,2.3,5.611,1.84.456Z" transform="translate(0 0)" fill="#161615"/></g><g transform="translate(2.762 0.187)"><path d="M3.082.415,1.3,0,0,5.563l1.807.3Z" transform="translate(0.217 0.218)" fill="#b2a35a"/><path d="M2.018,6.3l-.029-.007L.182,6a.191.191,0,0,1-.145-.091.215.215,0,0,1-.029-.174L1.309.169A.22.22,0,0,1,1.571.005L3.349.42a.206.206,0,0,1,.138.095.227.227,0,0,1,.025.167L2.24,6.135A.222.222,0,0,1,2.018,6.3ZM.484,5.6l1.374.229L3.036.794,1.688.485Z" transform="translate(0 0)" fill="#161615"/></g></g><g transform="translate(19.941 119.771)"><path d="M.533,0C.515.971-.041,2,0,3,3.645,4.875,13.661,5.868,17.853,6.09a17.931,17.931,0,0,0,.462-2.774C12.083,2.839,3.892,1.418.533,0Z" transform="translate(0.221 0.224)" fill="#b2a35a"/><path d="M18.07,6.539h-.007C14.373,6.336,3.957,5.394.125,3.42A.21.21,0,0,1,0,3.238,5.793,5.793,0,0,1,.278,1.569,5.473,5.473,0,0,0,.529.217.233.233,0,0,1,.634.035a.239.239,0,0,1,.2-.022C4.284,1.482,12.722,2.874,18.554,3.322a.222.222,0,0,1,.207.229,18.793,18.793,0,0,1-.473,2.81A.225.225,0,0,1,18.07,6.539ZM.441,3.093C3.841,4.758,12.831,5.8,17.9,6.085a22.127,22.127,0,0,0,.4-2.341C12.479,3.278,4.59,1.976.95.537A7.22,7.22,0,0,1,.7,1.682,5.728,5.728,0,0,0,.441,3.093Z" transform="translate(0 0)" fill="#161615"/></g><g transform="translate(39.363 120.757)"><path d="M17.727,0c-.04,1,.458,2.083.364,3.108C14.39,4.832,4.454,5.3.309,5.3A20.49,20.49,0,0,1,0,2.432C6.17,2.279,14.335,1.28,17.727,0Z" transform="translate(0.223 0.223)" fill="#b2a35a"/><path d="M.525,5.749A.225.225,0,0,1,.31,5.564,19.417,19.417,0,0,1,0,2.655a.209.209,0,0,1,.218-.214C6,2.292,14.391,1.332,17.87.009a.257.257,0,0,1,.207.033.228.228,0,0,1,.091.189,6.624,6.624,0,0,0,.178,1.407,5.809,5.809,0,0,1,.185,1.72.228.228,0,0,1-.131.174C14.514,5.346,4.186,5.749.532,5.749ZM.441,2.87A23.757,23.757,0,0,0,.717,5.313c5.021-.022,13.946-.6,17.382-2.127a5.885,5.885,0,0,0-.185-1.465A10.993,10.993,0,0,1,17.728.536C14.067,1.812,6.211,2.717.441,2.87Z" transform="translate(0 0)" fill="#161615"/></g><path d="M.218,33.193A.22.22,0,0,1,0,32.967L.887.218a.222.222,0,1,1,.444.007L.44,32.978A.214.214,0,0,1,.218,33.193Z" transform="translate(38.782 72.652)" fill="#161615"/><g transform="translate(9.814 0)"><g transform="translate(0 0)"><path d="M30.364,27.036c8.929.214,18.207.731,26.907,2.908a82.383,82.383,0,0,1,9.4,3c.022-.327.058-.654.065-.989C67.3,14.933,52.821.638,34.389.02,16.066-.583.749,12.545,0,29.424,9.605,26.349,20.719,26.8,30.364,27.036Z" transform="translate(0.215 0.216)" fill="#3682dd"/><path d="M66.877,33.381a.258.258,0,0,1-.073-.015,81.865,81.865,0,0,0-9.376-3c-8.58-2.149-17.836-2.654-25.758-2.865l-2.57-.065c-9.245-.236-19.73-.491-28.812,2.41a.215.215,0,0,1-.2-.036A.212.212,0,0,1,0,29.629,29.753,29.753,0,0,1,10.6,8.281,34.837,34.837,0,0,1,34.385.014l.225.007c18.523.614,33.127,15.048,32.556,32.16-.007.24-.025.48-.047.713l-.015.287a.215.215,0,0,1-.1.167A.258.258,0,0,1,66.877,33.381Zm-35.2-6.322c7.947.218,17.233.727,25.856,2.883a82.307,82.307,0,0,1,9.147,2.908c.022-.225.033-.454.047-.687C67.291,15.3,52.876,1.072,34.6.461L34.371.45A34.4,34.4,0,0,0,10.885,8.616,29.347,29.347,0,0,0,.451,29.331C9.536,26.51,19.927,26.772,29.107,27Z" fill="#161615"/></g><g transform="translate(0 16.282)"><path d="M63.659,8.329a88.028,88.028,0,0,0-9.834-3.756A88.057,88.057,0,0,0,32.433.261C22.279-.429,11.95.152,2.265,3.17A28.84,28.84,0,0,0,0,13.131c9.605-3.076,20.719-2.621,30.364-2.389,8.929.214,18.207.731,26.907,2.908a82.383,82.383,0,0,1,9.4,3c.022-.327.058-.654.065-.989a28.843,28.843,0,0,0-.48-6.293C65.364,9.034,64.477,8.7,63.659,8.329Z" transform="translate(0.215 0.227)" fill="#3a2c1c"/><path d="M66.877,17.1a.258.258,0,0,1-.073-.015,81.863,81.863,0,0,0-9.376-3c-8.58-2.149-17.836-2.654-25.758-2.865l-2.57-.065c-9.245-.236-19.73-.491-28.812,2.41a.215.215,0,0,1-.2-.036A.212.212,0,0,1,0,13.348,29.041,29.041,0,0,1,2.28,3.313a.213.213,0,0,1,.138-.124A77.9,77.9,0,0,1,27.991.038c1.523.044,3.094.12,4.675.229A87.462,87.462,0,0,1,54.108,4.6a89.438,89.438,0,0,1,9.852,3.759c.713.327,1.454.611,2.25.909l.331.131a.211.211,0,0,1,.138.164,28.763,28.763,0,0,1,.487,6.34c-.007.24-.025.48-.047.713l-.015.287a.215.215,0,0,1-.1.167A.258.258,0,0,1,66.877,17.1Zm-35.2-6.322c7.947.218,17.233.727,25.856,2.883a82.307,82.307,0,0,1,9.147,2.908c.022-.225.033-.454.047-.687a28.357,28.357,0,0,0-.462-6.119l-.215-.087c-.763-.287-1.552-.593-2.272-.927a90.1,90.1,0,0,0-9.809-3.734A86.866,86.866,0,0,0,32.633.707C31.063.594,29.492.521,27.98.478a77.771,77.771,0,0,0-25.34,3.1A28.759,28.759,0,0,0,.451,13.049c9.085-2.821,19.476-2.559,28.656-2.33Z" transform="translate(0 0)" fill="#161615"/></g><path d="M12.266,4.183c6.035,3.287,9.405,9.311,10.521,15.949a69.59,69.59,0,0,1,.807,7.638A89.378,89.378,0,0,1,36.81,29.944a82.385,82.385,0,0,1,9.4,3c.022-.327.058-.654.065-.989C46.841,14.933,32.36.638,13.928.02A35.682,35.682,0,0,0,0,2.336,19.263,19.263,0,0,1,12.266,4.183Z" transform="translate(20.676 0.216)" fill="#b2a35a" style="mix-blend-mode:multiply;isolation:isolate"/></g><g transform="translate(0.473 21.062)"><path d="M76.038,7.164C35.472-6.567,9.932,3.663,9.932,3.663l.055.305C2.978,8.688,1.043,17.126,0,20.372,3.068,13.654,20.948,8.9,42.416,9.477c22.21.6,40.289,6.7,41.994,13.891C83.607,15.861,76.038,7.164,76.038,7.164Z" transform="translate(0.224 0.221)" fill="#3682dd"/><path d="M84.627,23.811a.216.216,0,0,1-.207-.171C82.74,16.529,64.38,10.5,42.632,9.916,21.626,9.352,3.485,13.977.416,20.685a.209.209,0,0,1-.273.113.225.225,0,0,1-.134-.273c.105-.32.218-.687.345-1.1C1.518,15.558,3.681,8.393,9.971,4.092l-.029-.167a.225.225,0,0,1,.135-.247C10.181,3.637,20.568-.434,38.23.038a130.187,130.187,0,0,1,38.1,7.137.356.356,0,0,1,.1.065c.073.087,7.617,8.834,8.424,16.324a.217.217,0,0,1-.185.244ZM42.643,9.476c20.457.553,37.417,5.69,41.438,12.252C82.489,15.14,76.661,8.2,76.134,7.578A129.779,129.779,0,0,0,38.215.478C21.859.038,11.8,3.51,10.41,4.026l.015.124a.212.212,0,0,1-.087.222C4.339,8.411,2.11,15.148.914,19.067,5.782,13,22.986,8.945,42.643,9.476Z" transform="translate(0 0)" fill="#161615"/></g><path d="M22.824,5.69A139.442,139.442,0,0,0,0,0C1,3.014,1.9,6.05,2.767,9.1,18.4,11.263,29.855,16.24,31.2,21.893,30.393,14.386,22.824,5.69,22.824,5.69Z" transform="translate(53.91 22.758)" fill="#b2a35a" style="mix-blend-mode:multiply;isolation:isolate"/><g transform="translate(27.346 48.227)"><g transform="translate(0 0)"><g transform="translate(0.334 0)"><path d="M8.965,8.167,11.5,8.28l-.92-4.33a3.486,3.486,0,0,0-.084-.414l-.265-.789a4.6,4.6,0,0,0-8.725.971L0,7.749l2.763.127a4.572,4.572,0,0,0,6.2.291Z" transform="translate(0.217 0.222)" fill="#4a4a49"/><path d="M6.114,9.676A4.81,4.81,0,0,1,2.89,8.316L.2,8.189a.21.21,0,0,1-.167-.1.228.228,0,0,1-.022-.2L1.523,3.859a4.817,4.817,0,0,1,9.129-.985l.273.822a3.361,3.361,0,0,1,.1.444l.9,4.25a.26.26,0,0,1,.029.113.251.251,0,0,1-.233.222h-.011L9.255,8.607A4.808,4.808,0,0,1,6.114,9.676ZM.53,7.763,3,7.88a.2.2,0,0,1,.145.065,4.336,4.336,0,0,0,5.9.269.2.2,0,0,1,.153-.055l2.254.109L10.59,4.215a3.939,3.939,0,0,0-.084-.4l-.265-.774a4.38,4.38,0,0,0-8.3.942Z" transform="translate(0)" fill="#161615"/></g><g transform="translate(0 3.915)"><path d="M12.138,6.23A6.07,6.07,0,1,1,6.23,0,6.071,6.071,0,0,1,12.138,6.23Z" transform="translate(0.218 0.225)" fill="#4a4a49"/><path d="M6.114,12.581a6.292,6.292,0,1,1,6.46-6.119A6.3,6.3,0,0,1,6.114,12.581ZM6.441.449a5.846,5.846,0,1,0,5.7,6A5.849,5.849,0,0,0,6.441.449Z" transform="translate(0 0)" fill="#161615"/></g><g transform="translate(1.088 4.751)"><path d="M9.97,5.114A4.986,4.986,0,1,1,5.121,0,4.988,4.988,0,0,1,9.97,5.114Z" transform="translate(0.222 0.225)" fill="#161715"/><path d="M5.07,10.41A5.206,5.206,0,1,1,10.41,5.35,5.209,5.209,0,0,1,5.07,10.41ZM5.332.445A4.766,4.766,0,1,0,9.971,5.339,4.763,4.763,0,0,0,5.332.445Z" transform="translate(0 0)" fill="#161615"/></g><path d="M1.956,1.007A.978.978,0,1,1,1.011,0,.971.971,0,0,1,1.956,1.007Z" transform="translate(4.31 6.487)" fill="#fff"/><path d="M1.367.7A.684.684,0,1,1,.7,0,.683.683,0,0,1,1.367.7Z" transform="translate(2.431 8.29)" fill="#fff"/></g><g transform="translate(16.273 0.44)"><g transform="translate(0.331 0)"><path d="M8.965,8.16l2.538.116-.913-4.33c-.029-.138-.062-.269-.095-.407l-.262-.793a4.6,4.6,0,0,0-8.722.963L0,7.749l2.763.127a4.561,4.561,0,0,0,6.2.284Z" transform="translate(0.224 0.222)" fill="#4a4a49"/><path d="M6.12,9.676A4.774,4.774,0,0,1,2.892,8.313L.213,8.189a.206.206,0,0,1-.171-.1.218.218,0,0,1-.029-.2L1.521,3.859a4.822,4.822,0,0,1,9.136-.985l.276.822a2.771,2.771,0,0,1,.087.44l.905,4.257a.2.2,0,0,1,.025.113.214.214,0,0,1-.222.214h-.018l-2.45-.109A4.872,4.872,0,0,1,6.12,9.676ZM.536,7.76l2.458.116a.2.2,0,0,1,.145.069,4.36,4.36,0,0,0,5.908.265A.169.169,0,0,1,9.2,8.167l2.258.1-.862-4.05a3.827,3.827,0,0,0-.084-.407l-.262-.778a4.382,4.382,0,0,0-8.3.942Z" transform="translate(0 0)" fill="#161615"/></g><g transform="translate(0 3.918)"><path d="M12.131,6.23A6.066,6.066,0,1,1,6.234,0,6.056,6.056,0,0,1,12.131,6.23Z" transform="translate(0.222 0.222)" fill="#4a4a49"/><path d="M6.121,12.574a6.288,6.288,0,1,1,6.453-6.115A6.3,6.3,0,0,1,6.121,12.574ZM6.448.439a5.85,5.85,0,1,0,5.686,6.01A5.862,5.862,0,0,0,6.448.439Z" transform="translate(0 0)" fill="#161615"/></g><g transform="translate(1.091 4.755)"><path d="M9.967,5.121A4.984,4.984,0,1,1,5.117,0,4.995,4.995,0,0,1,9.967,5.121Z" transform="translate(0.222 0.218)" fill="#161715"/><path d="M5.066,10.407a5.2,5.2,0,1,1,5.341-5.064A5.206,5.206,0,0,1,5.066,10.407ZM5.335.438A4.768,4.768,0,1,0,9.967,5.332,4.782,4.782,0,0,0,5.335.438Z" transform="translate(0 0)" fill="#161615"/></g><path d="M1.96,1.007A.98.98,0,1,1,1.007,0,.981.981,0,0,1,1.96,1.007Z" transform="translate(4.31 6.487)" fill="#fff"/><path d="M1.371.7a.691.691,0,0,1-.7.669A.686.686,0,1,1,.709,0,.68.68,0,0,1,1.371.7Z" transform="translate(2.427 8.29)" fill="#fff"/></g><g transform="translate(11.254 4.354)"><path d="M.582,0,0,.465.344,2.091l5.606.149L6.327.635Z" transform="translate(0.216 0.218)" fill="#2a2a29"/><path d="M6.163,2.679.55,2.526a.216.216,0,0,1-.207-.175L0,.73A.232.232,0,0,1,.077.508L.659.05A.2.2,0,0,1,.819,0L6.563.632a.238.238,0,0,1,.156.095A.217.217,0,0,1,6.752.9l-.374,1.6A.215.215,0,0,1,6.163,2.679ZM.739,2.09l5.253.142.276-1.185L.866.454.459.766Z" transform="translate(0 0)" fill="#161615"/></g><g transform="translate(10.641 2.986)"><path d="M0,0,7.506.2,6.937,2,.611,1.832Z" transform="translate(0.217 0.219)" fill="#4a4a49"/><path d="M7.143,2.443.824,2.272a.225.225,0,0,1-.207-.149L.014.291a.206.206,0,0,1,.029-.2A.208.208,0,0,1,.228,0l7.5.2A.2.2,0,0,1,7.9.3a.2.2,0,0,1,.029.189l-.567,1.8A.216.216,0,0,1,7.143,2.443ZM.988,1.836l6,.16L7.419.633.53.447Z" transform="translate(0 0)" fill="#161615"/></g></g></g><path d="M85.729,107.737a6.37,6.37,0,0,1-3.59-1.112l-.191-.149a4.508,4.508,0,0,1-1.492-3.993c.865-9.573,11.662-20.47,12.122-20.93a2.393,2.393,0,0,1,1.68-.72,2.629,2.629,0,0,1,.823.124h.365l.867.928a2.462,2.462,0,0,1-.261,3.092c-2.79,2.817-10.068,11.429-10.713,17.825a25.413,25.413,0,0,0,5.153-.518c1.265-.37,1.167.429,1.121,1.887.02,1.522.156,3.036-1.121,3.4A27.011,27.011,0,0,1,85.729,107.737Zm9.708-23.386-.044.043Z" transform="translate(-70.676 -27.573) rotate(1)"/><g transform="translate(18.553 46.411)"><g transform="translate(0 0)"><path d="M1.14,3.86c-.08.109-.153.214-.225.324a6.206,6.206,0,0,0-.193,6.159c.622,1.414,1.407,3.465,2.854,4.225,2,1.054,4.563-.564,4.988-2.632.291-1.425.222-2.963,1.051-4.228a3.5,3.5,0,0,1,2.007-1.352c1.978-.589,3.7-3.494,1.472-4.966A6.414,6.414,0,0,0,9.5.006C6.571.184,3.067,1.355,1.14,3.86Z" transform="translate(0.217 0.223)" fill="#f4cea6"/><path d="M5.054,15.343h0a3.116,3.116,0,0,1-1.363-.356C2.309,14.259,1.531,12.478.9,11.045l-.171-.389A6.42,6.42,0,0,1,.95,4.283c.073-.113.156-.222.233-.334C3.215,1.313,6.912.182,9.7,0a6.8,6.8,0,0,1,3.723,1.421,2.344,2.344,0,0,1,1.127,2.381A4,4,0,0,1,11.9,6.788a3.379,3.379,0,0,0-1.883,1.258,6.629,6.629,0,0,0-.825,2.9c-.051.411-.109.847-.193,1.254A4.126,4.126,0,0,1,5.054,15.343ZM9.955.44c-.076,0-.153,0-.225,0-2.7.167-6.257,1.251-8.2,3.777-.08.1-.149.207-.218.309a5.982,5.982,0,0,0-.178,5.948l.174.4c.6,1.367,1.338,3.065,2.585,3.719a2.624,2.624,0,0,0,1.171.309,3.66,3.66,0,0,0,3.5-2.792c.084-.4.135-.818.189-1.225A7,7,0,0,1,9.639,7.81a3.755,3.755,0,0,1,2.138-1.443,3.515,3.515,0,0,0,2.338-2.625A1.886,1.886,0,0,0,13.187,1.8,6.835,6.835,0,0,0,9.955.44Z" fill="#161615"/><path d="M.214,6.076l-.036,0A.227.227,0,0,1,0,5.814c.033-.149.753-3.581,3.4-4.639C6.133.07,7.718-.239,8.4.179A.824.824,0,0,1,8.776.84a.222.222,0,1,1-.444.025A.371.371,0,0,0,8.165.55C7.8.324,6.708.31,3.563,1.578,1.145,2.553.444,5.865.436,5.9A.219.219,0,0,1,.214,6.076Z" transform="translate(5.672 3.381)" fill="#161615"/><path d="M.21,3.6a.23.23,0,0,1-.16-.076.229.229,0,0,1,.022-.309C.279,3.035,5.111-1.033,8.946.25a.218.218,0,0,1,.142.28.214.214,0,0,1-.28.131C5.205-.543.406,3.507.359,3.544A.205.205,0,0,1,.21,3.6Z" transform="translate(4.855 1.674)" fill="#161615"/></g><g transform="translate(4.062 0.174)"><path d="M0,2.655A9.263,9.263,0,0,1,6.675.008C10.707.19,0,2.655,0,2.655Z" transform="translate(0.218 0.222)" fill="#f4cea6"/><path d="M.215,3.095a.21.21,0,0,1-.145-.062.215.215,0,0,1-.007-.309A9.412,9.412,0,0,1,6.9.008a.225.225,0,0,1,.211.233.194.194,0,0,1-.229.207c-.047,0-.1,0-.149,0A9.129,9.129,0,0,0,.385,3.022.221.221,0,0,1,.215,3.095Z" transform="translate(0 0)" fill="#161615"/></g></g><g transform="translate(49.5 47.112)"><path d="M188.085,119.688c-.139,0-.277-.005-.416-.014a15.286,15.286,0,0,1-3.6-.283c-1.4-.546-1.188.239-1.586-3.3-.048-1.3-.317-2.628.546-2.44a31.39,31.39,0,0,0,5.422,1.108c-.522-6.393-7.629-15.16-10.344-18.021a2.44,2.44,0,0,1,3.5-3.4c1.163,1.22,11.068,11.869,11.719,21.193a4.455,4.455,0,0,1-1.583,3.98l-.175.131A6.338,6.338,0,0,1,188.085,119.688Z" transform="translate(-167.996 -86.304) rotate(1)"/><g transform="translate(0 0)"><path d="M12.947,4.323c.069.113.145.222.211.331a6.222,6.222,0,0,1-.138,6.166c-.7,1.374-1.6,3.377-3.083,4.057-2.054.949-4.526-.807-4.839-2.9-.2-1.429-.058-2.967-.818-4.275A3.5,3.5,0,0,0,2.35,6.25C.408,5.552-1.159,2.556,1.15,1.2A6.5,6.5,0,0,1,4.807.019C7.723.357,11.159,1.717,12.947,4.323Z" transform="translate(0.224 0.215)" fill="#f4cea6"/><path d="M8.871,15.579a4.122,4.122,0,0,1-3.763-3.352c-.062-.414-.095-.847-.124-1.269a6.65,6.65,0,0,0-.665-2.927A3.373,3.373,0,0,0,2.5,6.668,4.007,4.007,0,0,1,.011,3.545,2.353,2.353,0,0,1,1.258,1.233,6.781,6.781,0,0,1,5.061.019c2.774.32,6.409,1.651,8.289,4.4.08.113.149.225.222.338a6.415,6.415,0,0,1-.131,6.38l-.2.382c-.694,1.4-1.567,3.127-2.988,3.781A3.1,3.1,0,0,1,8.871,15.579ZM4.784.437a6.829,6.829,0,0,0-3.3,1.174A1.884,1.884,0,0,0,.451,3.505a3.535,3.535,0,0,0,2.2,2.748A3.8,3.8,0,0,1,4.7,7.806a7.16,7.16,0,0,1,.723,3.127c.025.407.058.829.116,1.232a3.659,3.659,0,0,0,3.345,2.974,2.683,2.683,0,0,0,1.189-.244c1.28-.593,2.109-2.247,2.781-3.574l.189-.385A5.988,5.988,0,0,0,13.2,4.981l-.2-.324C11.194,2.037,7.689.764,5.01.451,4.933.444,4.861.441,4.784.437Z" fill="#161615"/><path d="M8.265,6.47a.222.222,0,0,1-.211-.193c0-.029-.527-3.37-2.89-4.475C2.1.366,1,.315.627.526A.373.373,0,0,0,.441.832a.227.227,0,0,1-.247.193A.22.22,0,0,1,0,.777.813.813,0,0,1,.416.141c.7-.385,2.265.015,4.937,1.262,2.578,1.2,3.116,4.675,3.137,4.817a.22.22,0,0,1-.189.247Z" transform="translate(0.093 3.186)" fill="#161615"/><path d="M8.707,3.988a.237.237,0,0,1-.149-.062C8.518,3.886,3.937-.411.283.6A.235.235,0,0,1,.007.447.227.227,0,0,1,.159.171C4.06-.9,8.67,3.424,8.863,3.61a.213.213,0,0,1,0,.313A.235.235,0,0,1,8.707,3.988Z" transform="translate(0.698 1.535)" fill="#161615"/><g transform="translate(2.868 0.128)"><path d="M7.435,3.007A9.26,9.26,0,0,0,.92,0C-3.116-.032,7.435,3.007,7.435,3.007Z" transform="translate(0 0.214)" fill="#f4cea6"/><path d="M6.733,3.436a.209.209,0,0,1-.156-.076A9.171,9.171,0,0,0,.36.44c-.047,0-.105,0-.142,0A.223.223,0,0,1,0,.215.214.214,0,0,1,.222,0,9.38,9.38,0,0,1,6.908,3.079a.2.2,0,0,1-.025.3A.169.169,0,0,1,6.733,3.436Z" transform="translate(0.698 0)" fill="#161615"/></g></g></g></g></g><path d="M7.186,4.731a1.006,1.006,0,0,0-.971.874H4.889A1.134,1.134,0,0,0,4.7,5.152L6.281,3.534A.7.7,0,0,0,7.219,3.4a.738.738,0,0,0-.032-.971.7.7,0,0,0-.938-.065.745.745,0,0,0-.162.971L4.5,4.957a1.134,1.134,0,0,0-.453-.194V1.949a.98.98,0,0,0,.841-1.1A.933.933,0,0,0,3.822.008,1.018,1.018,0,0,0,2.981,1.14a1,1,0,0,0,.841.841V4.763a1.134,1.134,0,0,0-.453.194L2.107,3.663a.455.455,0,0,0-.194-.582c-.032,0-.032,0-.065-.032a.406.406,0,0,0-.518.129.436.436,0,0,0,.032.518.4.4,0,0,0,.518.1L3.142,5.119a1.1,1.1,0,0,0-.065,1.132L1.072,8.322a.631.631,0,0,0-.906.1A.738.738,0,0,0,.2,9.39a.7.7,0,0,0,.938.065A.745.745,0,0,0,1.3,8.484L3.272,6.446a.986.986,0,0,0,.518.259V8.452a.713.713,0,0,0-.55.776.7.7,0,0,0,1.391,0,.713.713,0,0,0-.55-.776V6.7a1.135,1.135,0,0,0,.453-.194L5.8,7.8A.41.41,0,0,0,5.763,8a.421.421,0,1,0,.421-.421.41.41,0,0,0-.194.032L4.728,6.316a1.134,1.134,0,0,0,.194-.453H6.248a1.024,1.024,0,0,0,1.068.874A1.017,1.017,0,0,0,8.189,5.6,1.039,1.039,0,0,0,7.186,4.731Z" transform="translate(46.57 9.433)" fill="#ffeacc"/></g></g></g></svg>