<svg xmlns="http://www.w3.org/2000/svg" xmlns:xlink="http://www.w3.org/1999/xlink" width="298.22" height="68.961" viewBox="0 0 298.22 68.961"><defs><clipPath id="a"><path d="M32.311,0A32.311,32.311,0,1,1,0,32.311,32.311,32.311,0,0,1,32.311,0Z" transform="translate(0)" fill="#fff"/></clipPath></defs><g transform="translate(-40.84 -52.439)"><g transform="translate(121.135 72.831)"><path d="M15.5-38.267c1.6-.215,2.393-1.227,2.393-2.976a1.645,1.645,0,0,0-1.933-1.841l-3.59.338c1.135-7.057,1.688-11.015,1.718-11.874.031-1.994-.767-2.946-3.344-2.946a5.392,5.392,0,0,0-2.854.491,2.767,2.767,0,0,0-.828,2.086c-.031,1.258.4,1.872,1.35,1.872h.092c-.828,5.124-1.35,8.867-1.534,11.23-.215,2.485.338,3.406,2.271,3.651a23.547,23.547,0,0,0,3.406.153A26.384,26.384,0,0,0,15.5-38.267Zm11.107-2.025c0-1.381-.368-2.056-1.074-2.056a2.658,2.658,0,0,0-.982.184,24.146,24.146,0,0,0,1.381-6.689c.031-2.455-.859-3.651-3.406-3.651a6.2,6.2,0,0,0-2.7.46,2.062,2.062,0,0,0-.859,1.718c-.153,1.319.276,1.994.982,1.994a3.184,3.184,0,0,0,.706-.092l-.338,1.135-.307,1.135-.522,2.025a15.232,15.232,0,0,0-.307,2.485c0,2.363,1.1,3.529,3.344,3.529C25.23-38.113,26.611-38.666,26.611-40.292ZM39.682-33.91q.414-1.979,1.381-8.837c.644-4.6.951-7.272.951-7.978,0-1.442-1.013-1.78-2.854-1.78-1.074,0-1.6.43-1.749,1.81a3.042,3.042,0,0,0-3.13-2.117,5.912,5.912,0,0,0-4.817,2.669,11.312,11.312,0,0,0-2.025,7.088c0,3.5,1.227,5.247,3.651,5.247a5.142,5.142,0,0,0,4.449-2.24,48.377,48.377,0,0,0-1.227,6.566c-.153,1.381.767,1.872,2.117,1.872C38.393-31.608,39.283-32.1,39.682-33.91Zm-6.75-9.358a9.262,9.262,0,0,1,.767-4.05c.522-1.1,1.1-1.657,1.81-1.657a1.051,1.051,0,0,1,.92.675c-.153.8-.307,1.749-.46,2.823-.46,2.056-1.5,3.621-2.332,3.621C33.177-41.857,32.932-42.317,32.932-43.268Zm21.386,5.185q3.636,0,3.774-1.841a3.219,3.219,0,0,0-.4-2.117.672.672,0,0,0-.614-.338,2.39,2.39,0,0,0-.951.184c.338-1.227.675-2.823,1.013-4.817a29.765,29.765,0,0,0,.552-3.713c0-1.442-.89-1.78-2.577-1.78-1.964,0-2.547.368-2.792,2.117-.767,5.676-1.473,8.407-3.1,8.407q-.782,0-.46-1.473l1.1-5.093q.874-3.958-2.854-3.958a9.85,9.85,0,0,0-2.884.338c-.552.184-.89.706-1.043,1.534-.245,1.5.153,2.271.89,2.271.092,0,.307-.031.583-.061a31.944,31.944,0,0,0-1.442,7.18c0,2.209,1.258,3.437,3.252,3.437a5.1,5.1,0,0,0,4.756-2.639C51.4-38.88,52.446-38.083,54.318-38.083ZM66.9-40.292c0-1.381-.368-2.056-1.074-2.056a2.658,2.658,0,0,0-.982.184,24.145,24.145,0,0,0,1.381-6.689c.031-2.455-.859-3.651-3.406-3.651a6.2,6.2,0,0,0-2.7.46,2.062,2.062,0,0,0-.859,1.718c-.153,1.319.276,1.994.982,1.994a3.184,3.184,0,0,0,.706-.092l-.338,1.135L60.3-46.152l-.522,2.025a15.231,15.231,0,0,0-.307,2.485c0,2.363,1.1,3.529,3.344,3.529C65.517-38.113,66.9-38.666,66.9-40.292Zm12.151,2.179c2.608,0,3.9-.675,3.9-2.025q0-2.209-1.013-2.209a3.19,3.19,0,0,0-.89.153C82.424-48.576,83.1-53.056,83.1-55.6c0-2.577-.89-3.651-3.59-3.651-2.731,0-3.59.46-3.5,2.393.092,1.319.46,1.749,1.78,1.626-.184,1.381-.368,2.608-.583,3.713a3,3,0,0,0-2.669-1.289,5.832,5.832,0,0,0-4.848,2.823A11.528,11.528,0,0,0,67.7-43.176c0,3.651,1.2,5.37,3.8,5.37a4.873,4.873,0,0,0,4.664-3.16C76.226-39.064,77.177-38.113,79.048-38.113Zm-5.891-5.4a9.751,9.751,0,0,1,.706-3.621c.491-1.2,1.166-1.78,1.994-1.78q.506,0,.828.644l-.46,2.823c-.368,1.933-1.258,3.59-2.332,3.59Q73.157-41.857,73.157-43.514Zm18.717,3.222c0-1.381-.368-2.056-1.074-2.056a2.658,2.658,0,0,0-.982.184A24.146,24.146,0,0,0,91.2-48.852c.031-2.455-.859-3.651-3.406-3.651a6.2,6.2,0,0,0-2.7.46,2.062,2.062,0,0,0-.859,1.718c-.153,1.319.276,1.994.982,1.994a3.184,3.184,0,0,0,.706-.092l-.338,1.135-.307,1.135-.522,2.025a15.232,15.232,0,0,0-.307,2.485c0,2.363,1.1,3.529,3.344,3.529C90.493-38.113,91.874-38.666,91.874-40.292Zm8.653,1.565a1.422,1.422,0,0,0,.859-1.411c0-1.442-.491-2.485-1.319-2.485a6.19,6.19,0,0,0-1.6.276l1.043-6.29h1.074c1.1,0,1.626-1.2,1.626-2.516,0-1.013-.307-1.35-1.289-1.35h-.736a7.217,7.217,0,0,0,.583-2.577c0-1.1-.522-1.534-1.657-1.534a4.072,4.072,0,0,0-2.7.859c-.675.552-1.043,1.626-1.1,3.252h-.245c-1.227,0-1.9.859-1.994,2.608a1.056,1.056,0,0,0,1.166,1.258A33.522,33.522,0,0,0,93.163-41.8c0,2.455,1.35,3.682,4.02,3.682A7.747,7.747,0,0,0,100.527-38.727Zm13.961,1.534a42.924,42.924,0,0,0,1.5-6.5,41.423,41.423,0,0,0,.859-7.026c0-1.442-.89-1.78-2.639-1.78a3.31,3.31,0,0,0-1.9.4,2.807,2.807,0,0,0-.736,1.718c-.276,1.872-.491,3.222-.644,4.02-.583,2.792-1.35,4.173-2.3,4.173-.583,0-.736-.491-.522-1.473l1.074-4.879q.874-3.958-2.946-3.958a8.988,8.988,0,0,0-2.577.307c-.644.215-1.013.8-1.166,1.749-.184,1.381.123,2.086.951,2.086a2.49,2.49,0,0,0,.522-.031,23.589,23.589,0,0,0-1.411,6.842c0,2.455,1.227,3.621,3.283,3.621a4.817,4.817,0,0,0,4.265-2.3,14.612,14.612,0,0,1-1.473,4.112,2.155,2.155,0,0,1-1.841,1.258,3.062,3.062,0,0,1-2.179-1.411q-1.519-1.887-2.854,0a3.991,3.991,0,0,0-.736,2.884c.153,1.258,2.271,2.086,5,2.086C110.192-31.3,112.892-32.9,114.488-37.193ZM132.5-38.236c1.381-.245,1.841-1.227,1.933-2.915.031-1.074-.522-1.657-1.289-1.626-.522.031-1.35.061-2.485.153L128.2-42.5l.46-3.375a14.5,14.5,0,0,0,3.437.061c.982-.123,1.473-.982,1.473-2.547,0-1.043-.491-1.565-1.442-1.565-1.258,0-2.24,0-2.915.031l.4-3.1H133.3c1.872,0,2.577-.89,2.669-2.976.031-1.135-.583-1.473-1.718-1.565-.951-.061-2.393-.092-4.388-.092s-3.59.031-4.848.123c-1.749.276-1.872,1.289-1.9,2.639-.031,1.074.4,1.688,1.319,1.841l-1.411,11.169q-.414,3.314,2.025,3.59A28.893,28.893,0,0,0,132.5-38.236Zm14.912-.614a1.519,1.519,0,0,0,.675-1.35,3.347,3.347,0,0,0-.368-1.442c-.245-.522-.552-.767-.89-.767a3.009,3.009,0,0,0-.951.215L144.8-45.048c2.485-2.24,3.866-4.2,4.081-5.922.153-1.1-.675-1.534-2.025-1.534-1.565,0-2.086.338-2.424,1.841a18.888,18.888,0,0,1-.828,2.393c-1.2-3.068-2.3-4.234-4.265-4.234a6.529,6.529,0,0,0-2.271.307,1.973,1.973,0,0,0-1.1,1.688c-.153,1.135.123,2.148.89,2.148a4.834,4.834,0,0,0,.859-.092c.43,1.043.828,2.056,1.166,3.007a10.489,10.489,0,0,0-4.081,5.523c-.245,1.2.337,1.81,1.718,1.81a2.892,2.892,0,0,0,1.933-.4,1.948,1.948,0,0,0,.675-.982c.031-.153.153-.522.368-1.166s.368-1.135.522-1.5c1.1,3.038,2.271,4.05,4.572,4.05A5.014,5.014,0,0,0,147.411-38.85Zm7.272.215a3.1,3.1,0,0,0,2.271.8,6.122,6.122,0,0,0,5.032-2.516c1.319-1.688,1.994-4.142,1.994-7.364,0-3.437-1.411-5.093-3.59-5.093a4.322,4.322,0,0,0-4.142,2.823c-.153-1.688-1.2-2.516-3.068-2.516-2.455,0-3.437.338-3.682,1.9-.245,1.442.123,2.24.859,2.24.092,0,.338-.031.706-.061q-2.255,11.828-2.393,14.36c-.092,1.841.522,2.455,2.209,2.455,2.056,0,2.823-.8,3.068-2.516Zm1.074-6.75q.6-3.5,1.841-3.5c.583,0,.89.644.89,1.964a9.222,9.222,0,0,1-.675,3.651c-.46,1.074-1.013,1.6-1.657,1.6a.845.845,0,0,1-.89-.583Zm16.569,5.278a3.935,3.935,0,0,0-.338-1.749.748.748,0,0,0-.675-.46,5.218,5.218,0,0,0-.951.123l.982-5.953c.583-3.529.951-6.106,1.074-7.732.153-2.547-.859-3.375-3.038-3.375a10.217,10.217,0,0,0-2.424.215c-.828.215-1.258,1.013-1.258,2.393,0,.89.368,1.35,1.1,1.35h.4q-2.117,11-2.117,13.623c0,2.363.982,3.559,3.406,3.559C171.037-38.113,172.325-38.788,172.325-40.108Zm9.45-12.7a8.138,8.138,0,0,0-6.259,2.547,8.969,8.969,0,0,0-2.332,6.351c0,3.774,1.9,6.106,5.8,6.106a8.329,8.329,0,0,0,6.167-2.332c1.565-1.565,2.332-3.8,2.332-6.781C187.483-50.479,185.427-52.811,181.776-52.811Zm-3.13,9.2a9.481,9.481,0,0,1,.675-3.529c.46-1.2,1.013-1.78,1.718-1.78.644,0,.982.614.982,1.81a9.532,9.532,0,0,1-.675,3.713c-.46,1.1-1.043,1.657-1.81,1.657C178.953-41.734,178.646-42.348,178.646-43.606Zm15.342,3.621c.245-1.626.491-2.946.736-4.02.552-2.485,1.2-3.743,1.9-3.743a1.369,1.369,0,0,1,.8.338,1.081,1.081,0,0,0,.706.276c.522,0,1.013-.43,1.442-1.258a6.072,6.072,0,0,0,.644-2.823c0-1.013-.46-1.5-1.35-1.5-1.6,0-2.823,1.013-3.713,3.068-.153-1.9-1.135-2.854-2.884-2.854a8.7,8.7,0,0,0-2.669.338q-.967.322-1.1,1.933c-.092,1.258.215,1.872.92,1.872a4.332,4.332,0,0,0,.675-.031A68.677,68.677,0,0,0,188.71-39.8c0,1.319.583,1.718,1.964,1.718C192.76-38.083,193.742-38.42,193.988-39.985Zm17.489-.276a1.366,1.366,0,0,0,.307-.89,2.111,2.111,0,0,0-.675-1.5,1.891,1.891,0,0,0-1.289-.736,1.776,1.776,0,0,0-1.135.552A3.672,3.672,0,0,1,206.2-41.7c-.89,0-1.319-.706-1.319-2.086v-.245a7.1,7.1,0,0,0,5.032-.8,4.369,4.369,0,0,0,2.179-4.02c0-2.455-1.688-3.958-4.357-3.958a7.715,7.715,0,0,0-5.953,2.577,9.222,9.222,0,0,0-2.332,6.474c0,4.02,2.148,5.953,5.707,5.953C207.979-37.806,210.342-38.819,211.477-40.261Zm-4.388-8.9c.491,0,.675.4.522,1.227-.245,1.135-1.074,1.718-2.485,1.78C205.494-47.9,206.2-49.159,207.09-49.159Zm11.537,9.174c.245-1.626.491-2.946.736-4.02.552-2.485,1.2-3.743,1.9-3.743a1.369,1.369,0,0,1,.8.338,1.081,1.081,0,0,0,.706.276c.522,0,1.013-.43,1.442-1.258a6.072,6.072,0,0,0,.644-2.823c0-1.013-.46-1.5-1.35-1.5-1.6,0-2.823,1.013-3.713,3.068-.153-1.9-1.135-2.854-2.884-2.854a8.7,8.7,0,0,0-2.669.338q-.967.322-1.1,1.933c-.092,1.258.215,1.872.921,1.872a4.333,4.333,0,0,0,.675-.031,68.677,68.677,0,0,0-1.381,8.591c0,1.319.583,1.718,1.964,1.718C217.4-38.083,218.381-38.42,218.626-39.985Z" transform="translate(-6.93 59.806)" fill="#272727"/><path d="M232.05-55.31c2.3,0,3.59-1.442,3.59-3.252,0-1.5-.828-2.24-2.516-2.24a3.314,3.314,0,0,0-3.59,3.191A2.209,2.209,0,0,0,232.05-55.31Z" transform="translate(-150.47 60.802)" fill="#3682dd"/><path d="M232.05-55.31c2.3,0,3.59-1.442,3.59-3.252,0-1.5-.828-2.24-2.516-2.24a3.314,3.314,0,0,0-3.59,3.191A2.209,2.209,0,0,0,232.05-55.31Z" transform="translate(-175.801 60.802)" fill="#3682dd"/><path d="M232.05-55.31c2.3,0,3.59-1.442,3.59-3.252,0-1.5-.828-2.24-2.516-2.24a3.314,3.314,0,0,0-3.59,3.191A2.209,2.209,0,0,0,232.05-55.31Z" transform="translate(-215.761 60.802)" fill="#3682dd"/></g><g transform="translate(-868.16 -241.561)"><g transform="translate(909 294)"><g transform="translate(0 0)"><circle cx="33.795" cy="33.795" r="33.795" transform="translate(0.685 0.685)" fill="#fff"/><path d="M-5.565,43.459A34.52,34.52,0,0,1-40.046,8.978,34.519,34.519,0,0,1-5.565-25.5a34.519,34.519,0,0,1,34.48,34.48A34.519,34.519,0,0,1-5.565,43.459Zm0-67.591A33.148,33.148,0,0,0-38.676,8.978,33.148,33.148,0,0,0-5.565,42.089,33.148,33.148,0,0,0,27.545,8.978,33.147,33.147,0,0,0-5.565-24.132Z" transform="translate(40.046 25.502)"/></g><g transform="translate(1.814 3.179)"><g transform="translate(0 0)"><g transform="translate(0 0)" clip-path="url(#a)"><g transform="matrix(1, -0.017, 0.017, 1, 2.797, 1.275)"><g transform="translate(0 0)"><g transform="translate(0 20.888)"><path d="M58.224,9.97c-.017-.144-.045-.281-.072-.418l0,0C56.981,4.62,44.6.443,29.382.033,14.675-.363,2.427,2.894.325,7.5l0,0a3.439,3.439,0,0,0-.192.528c-.017.067-.037.134-.052.2s-.027.115-.037.174A3.3,3.3,0,0,0,0,8.827c-.142,5.287,12.779,9.927,28.865,10.36s29.238-3.5,29.38-8.791C58.246,10.254,58.237,10.112,58.224,9.97Z" transform="translate(0.152 0.151)" fill="#b2a35a"/><path d="M29.013,19.492C12.87,19.054-.143,14.337,0,8.97a2.416,2.416,0,0,1,.047-.433c.007-.065.02-.127.032-.184A1.545,1.545,0,0,1,.133,8.16a4.147,4.147,0,0,1,.2-.57c2.149-4.7,14.7-7.947,29.2-7.559,15.277.413,27.709,4.55,28.912,9.633a4.163,4.163,0,0,1,.075.433,3.475,3.475,0,0,1,.025.456C58.406,15.918,45.151,19.926,29.013,19.492ZM29.529.333C15.138-.053,2.711,3.115.609,7.71a4.447,4.447,0,0,0-.184.508C.4,8.3.39,8.357.377,8.412a1.545,1.545,0,0,0-.032.169,2.914,2.914,0,0,0-.045.4c-.137,5.2,12.744,9.778,28.718,10.211S58.1,15.742,58.247,10.544a2.774,2.774,0,0,0-.02-.411,3.784,3.784,0,0,0-.072-.4C57,4.863,44.427.736,29.529.333Z" transform="translate(0 0)" fill="#161615"/></g><path d="M58.224,9.97c-.017-.144-.045-.281-.072-.418l0,0C56.981,4.62,44.6.443,29.382.033,14.675-.363,2.427,2.894.325,7.5l0,0a3.439,3.439,0,0,0-.192.528c-.017.067-.037.134-.052.2s-.027.115-.037.174A3.3,3.3,0,0,0,0,8.827c-.142,5.287,12.779,9.927,28.865,10.36s29.238-3.5,29.38-8.791C58.246,10.254,58.237,10.112,58.224,9.97Z" transform="translate(0.152 21.039)" fill="#89553d" style="mix-blend-mode:multiply;isolation:isolate"/><g transform="translate(3.898 8.748)"><g transform="translate(7.183 41.361)"><g transform="translate(0.08 0)"><path d="M13.061,1.245A3.715,3.715,0,0,0,10.752.117,14.586,14.586,0,0,0,8.177.01c-3.726.082-6.936.2-6.936.2S-1.117,4.67.668,8.582c1.058-.1,2.117-.237,3.168-.386A25.185,25.185,0,0,0,9.148,7.09,7.525,7.525,0,0,0,12.4,4.782a3.8,3.8,0,0,0,1.016-2.717A1.866,1.866,0,0,0,13.061,1.245Z" transform="translate(0.144 0.15)" fill="#3682dd"/><path d="M.812,8.881a.142.142,0,0,1-.134-.087c-1.8-3.933.55-8.463.575-8.51A.148.148,0,0,1,1.38.209c.032,0,3.253-.117,6.939-.2.386-.01.834-.02,1.27,0a9.4,9.4,0,0,1,1.332.115,3.787,3.787,0,0,1,2.4,1.183,1.941,1.941,0,0,1,.386.879,3.772,3.772,0,0,1-1.048,2.839,7.655,7.655,0,0,1-3.31,2.361A23.576,23.576,0,0,1,4.418,8.44L4,8.5c-1.083.152-2.152.284-3.173.384ZM1.477.5C1.185,1.1-.623,5.073.9,8.57c.984-.1,2.01-.227,3.056-.371l.418-.062A22.8,22.8,0,0,0,9.24,7.1a7.382,7.382,0,0,0,3.183-2.261,3.49,3.49,0,0,0,.984-2.6,1.658,1.658,0,0,0-.321-.747A3.621,3.621,0,0,0,10.871.419a9.606,9.606,0,0,0-1.29-.11c-.428-.015-.874,0-1.258,0C4.983.389,2.025.486,1.477.5Z" transform="translate(0 0)" fill="#161615"/></g><path d="M8.149,2.045A1.866,1.866,0,0,0,7.8,1.225,3.715,3.715,0,0,0,5.487.1,10.626,10.626,0,0,0,4.4,0,15.906,15.906,0,0,0,1.925,3.693,33.714,33.714,0,0,0,0,7.972a18.873,18.873,0,0,0,3.883-.9,7.525,7.525,0,0,0,3.25-2.309A3.8,3.8,0,0,0,8.149,2.045Z" transform="translate(5.49 0.169)" fill="#b2a35a" style="mix-blend-mode:multiply;isolation:isolate"/><g transform="translate(0 0.266)"><path d="M2.81,0C1.836.03,1.241.052,1.241.052S-1.117,4.513.668,8.428c.64-.065,1.283-.139,1.923-.222C3.774,5.771,4.2,2.137,2.81,0Z" transform="translate(0.147 0.15)" fill="#3682dd"/><path d="M.81,8.727A.15.15,0,0,1,.678,8.64C-1.123,4.7,1.231.174,1.253.132A.157.157,0,0,1,1.38.05S1.978.03,2.954,0a.155.155,0,0,1,.132.067c1.444,2.219.986,5.885-.214,8.356a.146.146,0,0,1-.117.082c-.737.092-1.35.164-1.925.222ZM1.48.346c-.291.6-2.1,4.57-.573,8.069.525-.052,1.076-.117,1.731-.2C3.734,5.905,4.177,2.4,2.877.3,2.17.324,1.674.341,1.48.346Z" transform="translate(0 0)" fill="#161615"/></g><g transform="translate(0.08 0.204)"><path d="M.758,8.366A7.654,7.654,0,0,0,1.5,6.625a16.3,16.3,0,0,0,.364-2.468C1.953,2.8,2.04,1.178,1.273,0a.111.111,0,0,1-.032,0S-1.117,4.463.668,8.376C.7,8.371.726,8.371.758,8.366Z" transform="translate(0.144 0.152)" fill="#3682dd"/><path d="M.812,8.677A.142.142,0,0,1,.677,8.59c-1.8-3.933.55-8.463.575-8.51A.154.154,0,0,1,1.39,0h0a.234.234,0,0,1,.152.07c.819,1.26.7,2.989.613,4.251A16.581,16.581,0,0,1,1.786,6.8,6.484,6.484,0,0,1,1.136,8.4l-.1.189a.156.156,0,0,1-.115.082l-.095.01Zm.6-8.239C.991,1.357-.5,5,.862,8.263l0-.007a6.022,6.022,0,0,0,.623-1.522A16.481,16.481,0,0,0,1.853,4.3,7.284,7.284,0,0,0,1.414.438Z" transform="translate(0 0)" fill="#161615"/></g></g><g transform="translate(27.109 71.096)"><path d="M4.859,30.876A.294.294,0,0,1,4.57,30.6C3.569,17.614.043.535.005.365A.307.307,0,0,1,.237.007.307.307,0,0,1,.6.238C.63.41,4.164,17.527,5.168,30.553a.3.3,0,0,1-.279.324Z" transform="translate(0 0)" fill="#161615"/></g><path d="M.291,31.589A.3.3,0,0,1,0,31.282C.187,21.375,3.432.465,3.464.256A.3.3,0,0,1,3.811,0a.3.3,0,0,1,.252.344C4.027.557.792,21.43.6,31.292a.3.3,0,0,1-.306.3Z" transform="translate(13.484 68.922)" fill="#161615"/><g transform="translate(10.352 64.122)"><path d="M3.372,11.92a30.384,30.384,0,0,0,7.88,1L12.3,8.709l1.034,4.172a34.494,34.494,0,0,0,6.523-.857,23.323,23.323,0,0,0,4.812-1.44C24.091,5.95,23.637,1.865,23.627.6L1.387,0S1.173,1.808.919,4.513C.682,7.026.369,8.52,0,10.973,1.136,11.382,2.391,11.646,3.372,11.92Z" transform="translate(0.153 0.152)" fill="#b2a35a"/><path d="M10.606,13.2a29.415,29.415,0,0,1-7.123-.984c-.3-.082-.628-.167-.969-.254C1.755,11.77.893,11.551.1,11.267A.151.151,0,0,1,0,11.1c.107-.7.207-1.325.3-1.918C.547,7.713.754,6.44.923,4.65c.252-2.675.466-4.5.466-4.518A.156.156,0,0,1,1.543,0L23.786.6A.148.148,0,0,1,23.93.75c.007,1.106.356,4.458,1.036,9.969a.152.152,0,0,1-.082.157,21.613,21.613,0,0,1-4.358,1.34l-.486.11a34.533,34.533,0,0,1-6.553.857.14.14,0,0,1-.149-.112l-.884-3.581-.9,3.614a.147.147,0,0,1-.149.112C11.136,13.212,10.87,13.2,10.606,13.2ZM.32,11.023c.745.264,1.554.468,2.269.648.344.09.675.172.979.257a28.872,28.872,0,0,0,7.046.971c.224.007.446.015.672.015l1.021-4.087a.149.149,0,0,1,.147-.115.17.17,0,0,1,.147.115l1,4.05a34.215,34.215,0,0,0,6.373-.842l.486-.115a21.637,21.637,0,0,0,4.2-1.27C24.01,5.412,23.664,2.134,23.631.9L1.673.306c-.055.468-.239,2.117-.451,4.371C1.052,6.48.846,7.758.6,9.235.512,9.79.417,10.373.32,11.023Z" transform="translate(0 0)" fill="#161615"/></g><path d="M6.647,3.218c3.86.926,8.107,1.925,12.084,1.342a23.543,23.543,0,0,1,1.034,4.53c.1.854.2,1.711.314,2.565a16.478,16.478,0,0,0,3.24-1.071C22.743,5.95,22.29,1.865,22.28.6L.04,0S.025.11,0,.311A19.216,19.216,0,0,0,6.647,3.218Z" transform="translate(11.853 64.273)" fill="#b2a35a" style="mix-blend-mode:multiply;isolation:isolate"/><path d="M2.413.887A14.347,14.347,0,0,1,0,0,24.168,24.168,0,0,0,3.659,1.928,12.885,12.885,0,0,1,3.086,5.6q1.244.086,2.513.1L6.647,1.494A40.673,40.673,0,0,1,2.413.887Z" transform="translate(16.159 71.488)" fill="#b2a35a" style="mix-blend-mode:multiply;isolation:isolate"/><g transform="translate(30.954 64.64)"><path d="M.87,3.631A5.373,5.373,0,0,0,3.552,5.783c-.309-2.715-.52-4.849-.525-5.7L0,0A6.814,6.814,0,0,0,.87,3.631Z" transform="translate(0.152 0.152)" fill="#b2a35a"/><path d="M3.7,6.087a.072.072,0,0,1-.04-.007A5.541,5.541,0,0,1,.892,3.86,6.974,6.974,0,0,1,0,.152a.151.151,0,0,1,.05-.11A.144.144,0,0,1,.16,0L3.184.085a.148.148,0,0,1,.144.147c0,.78.184,2.69.525,5.688a.14.14,0,0,1-.055.132A.124.124,0,0,1,3.7,6.087ZM.3.309a6.6,6.6,0,0,0,.844,3.4,5.4,5.4,0,0,0,2.378,2c-.309-2.7-.473-4.49-.5-5.332Z" transform="translate(0 0)" fill="#161615"/></g><g transform="translate(11.139 64.122)"><path d="M1.967,4.822A5.3,5.3,0,0,0,3.925.087L.6,0S.386,1.808.132,4.513C.092,4.949.047,5.347,0,5.736A8.319,8.319,0,0,0,1.967,4.822Z" transform="translate(0.153 0.152)" fill="#b2a35a"/><path d="M.148,6.037A.208.208,0,0,1,.056,6,.147.147,0,0,1,0,5.868c.047-.386.09-.787.134-1.218C.387,1.975.6.152.6.132A.156.156,0,0,1,.756,0l3.33.092A.151.151,0,0,1,4.23.232,5.468,5.468,0,0,1,2.206,5.1,8.44,8.44,0,0,1,.2,6.027ZM.886.306C.831.775.646,2.423.435,4.677c-.035.346-.067.677-.1.991a8.162,8.162,0,0,0,1.711-.822A5.109,5.109,0,0,0,3.936.391Z" transform="translate(0 0)" fill="#161615"/></g><g transform="translate(26.699 41.394)"><g transform="translate(0 0)"><path d="M.4,1.18A3.682,3.682,0,0,1,2.731.087,14.84,14.84,0,0,1,5.308.027c3.723.147,6.929.319,6.929.319s2.279,4.5.426,8.386c-1.053-.125-2.112-.274-3.16-.443a25.209,25.209,0,0,1-5.29-1.2A7.556,7.556,0,0,1,1,4.727a3.8,3.8,0,0,1-.969-2.74A1.826,1.826,0,0,1,.4,1.18Z" transform="translate(0.151 0.149)" fill="#3682dd"/><path d="M12.808,9.03H12.8c-1-.117-2.035-.262-3.165-.443l-.438-.072A22.692,22.692,0,0,1,4.306,7.379a7.628,7.628,0,0,1-3.27-2.413,3.8,3.8,0,0,1-1-2.857,1.96,1.96,0,0,1,.4-.872A3.8,3.8,0,0,1,2.859.091,12.336,12.336,0,0,1,4.921.009c.182,0,.364.01.54.017,3.683.144,6.9.314,6.936.316a.153.153,0,0,1,.127.082c.022.047,2.289,4.612.423,8.518A.151.151,0,0,1,12.808,9.03ZM4.914.311A12.241,12.241,0,0,0,2.9.385,3.63,3.63,0,0,0,.675,1.421a1.668,1.668,0,0,0-.344.74,3.528,3.528,0,0,0,.944,2.62A7.308,7.308,0,0,0,4.418,7.1,22.566,22.566,0,0,0,9.237,8.215l.438.072c1.088.177,2.087.316,3.048.431,1.591-3.479-.149-7.474-.433-8.079C11.745.612,8.791.46,5.451.326Z" fill="#161615"/></g><path d="M5.592,4.279A27.491,27.491,0,0,0,2.452,0,3.42,3.42,0,0,0,.4,1.041a1.826,1.826,0,0,0-.371.807A3.8,3.8,0,0,0,1,4.587a7.556,7.556,0,0,0,3.21,2.363,16.378,16.378,0,0,0,3.061.824C6.76,6.587,6.212,5.412,5.592,4.279Z" transform="translate(0.151 0.288)" fill="#b2a35a" style="mix-blend-mode:multiply;isolation:isolate"/><g transform="translate(9.499 0.238)"><path d="M1.384,8.254c.59.082,1.185.164,1.778.234C5.015,4.6,2.736.1,2.736.1S1.941.06.681,0C-.519,2.483-.038,5.771,1.384,8.254Z" transform="translate(0.153 0.155)" fill="#3682dd"/><path d="M3.31,8.792H3.3c-.6-.07-1.188-.149-1.783-.234A.178.178,0,0,1,1.4,8.483,9.366,9.366,0,0,1,.695.085.148.148,0,0,1,.837,0L2.9.1a.153.153,0,0,1,.127.082C3.048.234,5.314,4.8,3.449,8.7A.151.151,0,0,1,3.31,8.792ZM1.628,8.269c.531.072,1.063.149,1.6.212C4.816,5,3.075,1.006,2.792.4L.926.309A9.052,9.052,0,0,0,1.628,8.269Z" transform="translate(0 0)" fill="#161615"/></g><g transform="translate(11.507 0.341)"><path d="M1.069,8.376a7.077,7.077,0,0,1-.7-1.758A16.474,16.474,0,0,1,.038,4.154,6.894,6.894,0,0,1,.7,0L.73,0s2.279,4.5.426,8.386Z" transform="translate(0.15 0.149)" fill="#3682dd"/><path d="M1.3,8.689h-.02l-.092-.017a.139.139,0,0,1-.107-.082L.988,8.4A6.637,6.637,0,0,1,.363,6.8,16.585,16.585,0,0,1,.041,4.311c-.067-1.265-.159-3,.685-4.244A.136.136,0,0,1,.863,0a.16.16,0,0,1,.154.082C1.04.132,3.306,4.7,1.441,8.6A.151.151,0,0,1,1.3,8.689ZM.848.438A7.316,7.316,0,0,0,.338,4.293,17.067,17.067,0,0,0,.661,6.736a6.248,6.248,0,0,0,.6,1.529l0,.01C2.686,5.028,1.257,1.362.848.438Z" transform="translate(0 0)" fill="#161615"/></g></g><g transform="translate(10.963 38.111)"><path d="M5.751,28.084a36.513,36.513,0,0,0,8.012.535c3.128-.219,6.884-.321,10.079-1.44C22.977,11.719,17.732,2.086,14.664.529c-3.345-1.7-6.211,1.233-6.211,1.233C2.219,9.515.463,19.766,0,26.047,1.325,27.469,4.03,27.823,5.751,28.084Z" transform="translate(0.152 0.152)" fill="#3682dd"/><path d="M11.6,28.969h0a47.8,47.8,0,0,1-5.721-.583l-.207-.035C3.95,28.095,1.348,27.706.043,26.3A.157.157,0,0,1,0,26.187C.516,19.246,2.4,9.391,8.488,1.82A6.338,6.338,0,0,1,12.791,0a4.834,4.834,0,0,1,2.092.545c1.728.874,3.828,4.01,5.487,8.189a59.328,59.328,0,0,1,3.776,18.589.144.144,0,0,1-.1.144,33.461,33.461,0,0,1-8.849,1.367c-.431.027-.857.06-1.265.085A22.227,22.227,0,0,1,11.6,28.969ZM.307,26.142c1.255,1.293,3.751,1.666,5.412,1.915l.209.032a47.6,47.6,0,0,0,5.678.58h0c.807.02,1.576,0,2.3-.047.416-.027.839-.057,1.273-.082a34.078,34.078,0,0,0,8.662-1.315C22.928,11.361,17.476,2.2,14.749.814A4.548,4.548,0,0,0,12.784.3,6.167,6.167,0,0,0,8.712,2.019C2.707,9.493.822,19.251.307,26.142Z" transform="translate(0 0)" fill="#161615"/></g><path d="M2.864,9.514A116.257,116.257,0,0,1,5.325,27.791a21.873,21.873,0,0,0,4.284-.954C8.744,11.377,3.5,1.743.431.187A3.757,3.757,0,0,0,0,0,56.779,56.779,0,0,1,2.864,9.514Z" transform="translate(25.349 38.606)" fill="#b2a35a" style="mix-blend-mode:multiply;isolation:isolate"/><g transform="translate(17.156 39.132)"><path d="M2.14,0,0,3.249,5.054,4.5l1.07-2.612L7.4,4.567l4.911-1.308L10.529.433Z" transform="translate(0.146 0.149)" fill="#3682dd"/><path d="M7.543,4.867a.15.15,0,0,1-.132-.087L6.283,2.416l-.944,2.3a.152.152,0,0,1-.177.087L.114,3.547a.145.145,0,0,1-.1-.092.165.165,0,0,1,.012-.137L2.164.07A.129.129,0,0,1,2.3,0l8.388.428A.156.156,0,0,1,10.8.5l1.781,2.822a.132.132,0,0,1,.015.134.167.167,0,0,1-.1.095L7.585,4.864ZM.393,3.3,5.107,4.475,6.131,1.982a.153.153,0,0,1,.134-.092.164.164,0,0,1,.142.087L7.63,4.54l4.592-1.23L10.591.727,2.368.306Z" transform="translate(0 0)" fill="#161615"/></g><g transform="translate(0 0)"><g transform="translate(1.58 21.472)"><path d="M5.215,7.638C-2.2,7.046-.486-.03,2.884,0a4.73,4.73,0,0,1,3.9,2.224S8.114,4.879,7,6.739a1.642,1.642,0,0,1-1.091.812Z" transform="translate(0.152 0.147)" fill="#f4cea6"/><path d="M5.359,7.937l0,0C1.274,7.609-.086,5.38,0,3.4A3.331,3.331,0,0,1,3.038,0l.09,0A4.831,4.831,0,0,1,7.06,2.294c.06.12,1.362,2.764.217,4.67a1.759,1.759,0,0,1-1.2.882l-.695.085ZM3.12.3,3.035.3A3.029,3.029,0,0,0,.308,3.412c-.087,1.835,1.2,3.905,5.051,4.219l.68-.082a1.494,1.494,0,0,0,.976-.735C8.078,5.043,6.808,2.463,6.8,2.436A4.618,4.618,0,0,0,3.12.3Z" transform="translate(0 0)" fill="#161615"/></g><g transform="translate(39.564 27.046)"><path d="M1.571,6.868C8.861,8.335,9.155,1.06,5.9.166A4.73,4.73,0,0,0,1.549,1.232S-.463,3.416.1,5.515A1.649,1.649,0,0,0,.921,6.6Z" transform="translate(0.155 0.15)" fill="#f4cea6"/><path d="M3.337,7.361h0a9.421,9.421,0,0,1-1.641-.2l-.675-.281A1.792,1.792,0,0,1,.1,5.695c-.575-2.142,1.4-4.324,1.487-4.416A4.965,4.965,0,0,1,4.974,0,4.716,4.716,0,0,1,6.1.169a3.266,3.266,0,0,1,2.05,3.766C7.892,5.648,6.493,7.448,3.337,7.361ZM4.969.3A4.717,4.717,0,0,0,1.811,1.489C1.793,1.5-.134,3.635.4,5.625a1.487,1.487,0,0,0,.735.976l.648.279a9.327,9.327,0,0,0,1.562.179c2.959.08,4.266-1.589,4.5-3.17A2.967,2.967,0,0,0,6.017.457,4.339,4.339,0,0,0,4.969.3Z" transform="translate(0 0)" fill="#161615"/></g><g transform="translate(5.555 1.451)"><path d="M39.529,22.443A19.861,19.861,0,0,1,.191,16.937a19.861,19.861,0,0,1,39.337,5.506Z" transform="translate(0.154 0.151)" fill="#f4cea6"/><path d="M19.54,39.674a20.669,20.669,0,0,1-2.279-.189,19.96,19.96,0,0,1-13.2-7.713,19.617,19.617,0,0,1-3.863-14.7A19.878,19.878,0,0,1,20.484.007,20.62,20.62,0,0,1,22.762.2,19.827,19.827,0,0,1,19.54,39.674ZM20.476.309A19.575,19.575,0,0,0,.492,17.11,19.313,19.313,0,0,0,4.3,31.587a19.675,19.675,0,0,0,13.005,7.6,21.23,21.23,0,0,0,2.246.184A19.525,19.525,0,0,0,22.718.5,21.139,21.139,0,0,0,20.476.309Z" transform="translate(0 0)" fill="#161615"/></g><path d="M22.586.2a19.684,19.684,0,1,0-5.457,38.986A19.684,19.684,0,1,0,22.586.2Zm8.231,33.761c-5.389,4.426-12.866,4.68-19.2,2.147-2.483-.991-5.312-2.939-5.865-5.733C5.187,27.454,7.5,26.02,9.705,24.807a60.108,60.108,0,0,1,7.434-3.459c2.971-1.143,6.231-2.3,9.459-1.706,3.641.67,7.536,4.015,7.641,7.927C34.309,30.039,32.648,32.448,30.817,33.957Z" transform="translate(5.709 1.601)" fill="#f4cea6" style="mix-blend-mode:multiply;isolation:isolate"/><g transform="translate(3.149 23.986)"><g transform="translate(40.134 5.769)"><path d="M.1,2.9A.132.132,0,0,1,0,2.777,3.032,3.032,0,0,1,1.28.265a1.35,1.35,0,0,1,1.173-.2A1.069,1.069,0,0,1,3.016.68a.136.136,0,0,1-.092.162.13.13,0,0,1-.157-.09A.8.8,0,0,0,2.354.3,1.147,1.147,0,0,0,1.4.484,2.8,2.8,0,0,0,.257,2.772.131.131,0,0,1,.127,2.9Z" transform="translate(0 0)" fill="#161615"/><path d="M.658,1.361a.842.842,0,0,1-.443-.239A1.081,1.081,0,0,1,.05.1.124.124,0,0,1,.2,0,.125.125,0,0,1,.3.158.865.865,0,0,0,.4.953a.823.823,0,0,0,.635.179.127.127,0,0,1,.037.252A1.2,1.2,0,0,1,.658,1.361Z" transform="translate(0.486 0.881)" fill="#161615"/></g><g transform="translate(0 0)"><path d="M2.211,3.376a.13.13,0,0,0,.132-.087A3.037,3.037,0,0,0,1.8.517,1.37,1.37,0,0,0,.726,0,1.033,1.033,0,0,0,.019.447a.123.123,0,0,0,.04.172A.13.13,0,0,0,.233.587.79.79,0,0,1,.754.255,1.138,1.138,0,0,1,1.618.7,2.818,2.818,0,0,1,2.1,3.212a.129.129,0,0,0,.085.159Z" fill="#161615"/><path d="M.477,1.184a.836.836,0,0,0,.491-.11A1.1,1.1,0,0,0,1.408.138.129.129,0,0,0,1.289,0a.119.119,0,0,0-.132.117.9.9,0,0,1-.319.74.849.849,0,0,1-.66,0,.122.122,0,0,0-.164.06.121.121,0,0,0,.06.169A1.153,1.153,0,0,0,.477,1.184Z" transform="translate(0.912 1.278)" fill="#161615"/></g></g><path d="M50.021,16.013a59.676,59.676,0,0,0-3.848-4.991,33.513,33.513,0,0,0-4.309-4.368c-.336-.281-.677-.53-1.016-.765A26.513,26.513,0,0,0,33.93,2.084C30.089.67,25.823-.526,21.694.239a14.826,14.826,0,0,0-3.5,1.128c-.087.015-.172.035-.257.052a18.23,18.23,0,0,0-8.351,4.1A38.137,38.137,0,0,0,2.96,13.11C1.954,14.611,1.282,16.253.385,17.8c-.286.5-.4.755-.384.929,3.033,1.26,5.357,4.274,6.552,7.287a7.342,7.342,0,0,0,1.639-.266,6.25,6.25,0,0,1,1.8-4.149c.254-.252-.3,2.7-.179,3.92.453-.057.909-.1,1.37-.147.1-.007.209-.01.316-.015.463-.03,1.748-.144,2.214-.164a10.941,10.941,0,0,1,1.756-5.247c.179-.266-.174,3.561.012,5.272.857-.017,1.711-.03,2.56-.057.493-.007.981-.012,1.469-.022.13-1.245.451-2.476.553-3.733.03-.369.222,2.463.4,3.686,1.838-.022,4.219,0,6.054.037,0-1.342.055-2.682.139-4.022a21.478,21.478,0,0,1,.822,3.995c1.422.047,3.556.184,4.979.279.491.037.979.065,1.469.09,0-.727-.528-3.808-.583-4.66-.015-.274,2.319,2.951,2.413,4.757.61.03,2.214.087,2.822.12.03-1.644-.745-5.34-.59-5.143a8.645,8.645,0,0,1,1.549,5.257c.817.067,1.639.142,2.456.214a7.324,7.324,0,0,0,.954-3.372,7.331,7.331,0,0,1,.819,3.649,8,8,0,0,0,.785.162,5.792,5.792,0,0,1,.817-1.586,10.489,10.489,0,0,1,2.575-2.837,15.6,15.6,0,0,1,4.371-2.326A27.52,27.52,0,0,0,50.021,16.013Z" transform="translate(0.148 0.151)" fill="#343318"/><path d="M6.737,26.326l-.042,0a.157.157,0,0,1-.134-.095A12.8,12.8,0,0,0,.1,19.024.146.146,0,0,1,0,18.9c-.022-.207.08-.463.4-1.019.359-.623.687-1.27,1-1.9a28.1,28.1,0,0,1,1.574-2.812A38.7,38.7,0,0,1,9.641,5.552a18.4,18.4,0,0,1,8.415-4.129l.257-.055A14.988,14.988,0,0,1,21.812.24a15.322,15.322,0,0,1,3.17-.234A29.381,29.381,0,0,1,34.13,2.093a26.665,26.665,0,0,1,6.956,3.828c.369.249.7.506,1.024.765a34.127,34.127,0,0,1,4.328,4.391,60.169,60.169,0,0,1,3.858,5c.164.244.331.488.5.737A20.618,20.618,0,0,1,52.6,19.8a.135.135,0,0,1,0,.12.15.15,0,0,1-.09.085,15.539,15.539,0,0,0-4.328,2.3,10.119,10.119,0,0,0-2.538,2.8l-.072.112a4.769,4.769,0,0,0-.727,1.432.162.162,0,0,1-.172.112,7.929,7.929,0,0,1-.794-.174.153.153,0,0,1-.112-.172,7.857,7.857,0,0,0-.575-3.141,6.662,6.662,0,0,1-.929,2.976.156.156,0,0,1-.142.067l-.351-.032c-.7-.06-1.395-.125-2.1-.182a.149.149,0,0,1-.137-.147,8.837,8.837,0,0,0-1.213-4.744c.03.207.07.448.11.687a29.707,29.707,0,0,1,.443,3.9.062.062,0,0,1,.007.042.161.161,0,0,1-.157.152l-.007,0c-.351-.022-1.031-.05-1.661-.075-.468-.02-.9-.037-1.158-.05a.151.151,0,0,1-.144-.144c-.072-1.365-1.477-3.569-2.07-4.356.05.418.132,1.006.224,1.619.147,1.053.306,2.134.314,2.59a.161.161,0,0,1,.01.047.157.157,0,0,1-.157.152h0l-.01,0c-.491-.027-.981-.055-1.469-.087-2.207-.152-3.88-.247-4.976-.281a.151.151,0,0,1-.147-.139,24.55,24.55,0,0,0-.568-3.143c-.052,1.014-.092,2.077-.09,3.158a.156.156,0,0,1-.042.11.217.217,0,0,1-.11.04c-1.641-.032-4.094-.06-6.047-.035a.143.143,0,0,1-.149-.13c-.095-.618-.187-1.639-.259-2.463-.045.257-.09.516-.134.762-.1.573-.2,1.158-.259,1.741a.157.157,0,0,1-.149.137l-.491.007c-.329,0-.653.01-.979.02-.682.017-1.37.03-2.055.042l-.508.007a.147.147,0,0,1-.149-.132,30.744,30.744,0,0,1,0-3.743c.012-.4.027-.822.032-1.111a10.937,10.937,0,0,0-1.5,4.832.157.157,0,0,1-.144.134c-.289.01-.884.057-1.41.1-.326.027-.628.05-.809.062l-.314.015c-.448.047-.909.095-1.36.147a.125.125,0,0,1-.112-.032.161.161,0,0,1-.06-.1,16.616,16.616,0,0,1,.152-2.6c.037-.371.08-.767.095-1.024a6.2,6.2,0,0,0-1.562,3.845.144.144,0,0,1-.117.139c-.12.025-.244.052-.371.082A5.307,5.307,0,0,1,6.737,26.326ZM.307,18.784a13.184,13.184,0,0,1,6.5,7.24,5.766,5.766,0,0,0,1.131-.184c.087-.017.177-.042.262-.06a6.406,6.406,0,0,1,1.838-4.132.221.221,0,0,1,.137-.057.162.162,0,0,1,.12.057c.1.112.082.359-.035,1.474a19.444,19.444,0,0,0-.164,2.386c.411-.047.814-.09,1.215-.132l.324-.015c.177-.012.476-.037.8-.057.461-.04.971-.08,1.293-.1a10.97,10.97,0,0,1,1.761-5.193.186.186,0,0,1,.259-.025c.087.087.087.259.037,1.671a33.43,33.43,0,0,0-.02,3.556l.369,0c.682-.01,1.37-.02,2.052-.042.326-.01.652-.015.979-.02l.361,0c.057-.548.154-1.093.249-1.629.112-.64.229-1.308.281-1.968.01-.077.085-.172.164-.172.154,0,.154,0,.279,1.382.075.77.157,1.713.242,2.339,1.873-.022,4.169,0,5.773.032,0-1.342.065-2.655.137-3.875a.174.174,0,0,1,.157-.162c.319.012.849,3.218.946,4.02,1.108.037,2.74.13,4.856.279.436.027.869.055,1.308.075-.03-.491-.177-1.517-.311-2.431-.122-.862-.244-1.676-.269-2.062a.2.2,0,0,1,.047-.125.156.156,0,0,1,.12-.047c.366.007,2.349,3.145,2.538,4.774.261.015.633.03,1.024.042.548.022,1.133.05,1.507.067a31.584,31.584,0,0,0-.441-3.736c-.2-1.238-.2-1.275-.122-1.357a.171.171,0,0,1,.244.01,8.55,8.55,0,0,1,1.579,5.218c.657.052,1.308.11,1.965.169l.264.022a7.324,7.324,0,0,0,.879-3.228.19.19,0,0,1,.167-.159.173.173,0,0,1,.139.077,8.329,8.329,0,0,1,.832,3.629c.169.042.341.08.506.112a5.773,5.773,0,0,1,.73-1.387l.072-.11A10.527,10.527,0,0,1,48,22.067a16.053,16.053,0,0,1,4.246-2.3,21.4,21.4,0,0,0-1.7-2.784c-.174-.252-.341-.493-.5-.735a61.615,61.615,0,0,0-3.84-4.983A33.99,33.99,0,0,0,41.913,6.92a11.263,11.263,0,0,0-1-.75,26.24,26.24,0,0,0-6.886-3.793,29.188,29.188,0,0,0-9.05-2.07,14.089,14.089,0,0,0-6.57,1.347l-.284.062A18.094,18.094,0,0,0,9.838,5.782a37.927,37.927,0,0,0-6.6,7.561,26.267,26.267,0,0,0-1.557,2.782c-.319.628-.653,1.28-1.014,1.908A3.23,3.23,0,0,0,.307,18.784Z" fill="#161615"/><path d="M.284,18.511A33.165,33.165,0,0,1,3.723,16.9,36.688,36.688,0,0,1,11.255,14.8a67.167,67.167,0,0,1,15.613-.837,76.869,76.869,0,0,1,24.479,6.109c.316-.132.633-.254.959-.359a27.521,27.521,0,0,0-2.291-3.7,59.675,59.675,0,0,0-3.848-4.991,33.512,33.512,0,0,0-4.309-4.368c-.336-.281-.677-.53-1.016-.765a26.513,26.513,0,0,0-6.919-3.805C30.083.67,25.817-.526,21.687.239a14.826,14.826,0,0,0-3.5,1.128c-.087.015-.172.035-.257.052a18.23,18.23,0,0,0-8.351,4.1,38.137,38.137,0,0,0-6.63,7.591C1.948,14.611,1.275,16.253.379,17.8A2.238,2.238,0,0,0,0,18.686C.095,18.629.187,18.564.284,18.511Z" transform="translate(0.155 0.151)" fill="#343318" style="mix-blend-mode:multiply;isolation:isolate"/><g transform="translate(18.853 35.615)"><g transform="translate(0 0)"><path d="M.235,1.239A.968.968,0,0,1,0,.636c0-.869.874-.66,1.425-.458A12.053,12.053,0,0,0,4.892,1.217,15.849,15.849,0,0,0,8.635.6c.558-.107,1.958-.232,1.756.737A2.377,2.377,0,0,1,9.5,2.482a6.062,6.062,0,0,1-4.137.832A10.047,10.047,0,0,1,1.445,2.2,4.3,4.3,0,0,1,.235,1.239Z" transform="translate(0.152 0.153)" fill="#eea9cc"/><path d="M6.231,3.666c-.244-.007-.483-.025-.73-.05a9.923,9.923,0,0,1-3.98-1.141A4.328,4.328,0,0,1,.267,1.482,1.124,1.124,0,0,1,0,.782.792.792,0,0,1,.212.192c.266-.254.732-.257,1.415,0,.249.095.5.189.737.286a8.639,8.639,0,0,0,2.685.742A8.86,8.86,0,0,0,7.663.849C8.025.762,8.4.672,8.762.6A4.418,4.418,0,0,1,9.6.53a1.233,1.233,0,0,1,.974.354.738.738,0,0,1,.117.635,2.553,2.553,0,0,1-.951,1.24A5.825,5.825,0,0,1,6.231,3.666ZM.8.3a.481.481,0,0,0-.374.11A.525.525,0,0,0,.3.789.882.882,0,0,0,.506,1.3a4.075,4.075,0,0,0,1.166.919,9.8,9.8,0,0,0,3.863,1.1c.237.025.471.04.7.05a5.545,5.545,0,0,0,3.322-.854,2.192,2.192,0,0,0,.829-1.058.425.425,0,0,0-.055-.384A.969.969,0,0,0,9.589.832,3.9,3.9,0,0,0,8.814.9c-.354.072-.725.157-1.078.244a9.236,9.236,0,0,1-2.7.379A8.9,8.9,0,0,1,2.252.752C2.013.657,1.768.563,1.524.473A2.309,2.309,0,0,0,.8.3Z" fill="#161615"/></g><g transform="translate(1.23 1.588)"><path d="M4.214.157A7.161,7.161,0,0,0,0,.484c.077.042.147.09.214.13A10.047,10.047,0,0,0,4.132,1.729a6.628,6.628,0,0,0,3.529-.481A8.89,8.89,0,0,0,4.214.157Z" transform="translate(0.152 0.15)" fill="#e05373"/><path d="M4.984,2.078h0c-.234-.007-.473-.025-.712-.05A9.923,9.923,0,0,1,.292.888C.224.855.152.805.075.761A.148.148,0,0,1,0,.629.139.139,0,0,1,.08.5,5.124,5.124,0,0,1,2.7,0,15.686,15.686,0,0,1,4.386.158a8.919,8.919,0,0,1,3.5,1.108.151.151,0,0,1-.01.266A6.334,6.334,0,0,1,4.984,2.078ZM.468.646A9.815,9.815,0,0,0,4.3,1.729a6.777,6.777,0,0,0,3.178-.349A9.238,9.238,0,0,0,4.344.457,15.661,15.661,0,0,0,2.692.3,5.18,5.18,0,0,0,.468.646Z" transform="translate(0 0)" fill="#161615"/></g><g transform="translate(1.069 0.065)"><path d="M4.573,2.286C6.082,2.334,7.98,2.042,8.328.468a3.594,3.594,0,0,0-.757.07,15.849,15.849,0,0,1-3.743.618A12.053,12.053,0,0,1,.361.117C.252.075.127.035,0,0,.423,1.741,3.014,2.239,4.573,2.286Z" transform="translate(0.147 0.149)" fill="#fff"/><path d="M4.734,2.587H4.712C4.017,2.567.528,2.355.005.186A.155.155,0,0,1,.045.042.144.144,0,0,1,.189.007,3.423,3.423,0,0,1,.56.124c.249.095.493.189.735.286a8.639,8.639,0,0,0,2.685.742A9.075,9.075,0,0,0,6.595.784C6.956.7,7.327.607,7.693.532A4.959,4.959,0,0,1,8.483.465.244.244,0,0,1,8.6.522a.163.163,0,0,1,.027.125C8.333,1.962,6.951,2.647,4.734,2.587ZM.381.383c.553,1.317,2.637,1.85,4.341,1.9l.017.152,0-.149c1.387.035,3.1-.2,3.537-1.519a5.171,5.171,0,0,0-.53.062c-.359.072-.73.157-1.083.244a9.236,9.236,0,0,1-2.7.379A8.9,8.9,0,0,1,1.183.687C.944.592.7.5.456.408A.329.329,0,0,0,.381.383Z" transform="translate(0 0)" fill="#161615"/></g></g><path d="M1.458,1.224c-.117.593-.53,1.014-.924.939s-.62-.62-.5-1.218S.561-.068.95.009,1.57.632,1.458,1.224Z" transform="translate(18.073 25.916)"/><path d="M1.45,1.121c-.017.6-.361,1.081-.76,1.071S-.019,1.676,0,1.069.362-.015.766,0,1.473.516,1.45,1.121Z" transform="translate(30.052 26.221)"/></g></g><g transform="translate(28.799 56.574)"><g transform="translate(0.271 0.822)"><path d="M0,.489l.389,4.22L2.821,5.764,5.815,4.176,5.239,0Z" transform="translate(0.152 0.15)" fill="#3682dd"/><path d="M2.969,6.067l-.055-.015L.479,5a.145.145,0,0,1-.087-.125L0,.653A.154.154,0,0,1,.138.488L5.378,0a.153.153,0,0,1,.164.125l.575,4.182a.151.151,0,0,1-.077.152L3.046,6.05A.429.429,0,0,1,2.969,6.067ZM.683,4.755l2.286.991,2.837-1.5L5.263.312.314.772Z" transform="translate(0 0)" fill="#161615"/></g><g transform="translate(0 0)"><path d="M0,.5.148,2.568,2.872,3.5,6.027,1.955,5.677,0Z" transform="translate(0.148 0.15)" fill="#3682dd"/><path d="M3.019,3.805a.1.1,0,0,1-.047-.01L.247,2.857a.141.141,0,0,1-.1-.13L0,.66A.153.153,0,0,1,.137.5L5.813,0a.154.154,0,0,1,.159.12l.351,1.955a.149.149,0,0,1-.082.164L3.089,3.791A.167.167,0,0,1,3.019,3.805Zm-2.58-1.2,2.575.884,3-1.472L5.7.311.312.789Z" fill="#161615"/></g><path d="M.651.283A.346.346,0,0,1,.41.706a.345.345,0,0,1-.4-.279A.34.34,0,0,1,.25.007.346.346,0,0,1,.651.283Z" transform="translate(2.691 2.103)" fill="#b2a35a" style="mix-blend-mode:multiply;isolation:isolate"/></g><g transform="translate(19.115 56.102)"><g transform="translate(0 0.827)"><path d="M6.01.776,5.392,4.964l-2.486.924L0,4.137.805,0Z" transform="translate(0.152 0.152)" fill="#3682dd"/><path d="M3.054,6.185a.112.112,0,0,1-.075-.017L.076,4.421A.152.152,0,0,1,0,4.262L.808.123A.154.154,0,0,1,.977,0L6.185.778A.148.148,0,0,1,6.31.947L5.694,5.136a.145.145,0,0,1-.1.12l-2.483.926A.221.221,0,0,1,3.054,6.185ZM.32,4.212,3.074,5.873,5.408,5l.583-3.952L1.077.32Z" transform="translate(0 0)" fill="#161615"/></g><g transform="translate(0.231 0)"><path d="M6.1.8,5.837,2.86l-2.77.786L0,1.931.453,0Z" transform="translate(0.152 0.152)" fill="#3682dd"/><path d="M3.214,3.951a.134.134,0,0,1-.067-.02L.076,2.215A.151.151,0,0,1,0,2.048L.46.115A.158.158,0,0,1,.627,0l5.641.8a.155.155,0,0,1,.127.172L6.138,3.032a.149.149,0,0,1-.107.125l-2.772.789ZM.325,2.008,3.237,3.637l2.618-.742.222-1.808L.721.32Z" transform="translate(0 0)" fill="#161615"/></g><path d="M.014.262A.351.351,0,0,0,.238.7.346.346,0,0,0,.651.444.341.341,0,0,0,.43.011.353.353,0,0,0,.014.262Z" transform="translate(3.178 2.254)" fill="#b2a35a" style="mix-blend-mode:multiply;isolation:isolate"/></g><g transform="translate(9.903 107.456)"><g transform="translate(0 0)"><g transform="translate(0.006 0)"><path d="M9.916,2.531l.007-.06A2.009,2.009,0,0,0,8.359.045C6.718-.174,2.205.407.726,1.652c-1.41,1.176-.558,2.269.787,2.62C3.3,4.738,9.525,5.3,9.916,2.531Z" transform="translate(0.153 0.15)" fill="#804b23"/><path d="M4.806,4.952h0a15.045,15.045,0,0,1-3.18-.389,2.017,2.017,0,0,1-1.6-1.3C-.055,2.9.012,2.332.779,1.682,2.221.474,6.151-.047,7.939,0a5.506,5.506,0,0,1,.593.042,2.142,2.142,0,0,1,1.691,2.593l-.007.062C9.927,4.778,6.7,5,4.806,4.952ZM7.929.3C5.942.25,2.241.85.973,1.916c-.518.433-.74.877-.65,1.283A1.749,1.749,0,0,0,1.7,4.274a15.269,15.269,0,0,0,3.108.376c1.449.037,4.839-.077,5.106-1.99l0-.042A1.862,1.862,0,0,0,8.492.342C8.333.325,8.144.307,7.929.3Z" transform="translate(0)" fill="#161615"/></g><g transform="translate(0.006 0.451)"><path d="M.726,1.2A7.639,7.639,0,0,1,3.737,0a3.153,3.153,0,0,1,1.6,2.231A6.163,6.163,0,0,1,5.4,4.2,16.224,16.224,0,0,1,1.513,3.82C.168,3.469-.684,2.376.726,1.2Z" transform="translate(0.153 0.15)" fill="#dfdcc1"/><path d="M4.8,4.5a15.088,15.088,0,0,1-3.17-.386,2.017,2.017,0,0,1-1.6-1.3C-.055,2.446.012,1.88.779,1.23A8.063,8.063,0,0,1,3.86.005a.135.135,0,0,1,.1.012A3.308,3.308,0,0,1,5.638,2.354,6.423,6.423,0,0,1,5.7,4.376a.146.146,0,0,1-.147.125C5.3,4.505,5.048,4.505,4.8,4.5ZM3.87.311a7.3,7.3,0,0,0-2.9,1.153c-.518.433-.74.877-.65,1.283A1.749,1.749,0,0,0,1.7,3.823,16.284,16.284,0,0,0,5.426,4.2a6.162,6.162,0,0,0-.087-1.8A3,3,0,0,0,3.87.311Z" transform="translate(0 0)" fill="#161615"/></g><g transform="translate(0 2.56)"><path d="M4.861,1.205C3.539,1.228,1.238,1.255,0,.279,0,.944.662,1.484,1.524,1.711,3.3,2.174,9.489,2.735,9.917,0A9.278,9.278,0,0,1,4.861,1.205Z" transform="translate(0.147 0.151)" fill="#dfdcc1"/><path d="M4.807,2.392A15.035,15.035,0,0,1,1.631,2C.63,1.747-.01,1.127,0,.425A.151.151,0,0,1,.085.3.143.143,0,0,1,.244.313,6.038,6.038,0,0,0,3.8,1.207c.431.012.834.005,1.21,0A9.221,9.221,0,0,0,9.98.029a.142.142,0,0,1,.164,0,.148.148,0,0,1,.07.152C9.892,2.223,6.687,2.444,4.807,2.392ZM.364.761a1.928,1.928,0,0,0,1.345.954,15.446,15.446,0,0,0,3.106.376c1.337.037,4.351-.06,5-1.594a10.211,10.211,0,0,1-4.8,1.011c-.379,0-.782.012-1.223,0A7.146,7.146,0,0,1,.364.761Z" transform="translate(0 0)" fill="#161615"/></g><path d="M.148,2.171a.153.153,0,0,0,.159-.144A2.337,2.337,0,0,1,1.508.294a.151.151,0,0,0,.07-.207.151.151,0,0,0-.207-.07A2.587,2.587,0,0,0,0,2a.152.152,0,0,0,.142.167Z" transform="translate(5.54 0.305)" fill="#161615"/><path d="M3.191,1.552a.168.168,0,0,0,.1-.037.155.155,0,0,0,.02-.219A4.211,4.211,0,0,0,.16,0,.153.153,0,0,0,0,.152C0,.237.05.3.155.312c.042,0,.087,0,.13.005A3.973,3.973,0,0,1,3.076,1.495.165.165,0,0,0,3.191,1.552Z" transform="translate(4.52 0.583)" fill="#161615"/></g></g><g transform="translate(33.659 107.948)"><g transform="translate(0 0)"><path d="M.014,2.407a.254.254,0,0,1,0-.062A2,2,0,0,1,1.7.014C3.348-.118,7.824.7,9.238,2.026c1.345,1.255.431,2.294-.929,2.575C6.5,4.972.25,5.194.014,2.407Z" transform="translate(0.148 0.153)" fill="#804b23"/><path d="M5.294,5.113C3.394,5.063.186,4.665.012,2.575l0-.04A2.149,2.149,0,0,1,1.835.012C2,0,2.2,0,2.432,0,4.221.052,8.113.784,9.486,2.07c.735.685.767,1.258.665,1.619A2.012,2.012,0,0,1,8.487,4.9,15.213,15.213,0,0,1,5.294,5.113ZM2.42.306a5.1,5.1,0,0,0-.56,0A1.859,1.859,0,0,0,.306,2.49l0,.055C.475,4.475,3.855,4.777,5.3,4.814A15.353,15.353,0,0,0,8.427,4.6a1.753,1.753,0,0,0,1.435-1c.115-.4-.087-.857-.58-1.317C8.068,1.155,4.41.359,2.42.306Z" fill="#161615"/><g transform="translate(4.379 0.67)"><path d="M4.855,1.36A7.667,7.667,0,0,0,1.908,0,3.156,3.156,0,0,0,.192,2.142,6.034,6.034,0,0,0,.023,4.107a16.283,16.283,0,0,0,3.9-.172C5.285,3.654,6.2,2.615,4.855,1.36Z" transform="translate(0.152 0.15)" fill="#dfdcc1"/><path d="M.92,4.443h0c-.252,0-.5-.02-.76-.037a.149.149,0,0,1-.137-.134A6.216,6.216,0,0,1,.2,2.257,3.286,3.286,0,0,1,1.993.015.159.159,0,0,1,2.1.005,7.937,7.937,0,0,1,5.106,1.4c.735.685.767,1.258.665,1.619A2.012,2.012,0,0,1,4.108,4.232,15.614,15.614,0,0,1,.92,4.443ZM.315,4.112a15.926,15.926,0,0,0,3.733-.177,1.753,1.753,0,0,0,1.435-1c.115-.4-.087-.857-.58-1.317A7.382,7.382,0,0,0,2.073.309,3,3,0,0,0,.492,2.326,6.164,6.164,0,0,0,.315,4.112Z" transform="translate(0 0)" fill="#161615"/></g><g transform="translate(0.018 2.443)"><path d="M4.986,1.474c1.32.1,3.616.249,4.9-.66-.025.66-.722,1.168-1.594,1.347C6.488,2.53.281,2.754,0,0A9.262,9.262,0,0,0,4.986,1.474Z" transform="translate(0.148 0.15)" fill="#dfdcc1"/><path d="M5.278,2.673C3.4,2.62.21,2.227,0,.165A.148.148,0,0,1,.24.033a9.213,9.213,0,0,0,4.9,1.447c.376.022.775.052,1.213.062a6.037,6.037,0,0,0,3.594-.7A.136.136,0,0,1,10.1.832a.147.147,0,0,1,.08.139c-.027.695-.7,1.278-1.713,1.487A15.677,15.677,0,0,1,5.278,2.673ZM.382.506c.565,1.569,3.569,1.828,4.9,1.865a15.353,15.353,0,0,0,3.126-.209A1.91,1.91,0,0,0,9.8,1.285a7.1,7.1,0,0,1-3.452.558h0C5.9,1.831,5.5,1.806,5.122,1.781A10.228,10.228,0,0,1,.382.506Z" transform="translate(0 0)" fill="#161615"/></g><path d="M1.337,2.236a.153.153,0,0,1-.152-.152A2.322,2.322,0,0,0,.08.291.158.158,0,0,1,.02.077.165.165,0,0,1,.237.02,2.611,2.611,0,0,1,1.5,2.074a.16.16,0,0,1-.152.164Z" transform="translate(3.209 0.356)" fill="#161615"/><path d="M.154,1.391a.162.162,0,0,1-.107-.045.156.156,0,0,1,0-.219A4.231,4.231,0,0,1,3.263,0a.155.155,0,0,1,.152.164c0,.087-.06.139-.162.147-.042,0-.09,0-.127,0A4,4,0,0,0,.269,1.341.157.157,0,0,1,.154,1.391Z" transform="translate(2.395 0.754)" fill="#161615"/></g></g><g transform="translate(14.322 70.611)"><g transform="translate(0 0)"><path d="M24.507,1.477C20.606,1.935,9.4,2.879.441,0L0,3.083S13.459,6.727,24.783,4.1C24.681,3.228,24.6,2.354,24.507,1.477Z" transform="translate(0.151 0.152)" fill="#804b23"/><path d="M14.287,5.334h0A68.635,68.635,0,0,1,.111,3.384.155.155,0,0,1,0,3.215L.438.127A.163.163,0,0,1,.51.022.138.138,0,0,1,.634.01,47.333,47.333,0,0,0,13.692,1.975a78.914,78.914,0,0,0,10.951-.493.131.131,0,0,1,.11.032.157.157,0,0,1,.057.1c.077.807.169,1.723.274,2.618a.15.15,0,0,1-.117.164A42.63,42.63,0,0,1,14.287,5.334ZM.318,3.123a68.284,68.284,0,0,0,13.974,1.91h0a42.321,42.321,0,0,0,10.475-.9c-.09-.8-.172-1.6-.242-2.336a79.946,79.946,0,0,1-10.844.478A47.844,47.844,0,0,1,.714.351Z" fill="#161615"/></g><g transform="translate(8.938 1.516)"><path d="M.085,0,0,3.693l5.511.127L5.6.127ZM4.568,3.153l-3.551-.08L1.071.69,4.625.775Z" transform="translate(0.152 0.149)" fill="#281806"/><path d="M.147,3.992A.146.146,0,0,1,0,3.843L.085.147A.152.152,0,0,1,.239,0L5.753.125h0A.191.191,0,0,1,5.86.172a.174.174,0,0,1,.04.11L5.813,3.972a.149.149,0,0,1-.152.149L.147,3.992ZM.384.306.306,3.7l5.21.122L5.594.426Zm.78,3.066a.15.15,0,0,1-.147-.154L1.073.839A.147.147,0,0,1,1.225.69L4.779.772c.027-.012.077.02.107.045a.161.161,0,0,1,.04.11L4.871,3.31a.15.15,0,0,1-.154.142l-3.554-.08ZM1.37,1l-.047,2.08,3.25.075.05-2.082Z" transform="translate(0 0)" fill="#161615"/></g><g transform="translate(18.86 1.438)"><path d="M1.245,0,0,.114l.343,3.9,1.243-.2Z" transform="translate(0.155 0.15)" fill="#b2a35a"/><path d="M.5,4.317a.12.12,0,0,1-.09-.035.139.139,0,0,1-.057-.1L0,.28A.157.157,0,0,1,.14.116L1.382,0a.134.134,0,0,1,.11.035.128.128,0,0,1,.057.1l.339,3.815a.152.152,0,0,1-.125.167l-1.24.192ZM.321.4.633,3.991l.941-.147L1.26.312Z" transform="translate(0 0)" fill="#161615"/></g><g transform="translate(1.892 0.128)"><path d="M2.111.284.893,0,0,3.811l1.238.207Z" transform="translate(0.149 0.149)" fill="#b2a35a"/><path d="M1.383,4.317l-.02,0L.125,4.11a.131.131,0,0,1-.1-.062.147.147,0,0,1-.02-.12L.9.116A.151.151,0,0,1,1.076,0L2.294.287a.141.141,0,0,1,.095.065.155.155,0,0,1,.017.115L1.535,4.2A.152.152,0,0,1,1.383,4.317ZM.332,3.839,1.273,4,2.08.544,1.156.332Z" transform="translate(0 0)" fill="#161615"/></g></g><g transform="translate(13.661 82.048)"><path d="M.365,0C.353.665-.028,1.37,0,2.057,2.5,3.34,9.358,4.02,12.23,4.172a12.284,12.284,0,0,0,.316-1.9C8.278,1.945,2.667.971.365,0Z" transform="translate(0.151 0.154)" fill="#b2a35a"/><path d="M12.379,4.48h0C9.846,4.34,2.711,3.7.086,2.343A.144.144,0,0,1,0,2.218,3.968,3.968,0,0,1,.19,1.075,3.75,3.75,0,0,0,.362.149.16.16,0,0,1,.434.024.164.164,0,0,1,.574.009C2.935,1.015,8.715,1.969,12.71,2.275a.152.152,0,0,1,.142.157,12.874,12.874,0,0,1-.324,1.925A.154.154,0,0,1,12.379,4.48ZM.3,2.119C2.631,3.259,8.79,3.974,12.264,4.168a15.158,15.158,0,0,0,.276-1.6c-3.992-.319-9.4-1.21-11.89-2.2a4.946,4.946,0,0,1-.169.784A3.924,3.924,0,0,0,.3,2.119Z" transform="translate(0 0)" fill="#161615"/></g><g transform="translate(26.965 82.723)"><path d="M12.144,0c-.027.687.314,1.427.249,2.129C9.858,3.31,3.051,3.631.212,3.631A14.036,14.036,0,0,1,0,1.666C4.226,1.562,9.82.877,12.144,0Z" transform="translate(0.153 0.153)" fill="#b2a35a"/><path d="M.359,3.938a.154.154,0,0,1-.147-.127A13.3,13.3,0,0,1,0,1.819.143.143,0,0,1,.15,1.672C4.11,1.57,9.858.912,12.241.006a.176.176,0,0,1,.142.022.156.156,0,0,1,.062.13,4.538,4.538,0,0,0,.122.964A3.979,3.979,0,0,1,12.695,2.3a.156.156,0,0,1-.09.12C9.943,3.662,2.867,3.938.364,3.938ZM.3,1.966A16.274,16.274,0,0,0,.491,3.639c3.439-.015,9.554-.413,11.907-1.457a4.031,4.031,0,0,0-.127-1,7.53,7.53,0,0,1-.127-.812C9.636,1.241,4.254,1.861.3,1.966Z" transform="translate(0 0)" fill="#161615"/></g><path d="M.149,22.738A.151.151,0,0,1,0,22.584L.608.149a.152.152,0,1,1,.3,0L.3,22.591A.147.147,0,0,1,.149,22.738Z" transform="translate(26.567 49.77)" fill="#161615"/><g transform="translate(6.723 0)"><g transform="translate(0 0)"><path d="M20.8,18.521a84.874,84.874,0,0,1,18.432,1.992,56.435,56.435,0,0,1,6.438,2.057c.015-.224.04-.448.045-.677C46.1,10.23,36.184.437,23.558.014,11.006-.4.513,8.593,0,20.157,6.58,18.05,14.193,18.361,20.8,18.521Z" transform="translate(0.147 0.148)" fill="#3682dd"/><path d="M45.813,22.867a.177.177,0,0,1-.05-.01A56.081,56.081,0,0,0,39.34,20.8,82.952,82.952,0,0,0,21.695,18.84L19.934,18.8C13.6,18.634,6.418,18.459.2,20.447a.147.147,0,0,1-.139-.025A.145.145,0,0,1,0,20.3,20.382,20.382,0,0,1,7.26,5.673,23.865,23.865,0,0,1,23.555.01l.154,0C36.4.435,46.4,10.323,46.012,22.046c-.005.164-.017.329-.032.488l-.01.2a.147.147,0,0,1-.067.115A.177.177,0,0,1,45.813,22.867ZM21.7,18.536a83.687,83.687,0,0,1,17.712,1.975A56.383,56.383,0,0,1,45.681,22.5c.015-.154.022-.311.032-.471C46.1,10.48,36.222.734,23.7.316L23.545.308A23.566,23.566,0,0,0,7.457,5.9,20.1,20.1,0,0,0,.309,20.093c6.224-1.933,13.342-1.753,19.63-1.6Z" fill="#161615"/></g><g transform="translate(0 11.154)"><path d="M43.609,5.706a60.3,60.3,0,0,0-6.737-2.573A60.322,60.322,0,0,0,22.218.179,56.62,56.62,0,0,0,1.552,2.172,19.757,19.757,0,0,0,0,9C6.58,6.889,14.193,7.2,20.8,7.359A84.874,84.874,0,0,1,39.233,9.352a56.436,56.436,0,0,1,6.438,2.057c.015-.224.04-.448.045-.677a19.758,19.758,0,0,0-.329-4.311C44.777,6.189,44.169,5.962,43.609,5.706Z" transform="translate(0.147 0.156)" fill="#3a2c1c"/><path d="M45.813,11.714a.177.177,0,0,1-.05-.01A56.08,56.08,0,0,0,39.34,9.649,82.952,82.952,0,0,0,21.695,7.687l-1.761-.045C13.6,7.48,6.418,7.306.2,9.293a.147.147,0,0,1-.139-.025A.145.145,0,0,1,0,9.144,19.894,19.894,0,0,1,1.562,2.27a.146.146,0,0,1,.095-.085A53.367,53.367,0,0,1,19.175.026c1.044.03,2.119.082,3.2.157A59.915,59.915,0,0,1,37.066,3.149a61.268,61.268,0,0,1,6.749,2.575c.488.224,1,.418,1.542.623l.227.09a.145.145,0,0,1,.095.112,19.7,19.7,0,0,1,.334,4.343c-.005.164-.017.329-.032.488l-.01.2a.147.147,0,0,1-.067.115A.177.177,0,0,1,45.813,11.714ZM21.7,7.383A83.687,83.687,0,0,1,39.415,9.358a56.383,56.383,0,0,1,6.266,1.992c.015-.154.022-.311.032-.471A19.426,19.426,0,0,0,45.4,6.688l-.147-.06c-.523-.2-1.063-.406-1.557-.635a61.72,61.72,0,0,0-6.719-2.558A59.506,59.506,0,0,0,22.355.484C21.279.407,20.2.357,19.167.327A53.276,53.276,0,0,0,1.808,2.452a19.7,19.7,0,0,0-1.5,6.488c6.224-1.933,13.342-1.753,19.63-1.6Z" transform="translate(0 0)" fill="#161615"/></g><path d="M8.4,2.865c4.134,2.251,6.443,6.378,7.208,10.926a47.672,47.672,0,0,1,.553,5.233,61.227,61.227,0,0,1,9.053,1.489,56.437,56.437,0,0,1,6.438,2.057c.015-.224.04-.448.045-.677C32.088,10.23,22.168.437,9.541.014A24.444,24.444,0,0,0,0,1.6,13.2,13.2,0,0,1,8.4,2.865Z" transform="translate(14.164 0.148)" fill="#b2a35a" style="mix-blend-mode:multiply;isolation:isolate"/></g><g transform="translate(0.324 14.428)"><path d="M52.089,4.908C24.3-4.5,6.8,2.51,6.8,2.51l.037.209C2.04,5.951.715,11.732,0,13.956c2.1-4.6,14.35-7.86,29.057-7.464,15.214.411,27.6,4.588,28.768,9.516C57.274,10.865,52.089,4.908,52.089,4.908Z" transform="translate(0.153 0.152)" fill="#3682dd"/><path d="M57.973,16.312a.148.148,0,0,1-.142-.117C56.68,11.323,44.1,7.2,29.2,6.793,14.815,6.407,2.387,9.575.285,14.17a.143.143,0,0,1-.187.077.154.154,0,0,1-.092-.187c.072-.219.149-.471.237-.755.8-2.647,2.279-7.556,6.587-10.5l-.02-.115A.154.154,0,0,1,6.9,2.519C6.975,2.492,14.09-.3,26.189.026a89.183,89.183,0,0,1,26.1,4.889.244.244,0,0,1,.067.045c.05.06,5.218,6.052,5.77,11.182a.149.149,0,0,1-.127.167Zm-28.76-9.82c14.014.379,25.632,3.9,28.387,8.393-1.091-4.513-5.083-9.267-5.444-9.693A88.9,88.9,0,0,0,26.179.327C14.974.026,8.083,2.4,7.132,2.758l.01.085a.145.145,0,0,1-.06.152C2.972,5.762,1.446,10.377.626,13.061,3.961,8.9,15.746,6.128,29.212,6.491Z" transform="translate(0 0)" fill="#161615"/></g><path d="M15.635,3.9A95.523,95.523,0,0,0,0,0C.685,2.065,1.3,4.144,1.9,6.234,12.6,7.716,20.452,11.125,21.371,15,20.821,9.855,15.635,3.9,15.635,3.9Z" transform="translate(36.93 15.59)" fill="#b2a35a" style="mix-blend-mode:multiply;isolation:isolate"/><g transform="translate(18.733 33.038)"><g transform="translate(0 0)"><g transform="translate(0.229 0)"><path d="M6.142,5.595l1.738.077L7.25,2.706a2.388,2.388,0,0,0-.057-.284l-.182-.54a3.151,3.151,0,0,0-5.977.665L0,5.308,1.893,5.4a3.132,3.132,0,0,0,4.249.2Z" transform="translate(0.149 0.152)" fill="#4a4a49"/><path d="M4.189,6.628A3.3,3.3,0,0,1,1.979,5.7L.139,5.61a.144.144,0,0,1-.115-.067.157.157,0,0,1-.015-.137L1.043,2.643A3.3,3.3,0,0,1,7.3,1.969l.187.563a2.3,2.3,0,0,1,.067.3l.618,2.911a.178.178,0,0,1,.02.077.172.172,0,0,1-.159.152H8.021L6.34,5.9A3.294,3.294,0,0,1,4.189,6.628ZM.363,5.318l1.689.08a.137.137,0,0,1,.1.045,2.97,2.97,0,0,0,4.042.184.134.134,0,0,1,.1-.037l1.544.075L7.254,2.888A2.7,2.7,0,0,0,7.2,2.611l-.182-.53a3,3,0,0,0-5.686.645Z" transform="translate(0 0)" fill="#161615"/></g><g transform="translate(0 2.682)"><path d="M8.315,4.268A4.158,4.158,0,1,1,4.268,0,4.159,4.159,0,0,1,8.315,4.268Z" transform="translate(0.149 0.154)" fill="#4a4a49"/><path d="M4.188,8.619A4.31,4.31,0,1,1,8.614,4.427,4.315,4.315,0,0,1,4.188,8.619ZM4.412.308a4,4,0,1,0,3.9,4.109A4.007,4.007,0,0,0,4.412.308Z" transform="translate(0 0)" fill="#161615"/></g><g transform="translate(0.745 3.255)"><path d="M6.83,3.5A3.416,3.416,0,1,1,3.508,0,3.417,3.417,0,0,1,6.83,3.5Z" transform="translate(0.152 0.154)" fill="#161715"/><path d="M3.473,7.132A3.566,3.566,0,1,1,7.132,3.665,3.568,3.568,0,0,1,3.473,7.132ZM3.652.305A3.265,3.265,0,1,0,6.83,3.657,3.263,3.263,0,0,0,3.652.305Z" transform="translate(0 0)" fill="#161615"/></g><path d="M1.34.69A.67.67,0,1,1,.692,0,.665.665,0,0,1,1.34.69Z" transform="translate(2.953 4.444)" fill="#fff"/><path d="M.937.481A.468.468,0,1,1,.481,0,.468.468,0,0,1,.937.481Z" transform="translate(1.665 5.679)" fill="#fff"/></g><g transform="translate(11.148 0.301)"><g transform="translate(0.227 0)"><path d="M6.142,5.59l1.738.08L7.255,2.7c-.02-.095-.042-.184-.065-.279l-.179-.543a3.15,3.15,0,0,0-5.975.66L0,5.308,1.893,5.4a3.125,3.125,0,0,0,4.249.194Z" transform="translate(0.153 0.152)" fill="#4a4a49"/><path d="M4.193,6.628a3.271,3.271,0,0,1-2.212-.934L.146,5.61a.141.141,0,0,1-.117-.067.149.149,0,0,1-.02-.137L1.042,2.644A3.3,3.3,0,0,1,7.3,1.969l.189.563a1.9,1.9,0,0,1,.06.3l.62,2.916a.136.136,0,0,1,.017.077.147.147,0,0,1-.152.147H8.023L6.345,5.9A3.338,3.338,0,0,1,4.193,6.628ZM.367,5.316l1.684.08a.136.136,0,0,1,.1.047A2.986,2.986,0,0,0,6.2,5.625a.116.116,0,0,1,.1-.03l1.547.07L7.256,2.89A2.622,2.622,0,0,0,7.2,2.611l-.179-.533a3,3,0,0,0-5.686.645Z" transform="translate(0 0)" fill="#161615"/></g><g transform="translate(0 2.684)"><path d="M8.31,4.268A4.156,4.156,0,1,1,4.27,0,4.148,4.148,0,0,1,8.31,4.268Z" transform="translate(0.152 0.152)" fill="#4a4a49"/><path d="M4.193,8.614A4.308,4.308,0,1,1,8.614,4.425,4.316,4.316,0,0,1,4.193,8.614ZM4.417.3a4.007,4.007,0,1,0,3.9,4.117A4.015,4.015,0,0,0,4.417.3Z" transform="translate(0 0)" fill="#161615"/></g><g transform="translate(0.747 3.257)"><path d="M6.828,3.508A3.414,3.414,0,1,1,3.505,0,3.422,3.422,0,0,1,6.828,3.508Z" transform="translate(0.152 0.15)" fill="#161715"/><path d="M3.471,7.129A3.565,3.565,0,1,1,7.129,3.66,3.566,3.566,0,0,1,3.471,7.129ZM3.655.3A3.266,3.266,0,1,0,6.828,3.652,3.276,3.276,0,0,0,3.655.3Z" transform="translate(0 0)" fill="#161615"/></g><path d="M1.343.69A.671.671,0,1,1,.69,0,.672.672,0,0,1,1.343.69Z" transform="translate(2.952 4.444)" fill="#fff"/><path d="M.939.481A.473.473,0,0,1,.458.939.47.47,0,1,1,.486,0,.466.466,0,0,1,.939.481Z" transform="translate(1.662 5.679)" fill="#fff"/></g><g transform="translate(7.709 2.983)"><path d="M.4,0,0,.319.236,1.433l3.84.1.258-1.1Z" transform="translate(0.148 0.149)" fill="#2a2a29"/><path d="M4.222,1.835.377,1.73a.148.148,0,0,1-.142-.12L0,.5A.159.159,0,0,1,.053.348l.4-.314A.137.137,0,0,1,.561,0L4.5.433A.163.163,0,0,1,4.6.5.149.149,0,0,1,4.625.62l-.257,1.1A.147.147,0,0,1,4.222,1.835Zm-3.716-.4,3.6.1L4.294.717.593.311.314.525Z" transform="translate(0 0)" fill="#161615"/></g><g transform="translate(7.29 2.046)"><path d="M0,0,5.142.138,4.752,1.372.418,1.255Z" transform="translate(0.149 0.15)" fill="#4a4a49"/><path d="M4.893,1.674.565,1.557a.154.154,0,0,1-.142-.1L.009.2A.141.141,0,0,1,.029.062.143.143,0,0,1,.156,0L5.292.139A.138.138,0,0,1,5.411.2a.134.134,0,0,1,.02.13L5.043,1.569A.148.148,0,0,1,4.893,1.674ZM.677,1.258l4.109.11.3-.934L.363.306Z" transform="translate(0 0)" fill="#161615"/></g></g></g><path d="M3.64,18.43a4.364,4.364,0,0,1-2.459-.762l-.131-.1A3.088,3.088,0,0,1,.028,14.831C.62,8.273,8.017.808,8.332.493A1.639,1.639,0,0,1,9.483,0a1.8,1.8,0,0,1,.564.085h.25l.594.636a1.686,1.686,0,0,1-.179,2.118C8.8,4.769,3.815,10.668,3.373,15.05a17.409,17.409,0,0,0,3.53-.355c.867-.253.8.294.768,1.293.014,1.042.107,2.08-.768,2.329A18.5,18.5,0,0,1,3.64,18.43ZM10.29,2.41l-.03.029Z" transform="translate(5.697 37.438) rotate(1)"/><g transform="translate(12.71 31.793)"><g transform="translate(0 0)"><path d="M.781,2.644c-.055.075-.1.147-.154.222A4.251,4.251,0,0,0,.494,7.085c.426.969.964,2.373,1.955,2.894a2.525,2.525,0,0,0,3.417-1.8,7.8,7.8,0,0,1,.72-2.9,2.4,2.4,0,0,1,1.375-.926c1.355-.4,2.535-2.393,1.009-3.4A4.394,4.394,0,0,0,6.506,0,7.966,7.966,0,0,0,.781,2.644Z" transform="translate(0.149 0.153)" fill="#f4cea6"/><path d="M3.462,10.51h0a2.135,2.135,0,0,1-.934-.244,5.338,5.338,0,0,1-1.91-2.7L.5,7.3A4.4,4.4,0,0,1,.651,2.934c.05-.077.107-.152.159-.229A8.22,8.22,0,0,1,6.648,0,4.66,4.66,0,0,1,9.2.977,1.606,1.606,0,0,1,9.97,2.608,2.742,2.742,0,0,1,8.149,4.65a2.315,2.315,0,0,0-1.29.862A4.541,4.541,0,0,0,6.294,7.5c-.035.281-.075.58-.132.859A2.826,2.826,0,0,1,3.462,10.51ZM6.82.3c-.052,0-.1,0-.154,0A7.877,7.877,0,0,0,1.049,2.892c-.055.07-.1.142-.149.212A4.1,4.1,0,0,0,.778,7.178l.12.271A5.093,5.093,0,0,0,2.668,10a1.8,1.8,0,0,0,.8.212A2.507,2.507,0,0,0,5.866,8.3c.057-.274.092-.56.13-.839A4.792,4.792,0,0,1,6.6,5.35a2.572,2.572,0,0,1,1.464-.989,2.408,2.408,0,0,0,1.6-1.8,1.292,1.292,0,0,0-.635-1.332A4.682,4.682,0,0,0,6.82.3Z" fill="#161615"/><path d="M.147,4.162l-.025,0A.155.155,0,0,1,0,3.983C.025,3.881.518,1.53,2.329.8,4.2.048,5.287-.164,5.756.122a.565.565,0,0,1,.257.453.152.152,0,1,1-.3.017A.254.254,0,0,0,5.594.376c-.249-.154-1-.164-3.153.7C.784,1.749.3,4.018.3,4.04A.15.15,0,0,1,.147,4.162Z" transform="translate(3.886 2.316)" fill="#161615"/><path d="M.144,2.465a.157.157,0,0,1-.11-.052A.157.157,0,0,1,.049,2.2C.191,2.079,3.5-.708,6.128.171a.15.15,0,0,1,.1.192.147.147,0,0,1-.192.09C3.566-.372.278,2.4.246,2.428A.141.141,0,0,1,.144,2.465Z" transform="translate(3.326 1.147)" fill="#161615"/></g><g transform="translate(2.782 0.119)"><path d="M0,1.819A6.345,6.345,0,0,1,4.573.006C7.335.13,0,1.819,0,1.819Z" transform="translate(0.149 0.152)" fill="#f4cea6"/><path d="M.147,2.12a.144.144,0,0,1-.1-.042.147.147,0,0,1,0-.212A6.447,6.447,0,0,1,4.729.006a.154.154,0,0,1,.144.159.133.133,0,0,1-.157.142c-.032,0-.07,0-.1,0A6.254,6.254,0,0,0,.264,2.07.151.151,0,0,1,.147,2.12Z" transform="translate(0 0)" fill="#161615"/></g></g><g transform="translate(33.909 32.274)"><path d="M7.3,18.546c-.1,0-.19,0-.285-.01a10.471,10.471,0,0,1-2.467-.194c-.957-.374-.814.164-1.087-2.259-.033-.893-.217-1.8.374-1.671a21.5,21.5,0,0,0,3.714.759C7.19,10.791,2.321,4.785.461,2.825A1.671,1.671,0,0,1,2.858.5c.8.836,7.582,8.131,8.028,14.518A3.052,3.052,0,0,1,9.8,17.74l-.12.09A4.342,4.342,0,0,1,7.3,18.546Z" transform="translate(5.338 6.436) rotate(1)"/><g transform="translate(0 0)"><path d="M8.869,2.962c.047.077.1.152.144.227a4.262,4.262,0,0,1-.095,4.224c-.478.941-1.093,2.314-2.112,2.779A2.524,2.524,0,0,1,3.492,8.207a7.679,7.679,0,0,0-.56-2.929,2.4,2.4,0,0,0-1.322-1C.28,3.8-.794,1.751.788.825A4.452,4.452,0,0,1,3.293.013,7.971,7.971,0,0,1,8.869,2.962Z" transform="translate(0.153 0.147)" fill="#f4cea6"/><path d="M6.077,10.672A2.824,2.824,0,0,1,3.5,8.376c-.042-.284-.065-.58-.085-.869a4.556,4.556,0,0,0-.456-2,2.311,2.311,0,0,0-1.245-.934A2.745,2.745,0,0,1,.007,2.429,1.612,1.612,0,0,1,.862.845,4.645,4.645,0,0,1,3.467.013,8.171,8.171,0,0,1,9.145,3.024c.055.077.1.154.152.232a4.394,4.394,0,0,1-.09,4.371l-.134.262a5.278,5.278,0,0,1-2.047,2.59A2.127,2.127,0,0,1,6.077,10.672ZM3.277.3a4.678,4.678,0,0,0-2.261.8A1.29,1.29,0,0,0,.309,2.4,2.422,2.422,0,0,0,1.815,4.284a2.6,2.6,0,0,1,1.4,1.063,4.9,4.9,0,0,1,.5,2.142c.017.279.04.568.08.844a2.507,2.507,0,0,0,2.291,2.037A1.838,1.838,0,0,0,6.9,10.2,5.148,5.148,0,0,0,8.806,7.756l.13-.264a4.1,4.1,0,0,0,.1-4.079L8.9,3.191A7.893,7.893,0,0,0,3.432.309C3.379.3,3.33.3,3.277.3Z" fill="#161615"/><path d="M5.662,4.433A.152.152,0,0,1,5.518,4.3c0-.02-.361-2.309-1.98-3.066C1.436.251.686.216.429.361A.256.256,0,0,0,.3.57.156.156,0,0,1,.133.7.15.15,0,0,1,0,.532.557.557,0,0,1,.285.1c.478-.264,1.552.01,3.382.864,1.766.824,2.134,3.2,2.149,3.3a.151.151,0,0,1-.129.169Z" transform="translate(0.064 2.183)" fill="#161615"/><path d="M5.964,2.732a.162.162,0,0,1-.1-.042C5.835,2.662,2.7-.282.194.408A.161.161,0,0,1,0,.306a.156.156,0,0,1,.1-.189c2.672-.735,5.83,2.229,5.962,2.356a.146.146,0,0,1,0,.214A.161.161,0,0,1,5.964,2.732Z" transform="translate(0.478 1.052)" fill="#161615"/><g transform="translate(1.965 0.088)"><path d="M5.093,2.06A6.344,6.344,0,0,0,.63,0C-2.134-.022,5.093,2.06,5.093,2.06Z" transform="translate(0 0.147)" fill="#f4cea6"/><path d="M4.612,2.354A.143.143,0,0,1,4.505,2.3,6.282,6.282,0,0,0,.247.3C.214.3.174.3.149.3A.152.152,0,0,1,0,.147.147.147,0,0,1,.152,0,6.426,6.426,0,0,1,4.732,2.11a.138.138,0,0,1-.017.207A.116.116,0,0,1,4.612,2.354Z" transform="translate(0.478 0)" fill="#161615"/></g></g></g></g></g><path d="M4.923,3.241a.689.689,0,0,0-.665.6H3.349a.777.777,0,0,0-.133-.31L4.3,2.421a.481.481,0,0,0,.643-.089.505.505,0,0,0-.022-.665.478.478,0,0,0-.643-.044.51.51,0,0,0-.111.665L3.084,3.4a.777.777,0,0,0-.31-.133V1.335A.672.672,0,0,0,3.349.581.639.639,0,0,0,2.618.005a.7.7,0,0,0-.576.776.682.682,0,0,0,.576.576V3.263a.777.777,0,0,0-.31.133L1.443,2.51a.312.312,0,0,0-.133-.4c-.022,0-.022,0-.044-.022a.278.278,0,0,0-.355.089.3.3,0,0,0,.022.355.272.272,0,0,0,.355.066l.864.909a.751.751,0,0,0-.044.776L.734,5.7a.432.432,0,0,0-.621.066.505.505,0,0,0,.022.665.478.478,0,0,0,.643.044.51.51,0,0,0,.111-.665l1.352-1.4a.675.675,0,0,0,.355.177v1.2a.488.488,0,0,0-.377.532.478.478,0,0,0,.953,0A.488.488,0,0,0,2.8,5.79v-1.2a.777.777,0,0,0,.31-.133l.864.886a.281.281,0,0,0-.022.133.288.288,0,1,0,.288-.288.281.281,0,0,0-.133.022l-.864-.886a.777.777,0,0,0,.133-.31H4.28a.7.7,0,0,0,.731.6.7.7,0,0,0,.6-.776A.711.711,0,0,0,4.923,3.241Z" transform="translate(30.353 4.157)" fill="#ffeacc"/></g></g></g></g></g></svg>