<svg xmlns="http://www.w3.org/2000/svg" width="38" height="38" viewBox="0 0 38 38"><path d="M5,5V18.818H8.455v3.455h3.455V18.818h6.909V5H5ZM18.818,18.818v3.455h3.455v3.455H15.364v3.455H5V43H18.818V29.182H29.182V25.727H25.727V22.273h6.909V18.818h3.455v3.455h3.455V18.818H43V5H29.182V18.818Zm20.727,3.455v3.455H43V22.273Zm0,3.455H36.091v3.455h3.455Zm0,3.455v3.455H43V29.182Zm0,3.455H36.091V29.182H32.636v3.455H24V43h3.455V36.091h6.909v3.455h3.455V36.091h1.727Zm-5.182,6.909H30.909V43h3.455Zm1.727-13.818V22.273H32.636v3.455Zm-20.727,0V22.273H11.909v3.455ZM8.455,22.273H5v3.455H8.455ZM22.273,5v6.909H20.545v3.455h1.727v1.727h3.455V11.909h1.727V8.455H25.727V5ZM8.455,8.455h6.909v6.909H8.455Zm24.182,0h6.909v6.909H32.636ZM10.182,10.182v3.455h3.455V10.182Zm24.182,0v3.455h3.455V10.182ZM8.455,32.636h6.909v6.909H8.455Zm1.727,1.727v3.455h3.455V34.364Zm29.364,5.182V43H43V39.545Z" transform="translate(-5 -5)" fill="#337ab7"/></svg>