<svg xmlns="http://www.w3.org/2000/svg" width="38.44" height="38.44" viewBox="0 0 38.44 38.44"><g transform="translate(-3772 -1584)"><path d="M15,0A15,15,0,1,1,0,15,15,15,0,0,1,15,0Z" transform="translate(3776 1589)" fill="#fff"/><g transform="translate(3761 1560)"><g transform="translate(11 24)"><path d="M19.22,0A19.22,19.22,0,1,0,38.44,19.22,19.277,19.277,0,0,0,19.22,0ZM8.649,13.454l6.727-6.727L22.1,13.454H17.3v7.688H13.454V13.454ZM29.791,24.986l-6.727,6.727-6.727-6.727h4.805V17.3h3.844v7.688Z" transform="translate(0 38.44) rotate(-90)" fill="#f6a808"/></g></g></g></svg>