<svg xmlns="http://www.w3.org/2000/svg" width="80" height="80" viewBox="0 0 80 80"><g transform="translate(-295 -521)"><path d="M40,0A40,40,0,1,1,0,40,40,40,0,0,1,40,0Z" transform="translate(295 521)" fill="rgba(97,120,248,0.16)"/><g transform="translate(298 484)"><path d="M57.658,59H15.727a.7.7,0,0,0-.727.687v20.5a.7.7,0,0,0,.727.686h9.354v12.9a.712.712,0,0,0,.743.687H47.562a.712.712,0,0,0,.743-.687v-12.9h9.354a.7.7,0,0,0,.727-.686v-20.5A.7.7,0,0,0,57.658,59ZM25.081,72.772h-3.96V67.1h3.96Zm4.861,20.252h-3.42v-3.33H27.1a2.878,2.878,0,0,1,2.844,2.9Zm16.922,0h-3.6v-.47a2.9,2.9,0,0,1,2.911-2.86h.689Zm0-4.771h-.689a4.342,4.342,0,0,0-4.351,4.3v.47H31.382v-.429A4.32,4.32,0,0,0,27.1,88.254h-.576V67.1H46.864Zm10.081-8.821H48.3V74.212H53a.738.738,0,0,0,.705-.755v-7.04A.739.739,0,0,0,53,65.661H20.386a.739.739,0,0,0-.705.756v7.04a.738.738,0,0,0,.705.755h4.7v5.221H16.44V60.44h40.5ZM48.3,72.772V67.1h3.96v5.671Z" fill="#6178f8"/><path d="M179.282,179.559a7.588,7.588,0,1,0-7.588-7.588A7.588,7.588,0,0,0,179.282,179.559Zm0-13.737a6.148,6.148,0,1,1-6.148,6.148A6.148,6.148,0,0,1,179.282,165.822Z" transform="translate(-142.59 -95.896)" fill="#6178f8"/><path d="M229.522,196.649a.651.651,0,0,0-.207,0,1.19,1.19,0,0,1-1.085-1.184.72.72,0,1,0-1.44,0,2.633,2.633,0,0,0,1.909,2.528v.538a.72.72,0,0,0,1.44,0v-.538a2.628,2.628,0,0,0-.72-5.157,1.189,1.189,0,1,1,1.189-1.189.72.72,0,0,0,1.44,0,2.633,2.633,0,0,0-1.909-2.528v-.4a.72.72,0,1,0-1.44,0v.4a2.629,2.629,0,0,0,.72,5.157,1.188,1.188,0,0,1,.1,2.372Z" transform="translate(-192.726 -117.389)" fill="#6178f8"/></g></g></svg>