<svg xmlns="http://www.w3.org/2000/svg" width="80" height="80" viewBox="0 0 80 80"><g transform="translate(-295 -521)"><circle cx="40" cy="40" r="40" transform="translate(295 521)" fill="rgba(199,73,195,0.16)"/><g transform="translate(314.5 541)"><path d="M39.724,5.116A5.116,5.116,0,0,0,29.549,4.35H1.266A.766.766,0,0,0,.5,5.116V21.871h0v4.465a.766.766,0,0,0,.766.766h10.2v2.67a.766.766,0,0,0,1.533,0V18.635a1.727,1.727,0,1,1,3.453,0v6.528c0,.077,0,.154.01.23a2.725,2.725,0,0,0,.522,1.4h0a2.751,2.751,0,0,0,4.165.318l.006-.006h6.165l-4.158,6.374a.8.8,0,0,0-.04.069,4.41,4.41,0,0,0-.484,2v2.919a.766.766,0,0,0,1.533,0V35.55a2.869,2.869,0,0,1,.3-1.271l4.168-6.39a.743.743,0,0,0,.04-.069,4.376,4.376,0,0,0,.291-.718h5.638a.766.766,0,0,0,.766-.766V21.872h0v-11.7A5.124,5.124,0,0,0,39.724,5.116ZM32.145,9.6a5.091,5.091,0,0,0,1.462.535l.167.03.065.011h0v7.678A4.1,4.1,0,0,0,30.589,21.1H23.715a11.74,11.74,0,0,0,2.62-7.574,11.68,11.68,0,0,0-2.682-7.648h5.895c.013.084.028.166.045.249A5.142,5.142,0,0,0,32.145,9.6Zm1.7,13.739H17.984v-.7H33.841ZM32.166,21.1a2.571,2.571,0,0,1,1.676-1.675V21.1Zm-30.133,0V19.43A2.571,2.571,0,0,1,3.708,21.1Zm0,1.533h9.433v.7H2.033Zm9.433-3.285V21.1H5.285a4.1,4.1,0,0,0-3.252-3.252V9.135A4.1,4.1,0,0,0,5.285,5.883h7.441a11.68,11.68,0,0,0-2.682,7.648A12.219,12.219,0,0,0,11.466,19.353ZM2.033,5.883H3.708A2.57,2.57,0,0,1,2.033,7.558Zm0,19.688v-.7h9.433v.7Zm12.692-10.2a3.284,3.284,0,0,0-2.583,1.275q-.037.048-.072.1l-.024.033a11.221,11.221,0,0,1-.47-3.249,9.516,9.516,0,0,1,3.388-7.648h6.451A9.516,9.516,0,0,1,24.8,13.531,9.594,9.594,0,0,1,21.513,21.1H17.984V18.932a.765.765,0,0,0,1.048-.712v-.5a1.813,1.813,0,0,0,1.744-1.809V14.5a1.813,1.813,0,0,0-1.811-1.811h-1.4a.279.279,0,0,1-.278-.278V11.078a.279.279,0,0,1,.278-.278h1.4a.279.279,0,0,1,.278.278.766.766,0,0,0,1.533,0,1.813,1.813,0,0,0-1.744-1.809v-.5A.766.766,0,0,0,18.266,8h0a.766.766,0,0,0-.766.766v.5a1.813,1.813,0,0,0-1.744,1.809V12.41a1.813,1.813,0,0,0,1.811,1.811h1.4a.279.279,0,0,1,.278.279v1.41a.279.279,0,0,1-.278.278h-1.4a.278.278,0,0,1-.278-.278v-.129a.766.766,0,0,0-.766-.767h0a.767.767,0,0,0-.732.539,3.257,3.257,0,0,0-.9-.174C14.833,15.376,14.779,15.375,14.724,15.375Zm13.635,10.2h-10.3l0-.013c-.006-.018-.012-.037-.017-.055a1.227,1.227,0,0,1-.048-.339V24.87H33.841v.7ZM34.61,8.7h0a3.583,3.583,0,1,1,3.583-3.583A3.563,3.563,0,0,1,34.608,8.7Zm0,0" fill="#c749c3"/><path d="M417.98,34.722h-.9v-.9a.766.766,0,0,0-1.533,0v.9h-.9a.766.766,0,0,0,0,1.533h.9v.9a.766.766,0,0,0,1.533,0v-.9h.9a.766.766,0,0,0,0-1.533Zm0,0" transform="translate(-381.709 -30.525)" fill="#c749c3"/><path d="M144.364,460.094a.766.766,0,0,0-.766.766v2.445a.766.766,0,0,0,1.533,0V460.86A.766.766,0,0,0,144.364,460.094Zm0,0" transform="translate(-132.132 -424.837)" fill="#c749c3"/><path d="M145.079,419.311a.766.766,0,1,0-.282.93A.771.771,0,0,0,145.079,419.311Zm0,0" transform="translate(-132.139 -386.742)" fill="#c749c3"/></g></g></svg>