<svg xmlns="http://www.w3.org/2000/svg" width="80" height="80" viewBox="0 0 80 80"><g transform="translate(-1141 -973)"><g transform="translate(846 452)"><circle cx="40" cy="40" r="40" transform="translate(295 521)" fill="rgba(191,50,25,0.16)"/></g><g transform="translate(1159.267 991.267)"><g transform="translate(0)"><path d="M26.263.473A21.879,21.879,0,0,0,21.733,0,21.733,21.733,0,0,0,4.592,35.094a3.222,3.222,0,1,0,1.266-1.138A20.044,20.044,0,0,1,25.91,2.134.849.849,0,1,0,26.263.473ZM6.225,35.759a1.528,1.528,0,1,1-.448,1.081A1.523,1.523,0,0,1,6.225,35.759Z" transform="translate(0)" fill="#bf3219"/></g><g transform="translate(17.196 3.4)"><path d="M224.234,45.023a3.222,3.222,0,1,0-1.266,1.138,20.044,20.044,0,0,1-19.413,31.946.849.849,0,0,0-.3,1.672,21.936,21.936,0,0,0,3.837.338,21.733,21.733,0,0,0,17.141-35.094Zm-1.632-.666a1.528,1.528,0,1,1,.448-1.081A1.518,1.518,0,0,1,222.6,44.358Z" transform="translate(-202.556 -40.051)" fill="#bf3219"/></g><g transform="translate(13.104 40.271)"><path d="M155.525,474.423l-.321.786.318-.787a.849.849,0,0,0-.636,1.574l.026.01a.849.849,0,0,0,.613-1.584Z" transform="translate(-154.355 -474.36)" fill="#bf3219"/></g><g transform="translate(28.688 1.507)"><path d="M339.108,17.821l-.015-.006a.849.849,0,1,0-.631,1.576l.01,0a.849.849,0,1,0,.636-1.574Z" transform="translate(-337.929 -17.754)" fill="#bf3219"/></g></g></g></svg>