<svg xmlns="http://www.w3.org/2000/svg" width="80" height="80" viewBox="0 0 80 80"><g transform="translate(-295 -521)"><circle cx="40" cy="40" r="40" transform="translate(295 521)" fill="rgba(45,170,141,0.16)"/><g transform="translate(307.438 540.823)"><g transform="translate(8.008 0)"><g transform="translate(0 0)"><path d="M45.807,23.637h-.6V18.2a2.554,2.554,0,0,0-1.083-2.087V15.37a1.951,1.951,0,0,0-1.948-1.948h-.451l1.725-2.532a1.865,1.865,0,0,0-.49-2.588L31.249.324a1.862,1.862,0,0,0-2.588.49l-10.1,14.827H15.745l.678-6.867a.2.2,0,0,1,.128-.171,4.371,4.371,0,0,0,2.133-1.733.2.2,0,0,1,.191-.09l4.41.436A.575.575,0,1,0,23.4,6.072l-4.41-.436a1.346,1.346,0,0,0-1.274.617,3.214,3.214,0,0,1-1.568,1.274,1.344,1.344,0,0,0-.867,1.134l-.689,6.98h-.733L14.929,4.78a.713.713,0,0,1,.779-.639l8.912.88a.575.575,0,0,0,.113-1.144L15.821,3a1.865,1.865,0,0,0-2.036,1.67l-.865,8.754H11.447A1.951,1.951,0,0,0,9.5,15.37v.505A2.559,2.559,0,0,0,8.008,18.2V37.8a2.559,2.559,0,0,0,2.556,2.556H42.648A2.559,2.559,0,0,0,45.2,37.8V32.359h.6A1.294,1.294,0,0,0,47.1,31.067V24.93A1.294,1.294,0,0,0,45.807,23.637Zm-3.635-9.065h0a.8.8,0,0,1,.8.8v.293a2.563,2.563,0,0,0-.323-.021h-2.44l.729-1.07ZM29.612,1.462a.708.708,0,0,1,.456-.3.723.723,0,0,1,.134-.013.708.708,0,0,1,.4.124L42.308,9.252a.713.713,0,0,1,.188.99l-3.68,5.4h-.883l1.8-2.647a1.344,1.344,0,0,0,.063-1.426,3.214,3.214,0,0,1-.385-1.984,1.345,1.345,0,0,0-.582-1.291L32.764,4.159a1.345,1.345,0,0,0-1.414-.069,3.214,3.214,0,0,1-1.987.367,1.361,1.361,0,0,0-1.3.58L20.832,15.642h-.883Zm.253,9.765a4.745,4.745,0,0,0-4.727,4.415H22.223l6.786-9.958h0a.205.205,0,0,1,.168-.09l.026,0a4.372,4.372,0,0,0,2.7-.5.2.2,0,0,1,.211.013l6.069,4.136a.2.2,0,0,1,.089.191,4.37,4.37,0,0,0,.524,2.7.2.2,0,0,1-.011.213l-2.245,3.295H34.592A4.745,4.745,0,0,0,29.865,11.227Zm3.574,4.415H26.291a3.589,3.589,0,0,1,7.148,0Zm-22.79-.272a.8.8,0,0,1,.8-.8h1.359l-.106,1.07H10.649ZM9.158,18.2a1.407,1.407,0,0,1,1.406-1.406H42.648A1.407,1.407,0,0,1,44.053,18.2v1.6H9.158Zm34.9,19.6A1.407,1.407,0,0,1,42.648,39.2H10.564A1.407,1.407,0,0,1,9.158,37.8V36.2h3.1a.575.575,0,1,0,0-1.15h-3.1V20.943h34.9v2.694H38.586a4.366,4.366,0,0,0-3.923,2.458l-.007.014-.017.038a4.336,4.336,0,0,0-.217.556v0a4.362,4.362,0,0,0,4.165,5.655h5.467v2.694H15.941a.575.575,0,0,0,0,1.15H44.053Zm1.9-6.732a.143.143,0,0,1-.143.143H38.586a3.214,3.214,0,0,1-2.823-1.682q-.037-.068-.071-.138-.068-.14-.122-.288a3.214,3.214,0,0,1,0-2.206q.054-.147.122-.288.034-.07.071-.138a3.214,3.214,0,0,1,2.823-1.682h7.221a.143.143,0,0,1,.143.143v6.137Z" transform="translate(-8.008 0)" fill="#2daa8d"/></g></g><g transform="translate(36.388 25.665)"><path d="M370.414,325.627a2.333,2.333,0,1,0,2.333,2.333A2.336,2.336,0,0,0,370.414,325.627Zm0,3.516a1.183,1.183,0,1,1,1.183-1.183A1.184,1.184,0,0,1,370.414,329.143Z" transform="translate(-368.081 -325.627)" fill="#2daa8d"/></g></g></g></svg>