<svg xmlns="http://www.w3.org/2000/svg" width="80" height="80" viewBox="0 0 80 80"><g transform="translate(-295 -521)"><circle cx="40" cy="40" r="40" transform="translate(295 521)" fill="rgba(92,0,141,0.16)"/><g transform="translate(314 492.802)"><g transform="translate(0 51.198)"><path d="M42.406,62.36,31.692,51.646a1.531,1.531,0,0,0-2.613,1.082V57.32H18.366a1.531,1.531,0,0,0,0,3.061H30.61a1.531,1.531,0,0,0,1.531-1.531V56.423l7.019,7.019-7.019,7.019V68.034A1.531,1.531,0,0,0,30.61,66.5H13.774V61.912a1.531,1.531,0,0,0-2.613-1.082L.448,71.543a1.53,1.53,0,0,0,0,2.164L11.162,84.421a1.531,1.531,0,0,0,1.082.449,1.511,1.511,0,0,0,.586-.116,1.53,1.53,0,0,0,.944-1.414V78.747H24.488a1.531,1.531,0,0,0,0-3.061H12.244a1.531,1.531,0,0,0-1.531,1.531v2.427L3.694,72.625l7.019-7.019v2.427a1.531,1.531,0,0,0,1.531,1.531H29.08v4.592a1.531,1.531,0,0,0,2.613,1.082L42.406,64.524A1.531,1.531,0,0,0,42.406,62.36Z" transform="translate(0 -51.198)" fill="#8b20ac"/></g></g></g></svg>