<svg xmlns="http://www.w3.org/2000/svg" width="39.639" height="38.438" viewBox="0 0 39.639 38.438"><g transform="translate(-10 -136)"><g transform="translate(10 136)"><path d="M19.219,0A19.219,19.219,0,1,1,0,19.219,19.219,19.219,0,0,1,19.219,0Z" fill="#5436cd"/><g transform="translate(2.402 2.402)"><rect width="33.633" height="33.633" fill="none"/></g><g transform="translate(-23.047 11.234)"><path d="M88.309,7.868a3.934,3.934,0,1,0-3.934-3.934A3.938,3.938,0,0,0,88.309,7.868Zm0-6.294a2.36,2.36,0,1,1-2.36,2.36A2.363,2.363,0,0,1,88.309,1.574Z" transform="translate(-46.193)" fill="#fff"/><path d="M42.116,180a6.5,6.5,0,0,0-6.491,6.491v.787H48.607v-.787A6.5,6.5,0,0,0,42.116,180Zm-4.855,5.7a4.918,4.918,0,0,1,9.709,0Z" transform="translate(0 -170.559)" fill="#fff"/></g></g><g transform="translate(49.639 174.438) rotate(180)"><circle cx="6.006" cy="6.006" r="6.006" fill="#d11b1b"/><g transform="translate(2.526 8.921) rotate(-90)"><path d="M5.612,3.567a.134.134,0,0,0-.124-.083H4.02V.134A.134.134,0,0,0,3.886,0H1.742a.134.134,0,0,0-.134.134v3.35H.134a.134.134,0,0,0-.095.229L2.713,6.395a.134.134,0,0,0,.19,0L5.583,3.713A.134.134,0,0,0,5.612,3.567Z" fill="#fff"/></g></g></g></svg>