<svg xmlns="http://www.w3.org/2000/svg" width="38" height="38" viewBox="0 0 38 38"><g transform="translate(47.224 21.736) rotate(90)"><circle cx="19" cy="19" r="19" transform="translate(-21.736 9.224)" fill="#ffcece"/><g transform="translate(-8.61 33.668) rotate(-90)"><g transform="translate(0)"><path d="M10.371,6.591a.248.248,0,0,0-.229-.153H7.429V.248A.248.248,0,0,0,7.181,0H3.219a.248.248,0,0,0-.248.248v6.19H.248a.247.247,0,0,0-.175.422l4.94,4.956a.248.248,0,0,0,.351,0l4.954-4.956A.247.247,0,0,0,10.371,6.591Z" fill="#d11b1b"/></g></g></g></svg>